<?xml version="1.0" encoding="utf-8"?>
<!-- Generator: Adobe Illustrator 16.0.0, SVG Export Plug-In . SVG Version: 6.00 Build 0)  -->
<!DOCTYPE svg PUBLIC "-//W3C//DTD SVG 1.1//EN" "http://www.w3.org/Graphics/SVG/1.1/DTD/svg11.dtd">
<svg version="1.1" id="Layer_1" xmlns="http://www.w3.org/2000/svg" xmlns:xlink="http://www.w3.org/1999/xlink" x="0px" y="0px"
	 width="1000px" height="1000px" viewBox="0 0 1000 1000" enable-background="new 0 0 1000 1000" xml:space="preserve">
<g>
	<path fill="#BE4243" d="M578.775,674.195c0-39.071-31.672-70.744-70.742-70.744c-39.074,0-70.746,31.673-70.746,70.744
		c0,39.07,31.672,70.742,70.746,70.742C547.104,744.938,578.775,713.266,578.775,674.195z"/>
	<g>
		
			<line fill="none" stroke="#BE4243" stroke-width="30" stroke-linecap="round" stroke-linejoin="round" stroke-miterlimit="10" x1="543.15" y1="725.764" x2="562.113" y2="804.287"/>
		
			<polygon fill="#BE4243" stroke="#BE4243" stroke-width="7" stroke-linecap="round" stroke-linejoin="round" stroke-miterlimit="10" points="
			573.902,805.641 599.617,830.176 551.295,830.176 548.188,795.979 		"/>
	</g>
	<g>
		
			<line fill="none" stroke="#BE4243" stroke-width="30" stroke-linecap="round" stroke-linejoin="round" stroke-miterlimit="10" x1="469.52" y1="725.764" x2="450.557" y2="804.287"/>
		
			<polygon fill="#BE4243" stroke="#BE4243" stroke-width="7" stroke-linecap="round" stroke-linejoin="round" stroke-miterlimit="10" points="
			438.768,805.641 413.055,830.176 461.375,830.176 464.484,795.979 		"/>
	</g>
	<g>
		<path fill="none" stroke="#BE4243" stroke-width="30" stroke-linecap="round" stroke-linejoin="round" stroke-miterlimit="10" d="
			M592.092,647.194c38.635,5.428,66.555,38.57,64.66,77.568"/>
		
			<line fill="#E35050" stroke="#BE4243" stroke-width="15" stroke-linecap="round" stroke-linejoin="round" stroke-miterlimit="10" x1="645.076" y1="709.778" x2="629.695" y2="729.987"/>
		<path fill="#BE4243" d="M652.672,709.956l0.828-11.059c0,0-4.951-37.264,4.922-23.654c9.123,12.576,20.838,43.059,22.566,47.623
			c1.666,4.111,2.154,8.746,1.115,13.404c-2.719,12.199-14.816,19.885-27.018,17.164c-9.574-2.133-15.034-7.945-16.201-17.146
			c-0.32-2.525-1.55-7.244-0.965-9.869C639.696,718.452,645.481,712.435,652.672,709.956z"/>
	</g>
	<path fill="#E35050" d="M498.919,682.812c4.758,6.594,15.262,17.922,28.729,13.088c9.711-3.486,14.381-21.842,14.381-21.842
		s11.969,9.842,33.303,4.626s26.826-25.123,26.826-25.123s-4.16,27.672,19.174,24.933c23.174-2.721,15.518-45.512,15.411-46.093
		c2.774,15.335,19.392,30.153,31.519,13.849c9.131-12.279,6.492-32.887,5.029-47.11c1.156,11.248,12.869,30.463,26.243,23.937
		c17.487-8.533,8.831-41.776,4.462-55.176c6.607,20.259,30.141,8.004,35.494-5.699c7.557-19.341-6.346-43.567-15.857-59.846
		c8.651,11.348,28.131,21.441,34.086,2.15c10.531-34.122-15.629-65.981-36.574-89.753c9.029,10.749,48.023,45.306,49.783,10.309
		c1.609-32.071-30.154-55.681-56.275-67.448c7.979,3.361,16.488,6.835,25.23,7.361c23.037,1.389,19.41-19.463,8.184-31.838
		c-11.969-13.191-27.596-23.434-43.512-31.254c5.408,5.197,19.621,14.049,27.213,12.965c13.123-1.873,19.199-26.611,12.896-33.614
		c-18-20-48.553-12.77-60-8l4.578-1.253c20.775-5.895,24.309-25.747,18.434-41.333c-11.59-30.747-62.623-17.126-91.271-6.167
		c9.734-3.724,21.133-3.67,26.143-14.722c4.627-10.209-1.189-20.946-10.758-25.524c-24.164-11.56-49.902,9.939-68.67,22.67
		c6.695-5.31,18.4-13.282,20.082-22.324c3.344-17.968-24.479-15.48-34.381-13.092c-18.602,4.486-35.283,16.672-46.213,32.287h-5.211
		c-10.931-15.615-27.612-27.801-46.214-32.287c-9.901-2.389-37.724-4.876-34.381,13.092c1.683,9.042,13.387,17.015,20.082,22.324
		c-18.768-12.73-44.507-34.229-68.67-22.67c-9.568,4.578-15.385,15.315-10.758,25.524c5.01,11.052,16.408,10.998,26.143,14.722
		c-28.647-10.959-79.682-24.58-91.271,6.167c-5.875,15.586-2.342,35.438,18.434,41.333l4.577,1.253c-11.447-4.77-42-12-60,8
		c-6.302,7.003-0.225,31.741,12.897,33.614c7.592,1.084,21.806-7.768,27.214-12.965c-15.917,7.82-31.543,18.062-43.513,31.254
		c-11.227,12.375-14.853,33.227,8.185,31.838c8.74-0.526,17.251-4,25.229-7.361c-26.12,11.768-57.886,35.377-56.276,67.448
		c1.761,34.997,40.756,0.44,49.783-10.309c-20.944,23.772-47.104,55.632-36.573,89.753c5.955,19.291,25.435,9.197,34.087-2.15
		c-9.512,16.278-23.415,40.505-15.858,59.846c5.354,13.703,28.888,25.958,35.493,5.699c-4.368,13.399-13.024,46.643,4.463,55.176
		c13.373,6.526,25.086-12.688,26.242-23.937c-1.461,14.224-4.101,34.831,5.031,47.11c12.126,16.305,28.744,1.486,31.518-13.849
		c-0.105,0.581-7.763,43.372,15.412,46.093c23.333,2.739,19.173-24.933,19.173-24.933s5.492,19.907,26.825,25.123
		c21.335,5.216,33.304-4.626,33.304-4.626s4.67,18.355,14.381,21.842c13.312,4.778,23.731-6.236,28.563-12.859"/>
	<g>
		<g>
			
				<path fill="#FFFFFF" stroke="#231F20" stroke-width="14" stroke-linecap="round" stroke-linejoin="round" stroke-miterlimit="10" d="
				M486.735,458.847c0,0,1.902,11.5,12.938,11.5"/>
			
				<path fill="#FFFFFF" stroke="#231F20" stroke-width="14" stroke-linecap="round" stroke-linejoin="round" stroke-miterlimit="10" d="
				M512.61,458.847c0,0-1.902,11.5-12.938,11.5"/>
		</g>
		
			<circle fill="#FFFFFF" stroke="#231F20" stroke-width="14" stroke-linecap="round" stroke-linejoin="round" stroke-miterlimit="10" cx="397.666" cy="450.597" r="70.497"/>
		<g>
			<path fill="#231F20" d="M398.473,450.597l34.229-10.668c-4.541-14.587-18.147-25.176-34.229-25.176
				c-19.797,0-35.844,16.047-35.844,35.844s16.047,35.844,35.844,35.844c16.082,0,29.688-10.589,34.229-25.176L398.473,450.597z"/>
			<path fill="#231F20" d="M398.473,490c-21.727,0-39.403-17.677-39.403-39.403s17.677-39.403,39.403-39.403
				c17.353,0,32.475,11.122,37.627,27.677c0.586,1.877-0.462,3.871-2.339,4.456l-23.327,7.271l23.327,7.271
				c1.877,0.585,2.925,2.579,2.339,4.456C430.947,478.878,415.825,490,398.473,490z M398.473,418.312
				c-17.802,0-32.285,14.483-32.285,32.285s14.483,32.285,32.285,32.285c13.018,0,24.502-7.637,29.59-19.335l-30.648-9.552
				c-1.488-0.464-2.5-1.841-2.5-3.398s1.012-2.935,2.5-3.398l30.648-9.552C422.975,425.949,411.49,418.312,398.473,418.312z"/>
		</g>
		
			<circle fill="#FFFFFF" stroke="#231F20" stroke-width="14" stroke-linecap="round" stroke-linejoin="round" stroke-miterlimit="10" cx="602.334" cy="450.597" r="70.497"/>
		<g>
			<path fill="#231F20" d="M603.142,450.597l34.229-10.668c-4.541-14.587-18.146-25.176-34.229-25.176
				c-19.797,0-35.846,16.047-35.846,35.844s16.049,35.844,35.846,35.844c16.082,0,29.688-10.589,34.229-25.176L603.142,450.597z"/>
			<path fill="#231F20" d="M603.142,490c-21.727,0-39.404-17.677-39.404-39.403s17.678-39.403,39.404-39.403
				c17.352,0,32.473,11.122,37.627,27.677c0.586,1.877-0.463,3.871-2.34,4.456l-23.326,7.271l23.326,7.271
				c1.877,0.585,2.926,2.579,2.34,4.456C635.614,478.878,620.493,490,603.142,490z M603.142,418.312
				c-17.803,0-32.285,14.483-32.285,32.285s14.482,32.285,32.285,32.285c13.018,0,24.502-7.637,29.588-19.335l-30.646-9.552
				c-1.488-0.464-2.5-1.841-2.5-3.398s1.012-2.935,2.5-3.398l30.646-9.552C627.644,425.949,616.159,418.312,603.142,418.312z"/>
		</g>
	</g>
	
		<rect x="312.157" y="581.474" transform="matrix(0.954 -0.2997 0.2997 0.954 -187.8488 147.3563)" fill="#C3996C" stroke="#C3996C" stroke-width="14" stroke-linecap="round" stroke-linejoin="round" stroke-miterlimit="10" width="148.462" height="209.006"/>
	
		<rect x="323.368" y="593.671" transform="matrix(0.954 -0.2997 0.2997 0.954 -186.2402 145.6664)" fill="#FFFFFF" stroke="#FFFFFF" stroke-width="14" stroke-linecap="round" stroke-linejoin="round" stroke-miterlimit="10" width="116.62" height="172.42"/>
	<circle fill="#BE4243" cx="316.969" cy="724.763" r="22.346"/>
	
		<line fill="#010101" stroke="#BDBEC0" stroke-width="14" stroke-linecap="round" stroke-linejoin="round" stroke-miterlimit="10" x1="342.894" y1="580.158" x2="339.014" y2="568.03"/>
	
		<rect x="336.393" y="583.064" transform="matrix(0.954 -0.2997 0.2997 0.954 -160.6769 131.1152)" fill="#010101" stroke="#010101" stroke-width="14" stroke-linecap="round" stroke-linejoin="round" stroke-miterlimit="10" width="21.298" height="12.467"/>
	
		<line fill="#010101" stroke="#BDBEC0" stroke-width="14" stroke-linecap="round" stroke-linejoin="round" stroke-miterlimit="10" x1="339.014" y1="607.056" x2="365.561" y2="598.436"/>
	
		<line fill="#010101" stroke="#010101" stroke-width="14" stroke-linecap="round" stroke-linejoin="round" stroke-miterlimit="10" x1="322.893" y1="644.39" x2="410.227" y2="616.39"/>
	
		<line fill="#010101" stroke="#010101" stroke-width="14" stroke-linecap="round" stroke-linejoin="round" stroke-miterlimit="10" x1="335.014" y1="675.194" x2="422.348" y2="647.194"/>
	
		<line fill="#010101" stroke="#010101" stroke-width="14" stroke-linecap="round" stroke-linejoin="round" stroke-miterlimit="10" x1="342.722" y1="707.882" x2="430.055" y2="679.882"/>
</g>
</svg>
