<?xml version="1.0" encoding="utf-8"?>
<!-- Generator: Adobe Illustrator 16.0.0, SVG Export Plug-In . SVG Version: 6.00 Build 0)  -->
<!DOCTYPE svg PUBLIC "-//W3C//DTD SVG 1.1//EN" "http://www.w3.org/Graphics/SVG/1.1/DTD/svg11.dtd">
<svg version="1.1" id="Layer_1" xmlns="http://www.w3.org/2000/svg" xmlns:xlink="http://www.w3.org/1999/xlink" x="0px" y="0px"
	 width="1000px" height="1000px" viewBox="-50 -50 1000 1000" enable-background="new -50 -50 1000 1000" xml:space="preserve">
<g>
	<g>
		<g>
			
				<line fill="none" stroke="#1683C6" stroke-width="30" stroke-linecap="round" stroke-linejoin="round" stroke-miterlimit="10" x1="455.402" y1="704.928" x2="436.439" y2="783.451"/>
			
				<polygon fill="#C2B59C" stroke="#C2B59C" stroke-width="7" stroke-linecap="round" stroke-linejoin="round" stroke-miterlimit="10" points="
				424.651,784.805 398.936,809.34 447.258,809.34 450.367,775.143 			"/>
		</g>
		
			<polygon fill="#1683C6" stroke="#1683C6" stroke-width="7" stroke-linecap="round" stroke-linejoin="round" stroke-miterlimit="10" points="
			429.205,764.963 423.735,785.678 449.089,789.195 452.943,757.695 		"/>
		
			<rect x="417.589" y="757.695" fill="#C2B59C" stroke="#C2B59C" stroke-width="7" stroke-linecap="round" stroke-linejoin="round" stroke-miterlimit="10" width="41.978" height="51.645"/>
	</g>
	<g>
		<g>
			
				<line fill="none" stroke="#1683C6" stroke-width="30" stroke-linecap="round" stroke-linejoin="round" stroke-miterlimit="10" x1="523.889" y1="704.928" x2="542.854" y2="783.451"/>
			
				<polygon fill="#C2B59C" stroke="#C2B59C" stroke-width="7" stroke-linecap="round" stroke-linejoin="round" stroke-miterlimit="10" points="
				554.641,784.805 580.355,809.34 532.033,809.34 528.926,775.143 			"/>
		</g>
		
			<polygon fill="#1683C6" stroke="#1683C6" stroke-width="7" stroke-linecap="round" stroke-linejoin="round" stroke-miterlimit="10" points="
			550.088,764.963 555.557,785.678 530.203,789.195 526.35,757.695 		"/>
		
			<rect x="519.727" y="757.695" fill="#C2B59C" stroke="#C2B59C" stroke-width="7" stroke-linecap="round" stroke-linejoin="round" stroke-miterlimit="10" width="41.978" height="51.645"/>
	</g>
	
		<circle fill="#1683C6" stroke="#1683C6" stroke-width="7" stroke-linecap="round" stroke-linejoin="round" stroke-miterlimit="10" cx="487.199" cy="653.357" r="70.744"/>
	<g>
		
			<path fill="#1683C6" stroke="#1683C6" stroke-width="30" stroke-linecap="round" stroke-linejoin="round" stroke-miterlimit="10" d="
			M403.677,637.24c3.019,38.896-23.334,73.297-61.826,79.844"/>
		
			<line fill="none" stroke="#BE4243" stroke-width="15" stroke-linecap="round" stroke-linejoin="round" stroke-miterlimit="10" x1="353.971" y1="702.455" x2="330.922" y2="691.787"/>
		<path fill="#BE4243" d="M355.431,709.91l10.979-1.57c0,0,35.324-12.859,24.161-0.287c-10.316,11.617-37.562,29.621-41.648,32.291
			c-3.654,2.513-8.077,3.988-12.849,3.978c-12.5-0.029-22.609-10.188-22.58-22.688c0.022-9.811,4.521-16.395,13.257-19.516
			c2.396-0.855,6.74-3.072,9.43-3.066C344.341,699.07,351.463,703.424,355.431,709.91z"/>
		
			<path fill="#1683C6" stroke="#1683C6" stroke-width="7" stroke-linecap="round" stroke-linejoin="round" stroke-miterlimit="10" d="
			M366.154,697.178l-12.176,1.916c0,0-4.265,13.752,9.745,24.785c0,0,21.043-3.979,36.441-31.93l-13.486-3.265L366.154,697.178z"/>
	</g>
	<g>
		
			<path fill="#1683C6" stroke="#1683C6" stroke-width="30" stroke-linecap="round" stroke-linejoin="round" stroke-miterlimit="10" d="
			M538.463,649.48c38.889-3.109,73.353,23.161,79.988,61.639"/>
		
			<line fill="none" stroke="#BE4243" stroke-width="15" stroke-linecap="round" stroke-linejoin="round" stroke-miterlimit="10" x1="603.795" y1="699.033" x2="593.18" y2="722.107"/>
		<path fill="#BE4243" d="M611.246,697.557l-1.598-10.975c0,0-12.941-35.295-0.343-24.16c11.642,10.289,29.709,37.492,32.388,41.572
			c2.521,3.648,4.008,8.068,4.008,12.84c0,12.5-10.137,22.633-22.637,22.633c-9.81,0-16.402-4.481-19.546-13.211
			c-0.86-2.395-3.088-6.731-3.088-9.422C600.432,708.67,604.768,701.539,611.246,697.557z"/>
		
			<path fill="#1683C6" stroke="#1683C6" stroke-width="7" stroke-linecap="round" stroke-linejoin="round" stroke-miterlimit="10" d="
			M598.488,686.863l1.942,12.17c0,0,13.765,4.231,24.765-9.803c0,0-4.029-21.035-32.017-36.367l-3.231,13.494L598.488,686.863z"/>
	</g>
	
		<path fill="#1683C6" stroke="#1683C6" stroke-width="30" stroke-linecap="round" stroke-linejoin="round" stroke-miterlimit="10" d="
		M642.203,221.156c0,0-13.365-130.496-157.412-130.496h-2.85c-144.047,0-157.412,130.496-157.412,130.496"/>
	<path fill="#E35050" d="M481.154,660.623c4.758,6.594,15.26,17.922,28.727,13.088c9.713-3.486,14.381-21.842,14.381-21.842
		s11.969,9.842,33.303,4.625c21.334-5.215,26.828-25.123,26.828-25.123s-4.162,27.672,19.172,24.934
		c23.177-2.721,15.519-45.512,15.412-46.094c2.773,15.336,19.394,30.154,31.519,13.85c9.133-12.278,6.492-32.887,5.033-47.11
		c1.153,11.248,12.866,30.463,26.239,23.938c17.488-8.532,8.83-41.776,4.463-55.176c6.605,20.258,30.142,8.004,35.494-5.699
		c7.556-19.342-6.348-43.567-15.858-59.846c8.651,11.348,28.133,21.441,34.088,2.15c10.531-34.121-15.629-65.981-36.576-89.753
		c9.029,10.75,48.025,45.306,49.785,10.309c1.608-32.071-30.156-55.68-56.275-67.449c7.978,3.362,16.488,6.835,25.229,7.362
		c23.039,1.388,19.412-19.463,8.184-31.838c-11.969-13.192-27.594-23.434-43.512-31.254c5.408,5.198,19.623,14.048,27.215,12.965
		c13.121-1.873,19.197-26.611,12.896-33.614c-18-20-48.554-12.77-60-8l4.577-1.252c20.775-5.895,24.31-25.748,18.435-41.333
		c-11.59-30.747-62.625-17.125-91.271-6.167c9.734-3.724,21.134-3.669,26.142-14.722c4.629-10.209-1.188-20.947-10.756-25.524
		c-24.162-11.56-49.902,9.939-68.67,22.67c6.692-5.31,18.397-13.282,20.081-22.324c3.343-17.968-24.479-15.481-34.381-13.092
		c-18.602,4.487-35.282,16.672-46.213,32.288h-5.213c-10.93-15.616-27.611-27.801-46.213-32.288
		c-9.901-2.389-37.723-4.875-34.381,13.092c1.684,9.042,13.387,17.015,20.083,22.324c-18.77-12.731-44.507-34.229-68.67-22.67
		c-9.568,4.578-15.386,15.315-10.758,25.524c5.009,11.052,16.407,10.998,26.142,14.722c-28.646-10.958-79.68-24.58-91.271,6.167
		c-5.876,15.586-2.342,35.439,18.434,41.333l4.578,1.252c-11.447-4.77-42-12-60,8c-6.304,7.003-0.227,31.742,12.896,33.614
		c7.593,1.083,21.807-7.767,27.214-12.965c-15.917,7.821-31.542,18.062-43.513,31.254c-11.225,12.375-14.852,33.226,8.186,31.838
		c8.739-0.527,17.251-4,25.229-7.362c-26.119,11.769-57.886,35.377-56.274,67.449c1.761,34.997,40.754,0.441,49.783-10.309
		c-20.945,23.772-47.104,55.632-36.575,89.753c5.956,19.291,25.436,9.196,34.088-2.15c-9.512,16.277-23.415,40.504-15.858,59.846
		c5.354,13.703,28.888,25.957,35.494,5.699c-4.37,13.398-13.025,46.644,4.462,55.176c13.374,6.525,25.087-12.688,26.242-23.938
		c-1.461,14.225-4.101,34.832,5.03,47.11c12.125,16.306,28.744,1.486,31.519-13.85c-0.105,0.582-7.763,43.373,15.412,46.094
		c23.332,2.738,19.173-24.934,19.173-24.934s5.491,19.908,26.825,25.123c21.334,5.217,33.304-4.625,33.304-4.625
		s4.67,18.354,14.38,21.842c13.314,4.777,23.732-6.236,28.564-12.859"/>
	<g>
		<g>
			
				<path fill="#FFFFFF" stroke="#231F20" stroke-width="14" stroke-linecap="round" stroke-linejoin="round" stroke-miterlimit="10" d="
				M468.971,436.658c0,0,1.902,11.5,12.938,11.5"/>
			
				<path fill="#FFFFFF" stroke="#231F20" stroke-width="14" stroke-linecap="round" stroke-linejoin="round" stroke-miterlimit="10" d="
				M494.846,436.658c0,0-1.901,11.5-12.938,11.5"/>
		</g>
		<g>
			
				<circle fill="#FFFFFF" stroke="#231F20" stroke-width="14" stroke-linecap="round" stroke-linejoin="round" stroke-miterlimit="10" cx="379.901" cy="428.408" r="70.497"/>
			<g>
				<path fill="#231F20" d="M380.708,428.408l34.229-10.668c-4.541-14.586-18.148-25.176-34.229-25.176
					c-19.797,0-35.844,16.048-35.844,35.844c0,19.797,16.047,35.844,35.844,35.844c16.08,0,29.688-10.589,34.229-25.176
					L380.708,428.408z"/>
				<path fill="#231F20" d="M380.708,467.812c-21.727,0-39.404-17.678-39.404-39.403c0-21.728,17.679-39.403,39.404-39.403
					c17.352,0,32.475,11.123,37.627,27.677c0.586,1.876-0.463,3.871-2.338,4.456l-23.328,7.271l23.328,7.271
					c1.875,0.585,2.924,2.579,2.338,4.456C413.183,456.689,398.06,467.812,380.708,467.812z M380.708,396.123
					c-17.803,0-32.287,14.483-32.287,32.285s14.484,32.285,32.287,32.285c13.016,0,24.5-7.638,29.59-19.335l-30.647-9.553
					c-1.488-0.463-2.5-1.84-2.5-3.397c0-1.559,1.012-2.936,2.5-3.398l30.647-9.552C405.208,403.76,393.724,396.123,380.708,396.123z
					"/>
			</g>
			
				<circle fill="#FFFFFF" stroke="#231F20" stroke-width="14" stroke-linecap="round" stroke-linejoin="round" stroke-miterlimit="10" cx="584.57" cy="428.408" r="70.498"/>
			<g>
				<path fill="#231F20" d="M585.377,428.408l34.23-10.668c-4.541-14.586-18.148-25.176-34.23-25.176
					c-19.795,0-35.844,16.048-35.844,35.844c0,19.797,16.049,35.844,35.844,35.844c16.082,0,29.689-10.589,34.23-25.176
					L585.377,428.408z"/>
				<path fill="#231F20" d="M585.377,467.812c-21.727,0-39.402-17.678-39.402-39.403c0-21.728,17.677-39.403,39.402-39.403
					c17.354,0,32.475,11.123,37.629,27.677c0.584,1.876-0.465,3.871-2.34,4.456l-23.328,7.271l23.328,7.271
					c1.875,0.585,2.924,2.579,2.34,4.456C617.852,456.689,602.73,467.812,585.377,467.812z M585.377,396.123
					c-17.803,0-32.285,14.483-32.285,32.285s14.482,32.285,32.285,32.285c13.018,0,24.502-7.638,29.59-19.335l-30.647-9.553
					c-1.486-0.463-2.5-1.84-2.5-3.397c0-1.559,1.014-2.936,2.5-3.398l30.647-9.552C609.879,403.76,598.395,396.123,585.377,396.123z
					"/>
			</g>
		</g>
	</g>
	<path fill="#F2F2F2" d="M797.65,436.658c0-15.879-5.812-30.393-15.404-41.562c13.127-11.692,21.404-28.715,21.404-47.678
		c0-23.714-12.941-44.394-32.138-55.401c2.027-6.227,3.138-12.868,3.138-19.771c0-32.483-24.269-59.28-55.658-63.298
		c0.002-0.181,0.014-0.359,0.014-0.54c0-35.257-28.582-63.838-63.838-63.838c-9.244,0-18.021,1.98-25.953,5.516
		c-11.705-14.349-29.521-23.516-49.484-23.516c-19.521,0-36.985,8.773-48.696,22.582c-8.41-9.918-19.799-17.216-32.779-20.553
		c-0.043-0.012-0.088-0.023-0.131-0.034c-0.943-0.24-1.894-0.46-2.853-0.658c-0.147-0.031-0.299-0.059-0.446-0.089
		c-0.886-0.175-1.771-0.337-2.666-0.476c-0.246-0.039-0.492-0.069-0.738-0.104c-0.82-0.117-1.645-0.229-2.477-0.314
		c-0.369-0.039-0.742-0.062-1.115-0.094c-0.723-0.062-1.445-0.128-2.178-0.166c-0.796-0.042-1.597-0.055-2.398-0.067
		c-0.307-0.004-0.609-0.025-0.916-0.025c-0.018,0-0.033,0.001-0.051,0.001c-0.017,0-0.033-0.001-0.049-0.001
		c-0.31,0-0.609,0.021-0.916,0.025c-0.804,0.013-1.605,0.025-2.4,0.067c-0.729,0.038-1.453,0.104-2.178,0.166
		c-0.371,0.032-0.744,0.055-1.115,0.094c-0.83,0.086-1.654,0.197-2.477,0.314c-0.244,0.036-0.492,0.066-0.736,0.104
		c-0.896,0.138-1.783,0.3-2.666,0.476c-0.148,0.03-0.299,0.058-0.447,0.089c-0.959,0.198-1.907,0.418-2.852,0.658
		c-0.043,0.011-0.088,0.022-0.133,0.034c-12.979,3.337-24.368,10.635-32.778,20.553c-11.711-13.808-29.176-22.582-48.698-22.582
		c-19.962,0-37.777,9.167-49.483,23.516c-7.932-3.535-16.708-5.516-25.952-5.516c-35.257,0-63.838,28.581-63.838,63.838
		c0,0.181,0.012,0.359,0.014,0.54c-31.391,4.018-55.658,30.815-55.658,63.298c0,6.903,1.109,13.544,3.137,19.771
		c-19.195,11.008-32.137,31.687-32.137,55.401c0,18.963,8.276,35.986,21.404,47.678c-9.594,11.168-15.404,25.683-15.404,41.562
		c0,19.8,9.016,37.493,23.164,49.202c-5.309,9.312-8.357,20.079-8.357,31.562c0,31.398,22.675,57.484,52.538,62.82
		c-0.321,2.598-0.507,5.237-0.507,7.924c0,35.256,28.581,63.838,63.838,63.838c7.626,0,14.938-1.344,21.717-3.795
		c8.977,24.394,32.419,41.795,59.928,41.795c17.381,0,33.131-6.955,44.642-18.223c9.104,20.489,28.669,35.293,51.921,37.621
		c0.005,0,0.009,0,0.011,0.002c0.991,0.098,1.991,0.174,2.996,0.227c0.131,0.008,0.262,0.017,0.395,0.023
		c1.006,0.047,2.014,0.078,3.031,0.078c0.016,0,0.033-0.003,0.049-0.003c0.018,0,0.033,0.003,0.051,0.003
		c1.017,0,2.025-0.031,3.031-0.078c0.131-0.009,0.262-0.017,0.393-0.023c1.007-0.053,2.005-0.129,2.996-0.227
		c0.004-0.002,0.009-0.002,0.011-0.002c23.252-2.328,42.817-17.132,51.922-37.621c11.512,11.268,27.262,18.223,44.643,18.223
		c27.508,0,50.951-17.401,59.928-41.795c6.779,2.451,14.091,3.795,21.718,3.795c35.256,0,63.838-28.582,63.838-63.838
		c0-2.686-0.187-5.326-0.509-7.924c29.863-5.336,52.539-31.422,52.539-62.82c0-11.483-3.049-22.252-8.356-31.562
		C788.635,474.151,797.65,456.458,797.65,436.658z M669.975,436.658c0,11.484,3.05,22.252,8.357,31.562
		c-14.148,11.71-23.164,29.401-23.164,49.202c0,2.687,0.186,5.324,0.506,7.922c-22.494,4.021-40.91,19.808-48.627,40.779
		c-6.779-2.453-14.092-3.795-21.717-3.795c-26.039,0-48.42,15.598-58.354,37.951c-11.51-11.269-27.26-18.224-44.641-18.224
		c-0.018,0-0.033,0.002-0.051,0.002c-0.017,0-0.033-0.002-0.049-0.002c-17.382,0-33.132,6.955-44.643,18.224
		c-9.933-22.354-32.312-37.951-58.353-37.951c-7.626,0-14.938,1.342-21.717,3.795c-7.718-20.973-26.135-36.758-48.629-40.779
		c0.321-2.598,0.508-5.235,0.508-7.922c0-19.801-9.017-37.492-23.165-49.202c5.309-9.312,8.357-20.078,8.357-31.562
		c0-18.963-8.276-35.986-21.404-47.678c9.594-11.169,15.404-25.683,15.404-41.562c0-6.903-1.109-13.544-3.137-19.771
		c19.195-11.008,32.137-31.687,32.137-55.401c0-0.181-0.012-0.359-0.014-0.54c16.61-2.126,31.225-10.621,41.305-22.976
		c7.933,3.535,16.708,5.516,25.952,5.516c19.522,0,36.987-8.773,48.698-22.582c8.41,9.918,19.799,17.216,32.777,20.553
		c0.046,0.012,0.091,0.023,0.134,0.034c0.942,0.24,1.893,0.46,2.852,0.658c0.148,0.031,0.299,0.059,0.447,0.089
		c0.883,0.175,1.77,0.337,2.666,0.476c0.244,0.039,0.492,0.069,0.735,0.104c0.822,0.117,1.646,0.229,2.478,0.314
		c0.371,0.039,0.744,0.062,1.115,0.094c0.725,0.062,1.446,0.128,2.178,0.166c0.795,0.042,1.598,0.055,2.399,0.067
		c0.308,0.004,0.607,0.025,0.916,0.025c0.017,0,0.033-0.001,0.05-0.001c0.018,0,0.032,0.001,0.051,0.001
		c0.307,0,0.608-0.021,0.916-0.025c0.803-0.013,1.604-0.025,2.397-0.067c0.732-0.038,1.455-0.104,2.179-0.166
		c0.373-0.032,0.746-0.055,1.114-0.094c0.832-0.086,1.656-0.197,2.478-0.314c0.246-0.036,0.492-0.066,0.738-0.104
		c0.895-0.138,1.78-0.3,2.666-0.476c0.147-0.03,0.299-0.058,0.446-0.089c0.959-0.198,1.908-0.418,2.853-0.658
		c0.043-0.011,0.088-0.022,0.131-0.034c12.979-3.337,24.369-10.635,32.779-20.553c11.711,13.808,29.176,22.582,48.696,22.582
		c9.244,0,18.021-1.98,25.953-5.516c10.08,12.355,24.693,20.85,41.306,22.976c-0.003,0.181-0.015,0.359-0.015,0.54
		c0,23.715,12.941,44.394,32.138,55.401c-2.027,6.227-3.138,12.868-3.138,19.771c0,15.879,5.812,30.392,15.404,41.562
		C678.25,400.672,669.975,417.695,669.975,436.658z"/>
	
		<line fill="none" stroke="#231F20" stroke-width="14" stroke-linecap="round" stroke-linejoin="round" stroke-miterlimit="10" x1="379.901" y1="783.451" x2="109.566" y2="353.408"/>
	
		<path fill="#FFFFFF" stroke="#231F20" stroke-width="7" stroke-linecap="round" stroke-linejoin="round" stroke-miterlimit="10" d="
		M109.566,357.911c-12.924,37.265,11.194,69.969,21.074,104.467c10.799,37.708,0.057,75.224-11.734,111.255
		c-11.133,34.019,11.759,80.521,31.407,111.988"/>
	
		<path fill="#D2D3D4" stroke="#D2D3D4" stroke-width="30" stroke-linecap="round" stroke-linejoin="round" stroke-miterlimit="10" d="
		M125.684,767.074l-29.334,10l12.171-29.832c-21.631-84.328,18.972-100.621,18.972-100.621h0.633h0.633
		c0,0,40.603,16.293,18.972,100.621l12.171,29.832l-29.334-10"/>
	
		<line fill="none" stroke="#231F20" stroke-width="14" stroke-linecap="round" stroke-linejoin="round" stroke-miterlimit="10" x1="106.502" y1="672.566" x2="124.416" y2="690.479"/>
	
		<line fill="none" stroke="#231F20" stroke-width="14" stroke-linecap="round" stroke-linejoin="round" stroke-miterlimit="10" x1="124.416" y1="672.566" x2="106.502" y2="690.479"/>
</g>
</svg>
