<?xml version="1.0" encoding="utf-8"?>
<!-- Generator: Adobe Illustrator 18.0.0, SVG Export Plug-In . SVG Version: 6.00 Build 0)  -->
<!DOCTYPE svg PUBLIC "-//W3C//DTD SVG 1.1//EN" "http://www.w3.org/Graphics/SVG/1.1/DTD/svg11.dtd">
<svg version="1.1" id="Layer_1" xmlns="http://www.w3.org/2000/svg" xmlns:xlink="http://www.w3.org/1999/xlink" x="0px" y="0px"
	 viewBox="0 0 834.1 841.9" enable-background="new 0 0 834.1 841.9" xml:space="preserve">
<g>
	<path d="M382.3,631c-8.1-1.9-16.2,3-18.1,11.1l-19,78.5c-0.2,1-0.4,2.1-0.4,3.1l-24.9,23.8c-1,1-1.4,2.5-0.8,3.8s1.8,2.2,3.2,2.2
		h48.3c1.8,0,3.3-1.4,3.5-3.2l3.1-34.2c0-0.1,0-0.2,0-0.2l16.1-66.8C395.3,641,390.4,632.9,382.3,631z"/>
	<path d="M511.1,747.2l-24.7-23.6c0-1-0.2-2.1-0.4-3.1L467,642c-1.9-8.1-10.1-13-18.1-11.1c-8.1,1.9-13,10-11.1,18.1l16.1,66.8
		c0,0.1,0,0.2,0,0.2l3.1,34.2c0.2,1.8,1.7,3.2,3.5,3.2h48.3c0,0,0,0,0,0c1.9,0,3.5-1.6,3.5-3.5C512.4,748.8,511.9,747.9,511.1,747.2
		z"/>
</g>
<circle cx="415.6" cy="594" r="70.7"/>
<g>
	<path fill="#CCC6C6" d="M345.8,605c0.3,2.2,0.8,4.3,1.3,6.5h137.1c0.5-2.1,1-4.3,1.3-6.5H345.8z"/>
	<path fill="#CCC6C6" d="M354.2,629c1.4,2.5,3,5,4.7,7.3h43.8V633H429v3.3h43.4c1.7-2.3,3.3-4.8,4.7-7.3H354.2z"/>
	<path fill="#CCC6C6" d="M348.9,617.5c0.7,1.9,1.4,3.7,2.2,5.5h129c0.8-1.8,1.6-3.6,2.2-5.5H348.9z"/>
	<path fill="#CCC6C6" d="M429,647.9v4.1h-26.3v-4.1h-32.8c12.3,10.5,28.3,16.8,45.8,16.8c17.5,0,33.4-6.3,45.8-16.8H429z"/>
	<path fill="#CCC6C6" d="M486.2,599c0.1-1.7,0.2-3.3,0.2-5c0-39.1-31.7-70.7-70.7-70.7c-39.1,0-70.7,31.7-70.7,70.7
		c0,1.7,0.1,3.4,0.2,5H486.2z"/>
</g>
<g>
	
		<ellipse transform="matrix(0.8928 0.4505 -0.4505 0.8928 337.1911 -66.4902)" fill="#68330F" cx="308.3" cy="675.1" rx="26" ry="36.6"/>
	<ellipse fill="#EDE72B" cx="290.4" cy="685.8" rx="7.5" ry="8"/>
	<ellipse fill="#E877DD" cx="310.8" cy="692" rx="7.5" ry="8"/>
	<ellipse fill="#42CE3E" cx="295.8" cy="667.1" rx="7.5" ry="8"/>
	<ellipse fill="#2424EA" cx="316" cy="672.6" rx="7.5" ry="8"/>
	<ellipse fill="#A82F97" cx="323.5" cy="654.5" rx="7.5" ry="8"/>
	<ellipse fill="#FFFFFF" cx="305.4" cy="651.1" rx="7.5" ry="8"/>
</g>
<path fill="#BD4142" d="M360.9,562.1c-32.2-2.6-61.8,11.7-79.7,35.9c-10.6,12.4-22.6,30.3-24.7,33.6c-2.5,3.6-4,8.1-4,12.8
	c0,12.5,10.1,22.6,22.6,22.6c9.8,0,16.4-4.5,19.5-13.2c0.4-1.2,1.2-2.9,1.9-4.6l1.7,3.6c1.3,2.7,4,4.4,6.8,4.4c1,0,2.1-0.2,3.1-0.7
	c3.8-1.7,5.4-6.2,3.7-9.9l-10.6-23.1c-0.1-0.2-0.2-0.4-0.3-0.6c11-20.2,33.2-32.8,57.6-30.9c8.3,0.7,15.5-5.5,16.1-13.8
	C375.3,570,369.2,562.8,360.9,562.1z"/>
<path fill="#BD4142" d="M574.8,631.6c-2.1-3.3-14.1-21.2-24.7-33.6c-17.9-24.2-47.5-38.5-79.7-35.9c-8.3,0.7-14.4,7.9-13.8,16.1
	c0.7,8.3,7.9,14.4,16.1,13.8c24.5-2,46.6,10.6,57.6,30.9c-0.1,0.2-0.2,0.4-0.3,0.6l-10.6,23.1c-1.7,3.8-0.1,8.2,3.7,9.9
	c1,0.5,2.1,0.7,3.1,0.7c2.8,0,5.6-1.6,6.8-4.4l1.7-3.6c0.7,1.7,1.4,3.4,1.9,4.6c3.1,8.7,9.7,13.2,19.5,13.2
	c12.5,0,22.6-10.1,22.6-22.6C578.8,639.7,577.3,635.3,574.8,631.6z"/>
<path fill="#E44F50" d="M414.6,605.1c4.8,6.6,15.3,17.9,28.7,13.1c9.7-3.5,14.4-21.8,14.4-21.8s12,9.8,33.3,4.6
	c21.3-5.2,26.8-25.1,26.8-25.1s-4.2,27.7,19.2,24.9c23.2-2.7,15.5-45.5,15.4-46.1c2.8,15.3,19.4,30.2,31.5,13.8
	c9.1-12.3,6.5-32.9,5-47.1c1.2,11.2,12.9,30.5,26.2,23.9c17.5-8.5,8.8-41.8,4.5-55.2c6.6,20.3,30.1,8,35.5-5.7
	c7.6-19.3-6.3-43.6-15.9-59.8c8.7,11.3,28.1,21.4,34.1,2.1c10.5-34.1-15.6-66-36.6-89.8c9,10.8,48,45.3,49.8,10.3
	c1.6-32.1-30.2-55.7-56.3-67.4c8,3.4,16.5,6.8,25.2,7.4c23,1.4,19.4-19.5,8.2-31.8c-12-13.2-27.6-23.4-43.5-31.3
	c5.4,5.2,19.6,14,27.2,13c13.1-1.9,19.2-26.6,12.9-33.6c-18-20-48.6-12.8-60-8l4.6-1.3c20.8-5.9,24.3-25.7,18.4-41.3
	c-11.6-30.7-62.6-17.1-91.3-6.2c9.7-3.7,21.1-3.7,26.1-14.7c4.6-10.2-1.2-20.9-10.8-25.5c-24.2-11.6-49.9,9.9-68.7,22.7
	c6.7-5.3,18.4-13.3,20.1-22.3c3.3-18-24.5-15.5-34.4-13.1c-18.6,4.5-35.3,16.7-46.2,32.3H413c-10.9-15.6-27.6-27.8-46.2-32.3
	c-9.9-2.4-37.7-4.9-34.4,13.1c1.7,9,13.4,17,20.1,22.3c-18.8-12.7-44.5-34.2-68.7-22.7c-9.6,4.6-15.4,15.3-10.8,25.5
	c5,11.1,16.4,11,26.1,14.7c-28.6-11-79.7-24.6-91.3,6.2c-5.9,15.6-2.3,35.4,18.4,41.3l4.6,1.3c-11.4-4.8-42-12-60,8
	c-6.3,7-0.2,31.7,12.9,33.6c7.6,1.1,21.8-7.8,27.2-13c-15.9,7.8-31.5,18.1-43.5,31.3c-11.2,12.4-14.9,33.2,8.2,31.8
	c8.7-0.5,17.3-4,25.2-7.4c-26.1,11.8-57.9,35.4-56.3,67.4c1.8,35,40.8,0.4,49.8-10.3c-20.9,23.8-47.1,55.6-36.6,89.8
	c6,19.3,25.4,9.2,34.1-2.1c-9.5,16.3-23.4,40.5-15.9,59.8c5.4,13.7,28.9,26,35.5,5.7c-4.4,13.4-13,46.6,4.5,55.2
	c13.4,6.5,25.1-12.7,26.2-23.9c-1.5,14.2-4.1,34.8,5,47.1c12.1,16.3,28.7,1.5,31.5-13.8c-0.1,0.6-7.8,43.4,15.4,46.1
	c23.3,2.7,19.2-24.9,19.2-24.9s5.5,19.9,26.8,25.1c21.3,5.2,33.3-4.6,33.3-4.6s4.7,18.4,14.4,21.8c13.3,4.8,23.7-6.2,28.6-12.9"/>
<g>
	<g>
		<circle fill="#FFFFFF" cx="313.3" cy="372.9" r="70.5"/>
		<path fill="#231F20" d="M313.3,450.4c-42.7,0-77.5-34.8-77.5-77.5s34.8-77.5,77.5-77.5s77.5,34.8,77.5,77.5S356,450.4,313.3,450.4
			z M313.3,309.4c-35,0-63.5,28.5-63.5,63.5s28.5,63.5,63.5,63.5s63.5-28.5,63.5-63.5S348.3,309.4,313.3,309.4z"/>
	</g>
	<g>
		<circle fill="#FFFFFF" cx="518" cy="372.9" r="70.5"/>
		<path fill="#231F20" d="M518,450.4c-42.7,0-77.5-34.8-77.5-77.5s34.8-77.5,77.5-77.5c42.7,0,77.5,34.8,77.5,77.5
			S560.7,450.4,518,450.4z M518,309.4c-35,0-63.5,28.5-63.5,63.5s28.5,63.5,63.5,63.5s63.5-28.5,63.5-63.5S553,309.4,518,309.4z"/>
	</g>
	<g>
		<path fill="#231F20" d="M351.7,361.2c-5.2-16.6-20.3-27.7-37.6-27.7c-21.7,0-39.4,17.7-39.4,39.4c0,21.7,17.7,39.4,39.4,39.4
			c17.4,0,32.5-11.1,37.6-27.7c0.6-1.9-0.5-3.9-2.3-4.5l-23.3-7.3l23.3-7.3C351.3,365.1,352.3,363.1,351.7,361.2z"/>
		<path fill="#231F20" d="M554.1,380.2l-23.3-7.3l23.3-7.3c1.9-0.6,2.9-2.6,2.3-4.5c-5.2-16.6-20.3-27.7-37.6-27.7
			c-21.7,0-39.4,17.7-39.4,39.4c0,21.7,17.7,39.4,39.4,39.4c17.4,0,32.5-11.1,37.6-27.7C557,382.8,555.9,380.8,554.1,380.2z"/>
	</g>
</g>
<g>
	<g>
		<path fill="#231F20" d="M424.8,431.7c-2.4-0.4-4.7,1.2-5.1,3.6c-0.5,2.8-3.3,3.1-4.1,3.1l0,0.1c0,0,0,0,0,0l0-0.1
			c-0.9,0-3.7-0.3-4.1-3.1c-0.4-2.4-2.7-4-5.1-3.6c-2.4,0.4-4,2.7-3.6,5.1c1.4,8.3,9,10.5,12.8,10.5l0-0.1c0,0,0.1,0,0.1,0
			c0,0,0,0,0,0v0.1c3.8,0,11.4-2.2,12.8-10.5C428.9,434.3,427.2,432.1,424.8,431.7z"/>
	</g>
</g>
<g>
	
		<path fill="#231F20" stroke="#231F20" stroke-width="8" stroke-linecap="round" stroke-linejoin="round" stroke-miterlimit="10" d="
		M414.1,412.6c-0.7-0.6-1.6-1-2.8-1.1c-3.2-0.3-7.6,1-10.4,2.5c-7.7,4-9.9-1.6-9.9-1.6c3.6,9.5,14.3,11.5,22.6,4.6
		C415.6,415.4,415.4,413.7,414.1,412.6z"/>
	
		<path fill="#231F20" stroke="#231F20" stroke-width="8" stroke-linecap="round" stroke-linejoin="round" stroke-miterlimit="10" d="
		M417.4,412.6c0.7-0.6,1.6-1,2.8-1.1c3.2-0.3,7.6,1,10.4,2.5c7.7,4,9.9-1.6,9.9-1.6c-3.6,9.5-14.3,11.5-22.6,4.6
		C416,415.4,416.1,413.7,417.4,412.6z"/>
</g>
<rect x="385.3" y="363" fill="#231F20" width="63" height="14.7"/>
<path fill="#231F20" d="M417.3,470h-0.9c-1.7,0-3-1.3-3-3v-11.5c0-1.7,1.3-3,3-3h0.9c1.7,0,3,1.3,3,3V467
	C420.3,468.7,418.9,470,417.3,470z"/>
<rect x="417" y="459.2" fill="#231F20" width="1.5" height="2"/>
<g>
	<path fill="#231F20" d="M294.8,86.6c4.7-14.4,13.9-26.9,25-37.9c10.9-10.8-6.8-26.9-17.6-16c-19.2,19.1-32.6,42.5-34.2,69.6
		c-94.2,60.1-145.5,148.1-114.5,197.1c14.8,23.4,35.8,18,63.9-0.4l45.8-32.2c0.5-0.3,0.9-0.6,1.4-0.9l176.8-104.9
		c1.1-0.6,2.1-1.3,3.1-2.1l24.3-18.7c29.8-17.8,44.4-34.6,29.4-58.4C469.7,36.8,382.1,40.1,294.8,86.6z"/>
</g>
<path d="M572.1,636.6c1.1-2,1.2-3.4,2.5-7.1c-1.3-0.8-3.9-2.7-6-6.4c-2.8,2.6-4.2,3.2-5.5,5.1c-9,12.5-29.3,55.6-28.2,56.6
	C535.9,685.8,564.5,650.5,572.1,636.6z M577.2,625.9c4.8,0.3,8.8-4,10.5-13.3c1.7-9.4,6.6-13.7,7.7-13.7
	c-6.1-1.6-24.5-5.4-25.1,19.6C573.1,624.1,577.2,625.9,577.2,625.9z"/>
</svg>
