<?xml version="1.0" encoding="utf-8"?>
<!-- Generator: Adobe Illustrator 16.0.0, SVG Export Plug-In . SVG Version: 6.00 Build 0)  -->
<!DOCTYPE svg PUBLIC "-//W3C//DTD SVG 1.1//EN" "http://www.w3.org/Graphics/SVG/1.1/DTD/svg11.dtd">
<svg version="1.1" id="Layer_1" xmlns="http://www.w3.org/2000/svg" xmlns:xlink="http://www.w3.org/1999/xlink" x="0px" y="0px"
	 width="1000px" height="1000px" viewBox="-50 -50 1000 1000" enable-background="new -50 -50 1000 1000" xml:space="preserve">
<g>
	
		<path fill="#5A4B43" stroke="#5A4B43" stroke-width="7" stroke-linecap="round" stroke-linejoin="round" stroke-miterlimit="10" d="
		M505.892,737.83c0,0,9-15.902,14.166-9.902l4,4.275c0,0,4.668,3.725-2.332,9.225s-5.168,10.5-5.168,10.5l-12.666-1L505.892,737.83z
		"/>
	
		<path fill="#9B8579" stroke="#9B8579" stroke-width="7" stroke-linecap="round" stroke-linejoin="round" stroke-miterlimit="10" d="
		M501.315,741.428c0,0,4.432,8.527,12.766,4.431s1.766,15.903,1.766,15.903s-0.934,15.334-7.766,14.666
		c-6.834-0.666-12.863-15-6.766-34.332"/>
	<circle fill="#BE4243" cx="440.669" cy="703.789" r="70.744"/>
	<g>
		
			<line fill="none" stroke="#BE4243" stroke-width="30" stroke-linecap="round" stroke-linejoin="round" stroke-miterlimit="10" x1="405.55" y1="755.357" x2="386.586" y2="833.881"/>
		
			<polygon fill="#9B8579" stroke="#9B8579" stroke-width="7" stroke-linecap="round" stroke-linejoin="round" stroke-miterlimit="10" points="
			374.798,835.236 349.084,859.771 397.405,859.771 400.515,825.572 		"/>
	</g>
	<g>
		<path fill="none" stroke="#BE4243" stroke-width="30" stroke-linecap="round" stroke-linejoin="round" stroke-miterlimit="10" d="
			M378.822,686.91c-38.891-3.107-73.352,23.162-79.988,61.641"/>
		
			<line fill="none" stroke="#BE4243" stroke-width="15" stroke-linecap="round" stroke-linejoin="round" stroke-miterlimit="10" x1="313.49" y1="736.465" x2="324.104" y2="759.539"/>
		<path fill="#BE4243" d="M306.038,734.986l1.598-10.976c0,0,12.941-35.293,0.345-24.157c-11.643,10.286-29.709,37.491-32.39,41.569
			c-2.521,3.65-4.006,8.07-4.006,12.84c0,12.5,10.135,22.636,22.635,22.636c9.81,0,16.403-4.484,19.545-13.213
			c0.862-2.394,3.089-6.73,3.089-9.423C316.853,746.102,312.516,738.969,306.038,734.986z"/>
	</g>
	<g>
		<path fill="none" stroke="#BE4243" stroke-width="30" stroke-linecap="round" stroke-linejoin="round" stroke-miterlimit="10" d="
			M605.021,661.463c31.896,22.465,74.932,17.387,100.225-12.359"/>
		
			<line fill="none" stroke="#BE4243" stroke-width="15" stroke-linecap="round" stroke-linejoin="round" stroke-miterlimit="10" x1="686.479" y1="652.049" x2="689.081" y2="626.785"/>
		<path fill="#BE4243" d="M692.142,657.113l-6.961,8.635c0,0-29.1,23.797-12.588,20.623c15.256-2.935,44.652-17.158,49.035-19.307
			c4.027-1.859,7.555-4.908,9.982-9.015c6.358-10.762,2.791-24.643-7.97-31.002c-8.444-4.992-16.401-4.488-23.549,1.428
			c-1.959,1.621-6.084,4.224-7.453,6.539C688.487,642.041,688.591,650.389,692.142,657.113z"/>
	</g>
	<path fill="#E35050" d="M437.14,712.635c-4.833,6.623-15.253,17.64-28.563,12.859c-9.71-3.484-14.38-21.842-14.38-21.842
		s-11.97,9.842-33.304,4.627s-26.825-25.123-26.825-25.123s4.159,27.672-19.174,24.932c-23.174-2.721-15.518-45.512-15.412-46.092
		c-2.773,15.336-19.392,30.154-31.518,13.848c-9.132-12.278-6.492-32.887-5.031-47.108c-1.155,11.248-12.868,30.463-26.242,23.936
		c-17.488-8.533-8.831-41.774-4.462-55.176c-6.606,20.26-30.141,8.004-35.494-5.697c-7.557-19.342,6.347-43.567,15.858-59.848
		c-8.652,11.348-28.132,21.44-34.087,2.149c-10.53-34.12,15.629-65.979,36.574-89.751c-9.028,10.75-48.023,45.305-49.783,10.309
		c-1.61-32.072,30.155-55.681,56.275-67.449c-7.979,3.362-16.489,6.836-25.229,7.362c-23.037,1.388-19.411-19.464-8.185-31.838
		c11.97-13.192,27.596-23.434,43.513-31.255c-5.408,5.198-19.622,14.049-27.214,12.965c-13.122-1.872-19.199-26.61-12.896-33.613
		c18-20,48.553-12.77,60-8l-4.578-1.253c-20.775-5.895-24.309-25.747-18.434-41.333l11.12-12.646l312.957,6.479
		c33.695,3.521,79.682-24.579,91.271,6.168c5.875,15.586,2.343,35.438-18.434,41.333l-4.578,1.253c11.447-4.77,42-12,60,8
		c6.303,7.003,0.228,31.741-12.896,33.613c-7.593,1.084-21.806-7.767-27.213-12.965c15.916,7.821,31.543,18.062,43.512,31.255
		c11.227,12.374,14.852,33.226-8.185,31.838c-8.739-0.526-17.252-4-25.229-7.362c26.119,11.77,57.887,35.377,56.275,67.449
		c-1.761,34.996-40.755,0.44-49.783-10.309c20.944,23.771,47.104,55.631,36.573,89.751c-5.954,19.291-25.434,9.197-34.088-2.149
		c9.515,16.279,23.416,40.506,15.859,59.848c-5.354,13.701-28.887,25.957-35.494,5.697c4.369,13.4,13.025,46.643-4.463,55.176
		c-13.373,6.527-25.086-12.688-26.24-23.936c1.461,14.223,4.101,34.83-5.031,47.108c-12.127,16.308-28.743,1.488-31.518-13.848
		c0.105,0.58,7.762,43.371-15.414,46.092c-23.332,2.74-19.172-24.932-19.172-24.932s-5.492,19.908-26.826,25.123
		s-33.303-4.627-33.303-4.627s-4.67,18.356-14.383,21.842c-13.465,4.834-23.97-6.494-28.728-13.086"/>
	<g id="XMLID_83_">
		<g>
			<path fill="#9B8579" d="M445.352,101.45c0-10.894,2.259-61.221,44.036-61.221c46.828,0,51.691,67.003,51.691,67.003v151.377
				c-72.462,0-103.085,0-103.085,0s-26.454,0-88.369,0V107.232c0,0,4.864-67.003,51.691-67.003
				C443.094,40.229,445.352,90.556,445.352,101.45z"/>
		</g>
		<g>
			
				<path fill="none" stroke="#9B8579" stroke-width="30" stroke-linecap="round" stroke-linejoin="round" stroke-miterlimit="10" d="
				M191.399,192.847c0,0,7.122,65.762,106.386,65.762c19.479,0,36.715,0,51.84,0c61.916,0,88.369,0,88.369,0"/>
			
				<path fill="none" stroke="#9B8579" stroke-width="30" stroke-linecap="round" stroke-linejoin="round" stroke-miterlimit="10" d="
				M684.59,192.847c0,0-7.122,65.762-106.386,65.762c-13.426,0-25.784,0-37.125,0c-72.462,0-103.085,0-103.085,0"/>
			
				<path fill="none" stroke="#9B8579" stroke-width="30" stroke-linecap="round" stroke-linejoin="round" stroke-miterlimit="10" d="
				M541.079,258.609V107.232c0,0-4.863-67.003-51.691-67.003c-41.776,0-44.036,50.327-44.036,61.221c0,1.315,0.038,2.06,0.038,2.06"
				/>
			
				<path fill="none" stroke="#9B8579" stroke-width="30" stroke-linecap="round" stroke-linejoin="round" stroke-miterlimit="10" d="
				M349.625,258.609V107.232c0,0,4.864-67.003,51.691-67.003c41.776,0,44.035,50.327,44.035,61.221c0,1.315-0.036,2.06-0.036,2.06"
				/>
		</g>
	</g>
	
		<polygon fill="#9B8579" stroke="#9B8579" stroke-width="15" stroke-linecap="round" stroke-linejoin="round" stroke-miterlimit="10" points="
		374.799,840.096 369.924,812.096 400.515,812.096 393.226,851.596 	"/>
	<g>
		
			<line fill="none" stroke="#BE4243" stroke-width="30" stroke-linecap="round" stroke-linejoin="round" stroke-miterlimit="10" x1="479.698" y1="755.357" x2="498.663" y2="833.881"/>
		
			<polygon fill="#9B8579" stroke="#9B8579" stroke-width="7" stroke-linecap="round" stroke-linejoin="round" stroke-miterlimit="10" points="
			510.45,835.236 536.165,859.771 487.843,859.771 484.735,825.572 		"/>
	</g>
	
		<polygon fill="#9B8579" stroke="#9B8579" stroke-width="15" stroke-linecap="round" stroke-linejoin="round" stroke-miterlimit="10" points="
		510.45,840.096 515.325,812.096 484.735,812.096 492.022,851.596 	"/>
	
		<path fill="#9B8579" stroke="#9B8579" stroke-width="7" stroke-linecap="round" stroke-linejoin="round" stroke-miterlimit="10" d="
		M500.794,741.074c-62,18.764-129.517-23.469-129.517-23.469c2.384,17.012,9.448,18.858,9.448,18.858s52.5,37.656,114.5,18.894
		L500.794,741.074z"/>
	
		<rect x="434.726" y="741.428" fill="none" stroke="#CDC762" stroke-width="7" stroke-linecap="round" stroke-linejoin="round" stroke-miterlimit="10" width="19" height="19"/>
	
		<polygon fill="none" stroke="#736759" stroke-width="14" stroke-linecap="round" stroke-linejoin="round" stroke-miterlimit="10" points="
		389.893,180.428 399.226,177.595 396.06,184.262 	"/>
	
		<polygon fill="none" stroke="#736759" stroke-width="14" stroke-linecap="round" stroke-linejoin="round" stroke-miterlimit="10" points="
		378.946,182.205 376.886,172.671 383.271,176.374 	"/>
	
		<polygon fill="none" stroke="#736759" stroke-width="14" stroke-linecap="round" stroke-linejoin="round" stroke-miterlimit="10" points="
		392.501,188.604 396.938,197.29 389.817,195.35 	"/>
	
		<polygon fill="none" stroke="#736759" stroke-width="14" stroke-linecap="round" stroke-linejoin="round" stroke-miterlimit="10" points="
		375.507,195.895 379.863,187.168 382.528,194.049 	"/>
	<circle fill="#231F20" cx="387.893" cy="186.928" r="10.333"/>
	
		<polygon fill="none" stroke="#736759" stroke-width="14" stroke-linecap="round" stroke-linejoin="round" stroke-miterlimit="10" points="
		493.022,135.87 494.323,145.537 488.251,141.341 	"/>
	
		<polygon fill="none" stroke="#736759" stroke-width="14" stroke-linecap="round" stroke-linejoin="round" stroke-miterlimit="10" points="
		493.024,124.78 502.765,124.275 498.087,129.984 	"/>
	
		<polygon fill="none" stroke="#736759" stroke-width="14" stroke-linecap="round" stroke-linejoin="round" stroke-miterlimit="10" points="
		484.534,137.134 475.251,140.122 478.306,133.403 	"/>
	
		<polygon fill="none" stroke="#736759" stroke-width="14" stroke-linecap="round" stroke-linejoin="round" stroke-miterlimit="10" points="
		480.062,119.191 487.979,124.889 480.759,126.417 	"/>
	<circle fill="#231F20" cx="486.927" cy="132.854" r="10.333"/>
	
		<line fill="none" stroke="#BDBEC0" stroke-width="7" stroke-linecap="round" stroke-linejoin="round" stroke-miterlimit="10" x1="407.06" y1="851.762" x2="416.06" y2="851.762"/>
	
		<line fill="none" stroke="#BDBEC0" stroke-width="7" stroke-linecap="round" stroke-linejoin="round" stroke-miterlimit="10" x1="411.56" y1="847.262" x2="411.56" y2="856.262"/>
	
		<line fill="none" stroke="#BDBEC0" stroke-width="7" stroke-linecap="round" stroke-linejoin="round" stroke-miterlimit="10" x1="468.698" y1="851.762" x2="477.698" y2="851.762"/>
	
		<line fill="none" stroke="#BDBEC0" stroke-width="7" stroke-linecap="round" stroke-linejoin="round" stroke-miterlimit="10" x1="473.198" y1="847.262" x2="473.198" y2="856.262"/>
	<g>
		<g>
			
				<path fill="#FFFFFF" stroke="#231F20" stroke-width="14" stroke-linecap="round" stroke-linejoin="round" stroke-miterlimit="10" d="
				M422.958,488.441c0,0,1.902,11.5,12.938,11.5"/>
			
				<path fill="#FFFFFF" stroke="#231F20" stroke-width="14" stroke-linecap="round" stroke-linejoin="round" stroke-miterlimit="10" d="
				M448.831,488.441c0,0-1.9,11.5-12.937,11.5"/>
		</g>
		
			<path fill="#FFFFFF" stroke="#231F20" stroke-width="14" stroke-linecap="round" stroke-linejoin="round" stroke-miterlimit="10" d="
			M395.391,445.709c5.729,10.195,8.995,21.957,8.995,34.482c0,38.936-31.562,70.498-70.497,70.498
			c-38.935,0-70.497-31.562-70.497-70.498c0-24.334,12.329-45.788,31.081-58.457"/>
		<g>
			<path fill="#231F20" d="M334.695,480.191l34.229-10.668c-4.541-14.586-18.146-25.176-34.229-25.176
				c-19.796,0-35.844,16.049-35.844,35.844c0,19.797,16.048,35.846,35.844,35.846c16.082,0,29.688-10.59,34.229-25.176
				L334.695,480.191z"/>
			<path fill="#231F20" d="M334.695,519.596c-21.728,0-39.403-17.676-39.403-39.403s17.676-39.402,39.403-39.402
				c17.353,0,32.475,11.123,37.628,27.675c0.585,1.877-0.463,3.871-2.339,4.457l-23.328,7.271l23.328,7.271
				c1.876,0.584,2.924,2.58,2.339,4.455C367.17,508.473,352.048,519.596,334.695,519.596z M334.695,447.907
				c-17.803,0-32.285,14.483-32.285,32.285c0,17.803,14.482,32.284,32.285,32.284c13.018,0,24.502-7.637,29.59-19.334l-30.649-9.553
				c-1.486-0.463-2.5-1.84-2.5-3.397s1.014-2.935,2.5-3.396l30.649-9.553C359.197,455.543,347.713,447.907,334.695,447.907z"/>
		</g>
		<path fill="none" stroke="#231F20" stroke-width="14" stroke-linecap="round" stroke-linejoin="round" stroke-miterlimit="10" d="
			M272.797,399.594c0,0,8.001,31.334,69.334,31.334c0,0,33.848-3.764,53.257,14.785"/>
		
			<path fill="#FFFFFF" stroke="#231F20" stroke-width="14" stroke-linecap="round" stroke-linejoin="round" stroke-miterlimit="10" d="
			M477.056,445.709c-5.729,10.195-8.996,21.957-8.996,34.482c0,38.936,31.562,70.498,70.498,70.498
			c38.935,0,70.496-31.562,70.496-70.498c0-24.334-12.328-45.788-31.08-58.457"/>
		<path fill="none" stroke="#231F20" stroke-width="14" stroke-linecap="round" stroke-linejoin="round" stroke-miterlimit="10" d="
			M599.649,399.594c0,0-8.003,31.334-69.334,31.334c0,0-33.849-3.764-53.259,14.785"/>
		<g>
			<path fill="#231F20" d="M539.364,480.191l34.229-10.668c-4.541-14.586-18.147-25.176-34.229-25.176
				c-19.797,0-35.845,16.049-35.845,35.844c0,19.797,16.048,35.846,35.845,35.846c16.08,0,29.688-10.59,34.229-25.176
				L539.364,480.191z"/>
			<path fill="#231F20" d="M539.364,519.596c-21.728,0-39.404-17.676-39.404-39.403s17.678-39.402,39.404-39.402
				c17.352,0,32.475,11.123,37.627,27.675c0.586,1.877-0.463,3.871-2.338,4.457l-23.328,7.271l23.328,7.271
				c1.875,0.584,2.924,2.58,2.338,4.455C571.839,508.473,556.716,519.596,539.364,519.596z M539.364,447.907
				c-17.804,0-32.287,14.483-32.287,32.285c0,17.803,14.483,32.284,32.287,32.284c13.018,0,24.5-7.637,29.59-19.334l-30.648-9.553
				c-1.487-0.463-2.5-1.84-2.5-3.397s1.013-2.935,2.5-3.396l30.648-9.553C563.864,455.543,552.382,447.907,539.364,447.907z"/>
		</g>
	</g>
</g>
</svg>
