<?xml version="1.0" encoding="UTF-8" standalone="no"?>
<!-- Generator: Adobe Illustrator 16.0.0, SVG Export Plug-In . SVG Version: 6.00 Build 0)  -->

<svg
   xmlns:dc="http://purl.org/dc/elements/1.1/"
   xmlns:cc="http://creativecommons.org/ns#"
   xmlns:rdf="http://www.w3.org/1999/02/22-rdf-syntax-ns#"
   xmlns:svg="http://www.w3.org/2000/svg"
   xmlns="http://www.w3.org/2000/svg"
   xmlns:sodipodi="http://sodipodi.sourceforge.net/DTD/sodipodi-0.dtd"
   xmlns:inkscape="http://www.inkscape.org/namespaces/inkscape"
   version="1.1"
   id="Layer_1"
   x="0px"
   y="0px"
   width="834.069px"
   height="841.89px"
   viewBox="0 0 834.069 841.89"
   enable-background="new 0 0 834.069 841.89"
   xml:space="preserve"
   inkscape:version="0.91 r13725"
   sodipodi:docname="ghost-ruby.svg"><metadata
   id="metadata3379"><rdf:RDF><cc:Work
       rdf:about=""><dc:format>image/svg+xml</dc:format><dc:type
         rdf:resource="http://purl.org/dc/dcmitype/StillImage" /><dc:title></dc:title></cc:Work></rdf:RDF></metadata><defs
   id="defs3377" /><sodipodi:namedview
   pagecolor="#ffffff"
   bordercolor="#666666"
   borderopacity="1"
   objecttolerance="10"
   gridtolerance="10"
   guidetolerance="10"
   inkscape:pageopacity="0"
   inkscape:pageshadow="2"
   inkscape:window-width="1024"
   inkscape:window-height="706"
   id="namedview3375"
   showgrid="false"
   inkscape:zoom="0.59508961"
   inkscape:cx="160.77056"
   inkscape:cy="420.94501"
   inkscape:window-x="-8"
   inkscape:window-y="-8"
   inkscape:window-maximized="1"
   inkscape:current-layer="Layer_1" />
<circle
   cx="410.59375"
   cy="592.2926"
   r="70.744003"
   id="circle3337"
   style="fill:#e6e5c3;fill-opacity:0.42458099" />
<path
   fill="#BD4142"
   d="M382.342,630.959c-8.053-1.943-16.158,3.008-18.103,11.061l-18.964,78.523  c-0.25,1.035-0.382,2.072-0.412,3.096l-24.925,23.783c-1.035,0.987-1.365,2.505-0.833,3.833s1.818,2.198,3.249,2.198h48.321  c1.811,0,3.322-1.38,3.485-3.183l3.108-34.198c0.007-0.08,0.005-0.16,0.006-0.24l16.125-66.77  C395.346,641.01,390.395,632.904,382.342,630.959z"
   id="path3339"
   style="fill:#554142;fill-opacity:0.06703911" />
<path
   fill="#BD4142"
   d="M511.117,747.216l-24.71-23.577c-0.029-1.024-0.162-2.061-0.412-3.096l-18.963-78.523  c-1.945-8.053-10.051-13.006-18.103-11.061c-8.053,1.945-13.004,10.05-11.06,18.104l16.125,66.77c0.002,0.08,0,0.16,0.007,0.24  l3.108,34.198c0.164,1.803,1.675,3.183,3.485,3.183h48.321c0.006,0.001,0.013,0.001,0.02,0c1.933,0,3.5-1.566,3.5-3.5  C512.436,748.846,511.92,747.857,511.117,747.216z"
   id="path3341"
   style="fill:#654142;fill-opacity:0.03351955" />
<path
   fill="#BD4142"
   d="M360.916,562.141c-32.227-2.581-61.828,11.727-79.721,35.9c-10.646,12.358-22.568,30.312-24.705,33.566  c-2.521,3.648-4.006,8.068-4.006,12.84c0,12.5,10.135,22.633,22.635,22.633c9.81,0,16.403-4.482,19.545-13.211  c0.432-1.199,1.206-2.887,1.871-4.61l1.655,3.597c1.264,2.748,3.979,4.367,6.818,4.367c1.049,0,2.114-0.221,3.129-0.688  c3.763-1.731,5.411-6.186,3.679-9.948l-10.613-23.074c-0.098-0.212-0.206-0.414-0.32-0.612  c10.998-20.234,33.184-32.805,57.644-30.855c8.257,0.664,15.487-5.498,16.147-13.756  C375.333,570.03,369.174,562.801,360.916,562.141z"
   id="path3343"
   style="fill:#dbb2b2;fill-opacity:0.46927375" />
<path
   fill="#BD4142"
   d="M574.782,631.607c-2.137-3.254-14.058-21.205-24.703-33.563c-17.893-24.172-47.493-38.479-79.724-35.903  c-8.259,0.66-14.417,7.89-13.758,16.148c0.66,8.258,7.89,14.418,16.147,13.756c24.462-1.952,46.646,10.619,57.645,30.854  c-0.115,0.198-0.224,0.401-0.321,0.613l-10.614,23.074c-1.73,3.763-0.084,8.217,3.68,9.948c1.016,0.467,2.08,0.688,3.13,0.688  c2.838,0,5.554-1.619,6.818-4.367l1.654-3.596c0.665,1.723,1.438,3.41,1.87,4.609c3.143,8.729,9.736,13.211,19.545,13.211  c12.5,0,22.637-10.133,22.637-22.633C578.788,639.676,577.301,635.256,574.782,631.607z"
   id="path3345"
   style="fill:#e3cdcd;fill-opacity:0.62569833" />
<path
   d="m 414.554,567.53232 c 4.759,6.11063 15.261,16.60822 28.728,12.12858 9.711,-3.23046 14.381,-20.24086 14.381,-20.24086 0,0 11.969,9.12053 33.303,4.28596 21.334,-4.83271 26.826,-23.28135 26.826,-23.28135 0,0 -4.16,25.6435 19.174,23.10621 23.174,-2.52154 15.518,-42.17573 15.412,-42.71507 2.773,14.21179 19.391,27.94355 31.518,12.83472 9.131,-11.37888 6.492,-30.4762 5.031,-43.65751 1.154,10.42346 12.867,28.2299 26.242,22.18322 17.486,-7.90749 8.83,-38.71452 4.461,-51.1313 6.607,18.77298 30.143,7.41726 35.494,-5.28124 7.557,-17.92412 -6.346,-40.37423 -15.857,-55.45896 8.652,10.51613 28.133,19.86926 34.086,1.99239 10.531,-31.62067 -15.629,-61.14424 -36.574,-83.17362 9.029,9.96197 48.023,41.98482 49.785,9.55329 1.609,-29.72002 -30.156,-51.59835 -56.277,-62.5037 7.979,3.11555 16.49,6.33396 25.23,6.82233 23.037,1.28625 19.41,-18.03718 8.184,-29.5041 -11.969,-12.22496 -27.594,-21.71617 -43.512,-28.96384 5.408,4.81695 19.621,13.01913 27.213,12.01459 13.123,-1.73477 19.199,-24.65934 12.896,-31.14991 -18,-18.53389 -48.553,-11.83389 -60,-7.41356 l 4.578,-1.16022 c 20.775,-5.46287 24.309,-23.86053 18.434,-38.304 -11.59,-28.49215 -62.623,-15.86964 -91.271,-5.71492 9.734,-3.45101 21.133,-3.40004 26.143,-13.6428 4.627,-9.46063 -1.189,-19.41055 -10.758,-23.65295 -24.162,-10.712594 -49.9,9.21041 -68.67,21.00816 6.695,-4.92075 18.399,-12.30835 20.082,-20.68753 C 502.18,89.173483 474.357,91.4791 464.455,93.692046 445.853,97.849198 429.172,109.1419 418.242,123.61224 l -5.212,0 C 402.101,109.1419 385.419,97.849198 366.818,93.692046 c -9.902,-2.213873 -37.724,-4.518563 -34.381,12.132284 1.683,8.37918 13.387,15.76771 20.082,20.68753 -18.768,-11.79682 -44.507,-31.719827 -68.67,-21.00816 -9.569,4.2424 -15.385,14.19232 -10.758,23.65295 5.01,10.24276 16.408,10.19179 26.143,13.6428 -28.647,-10.15472 -79.682,-22.77723 -91.271,5.71492 -5.875,14.44347 -2.342,32.84113 18.434,38.304 l 4.578,1.16022 c -11.447,-4.42033 -42,-11.12033 -60,7.41356 -6.303,6.49057 -0.227,29.41514 12.896,31.14991 7.592,1.00454 21.806,-7.19764 27.213,-12.01459 -15.916,7.24767 -31.542,16.73795 -43.512,28.96384 -11.227,11.46692 -14.853,30.79035 8.185,29.5041 8.739,-0.48837 17.251,-3.70678 25.229,-6.82233 -26.12,10.90627 -57.886,32.78368 -56.275,62.5037 1.76,32.43153 40.754,0.40868 49.783,-9.55329 -20.945,22.02938 -47.104,51.55387 -36.574,83.17362 5.955,17.87687 25.435,8.52281 34.087,-1.99239 -9.512,15.08381 -23.415,37.53484 -15.858,55.45896 5.354,12.6985 28.888,24.05422 35.494,5.28124 -4.369,12.41585 -13.025,43.22381 4.462,51.1313 13.374,6.04668 25.087,-11.75883 26.241,-22.18322 -1.46,13.18223 -4.1,32.27863 5.032,43.65751 12.126,15.10976 28.744,1.37707 31.518,-12.83472 -0.105,0.53934 -7.763,40.19353 15.412,42.71507 23.333,2.53729 19.173,-23.10621 19.173,-23.10621 0,0 5.492,18.44864 26.826,23.28135 21.334,4.83457 33.303,-4.28596 33.303,-4.28596 0,0 4.669,17.00948 14.381,20.24086 13.312,4.42682 23.73,-5.77887 28.563,-11.91636"
   id="path3347"
   style="fill:#e4cfd7;fill-opacity:0.25139666"
   inkscape:connector-curvature="0" />
<g
   id="g3349">
	<g
   id="g3351">
		<circle
   fill="#FFFFFF"
   cx="313.301"
   cy="372.921"
   r="70.497"
   id="circle3353" />
		<path
   fill="#231F20"
   d="M313.301,450.418c-42.732,0-77.497-34.765-77.497-77.497s34.765-77.497,77.497-77.497    s77.497,34.765,77.497,77.497S356.033,450.418,313.301,450.418z M313.301,309.424c-35.012,0-63.497,28.485-63.497,63.497    s28.485,63.497,63.497,63.497s63.497-28.484,63.497-63.497S348.313,309.424,313.301,309.424z"
   id="path3355" />
	</g>
	<g
   id="g3357">
		<circle
   fill="#FFFFFF"
   cx="517.97"
   cy="372.921"
   r="70.498"
   id="circle3359" />
		<path
   fill="#231F20"
   d="M517.97,450.418c-42.732,0-77.498-34.765-77.498-77.497s34.766-77.497,77.498-77.497    c42.731,0,77.497,34.765,77.497,77.497S560.702,450.418,517.97,450.418z M517.97,309.424c-35.013,0-63.498,28.485-63.498,63.497    s28.485,63.497,63.498,63.497s63.497-28.484,63.497-63.497S552.983,309.424,517.97,309.424z"
   id="path3361" />
	</g>
	<g
   id="g3363">
		<path
   fill="#231F20"
   d="M351.736,361.195c-5.153-16.554-20.275-27.677-37.628-27.677c-21.727,0-39.403,17.677-39.403,39.403    c0,21.728,17.676,39.403,39.403,39.403c17.353,0,32.475-11.122,37.628-27.677c0.585-1.876-0.463-3.871-2.339-4.456l-23.328-7.271    l23.328-7.271C351.273,365.066,352.321,363.072,351.736,361.195z"
   id="path3365" />
		<path
   fill="#231F20"
   d="M554.066,380.192l-23.328-7.271l23.328-7.271c1.875-0.585,2.924-2.579,2.339-4.456    c-5.153-16.554-20.275-27.677-37.628-27.677c-21.727,0-39.402,17.677-39.402,39.403c0,21.728,17.676,39.403,39.402,39.403    c17.353,0,32.475-11.122,37.628-27.677C556.99,382.772,555.941,380.777,554.066,380.192z"
   id="path3367" />
	</g>
</g>
<g
   id="g3369">
	<g
   id="g3371">
		<path
   fill="#231F20"
   d="M430.312,374.509c-3.843-0.628-7.467,1.977-8.096,5.82c-0.733,4.485-5.223,4.961-6.581,5l0.004,0.229    c-0.003,0-0.005,0-0.007,0l0.003-0.229c-1.358-0.039-5.848-0.515-6.581-5c-0.628-3.843-4.253-6.448-8.095-5.82    c-3.843,0.629-6.448,4.253-5.82,8.095c2.173,13.282,14.283,16.812,20.383,16.824l0.001-0.236c0.071,0.002,0.142,0.011,0.214,0.011    c0.004,0,0.008,0,0.012,0v0.226c6.1-0.011,18.21-3.542,20.383-16.824C436.76,378.762,434.155,375.138,430.312,374.509z"
   id="path3373" />
	</g>
</g>
</svg>