<?xml version="1.0" encoding="utf-8"?>
<!-- Generator: Adobe Illustrator 18.1.1, SVG Export Plug-In . SVG Version: 6.00 Build 0)  -->
<svg version="1.1" id="Layer_1" xmlns="http://www.w3.org/2000/svg" xmlns:xlink="http://www.w3.org/1999/xlink" x="0px" y="0px"
	 viewBox="-62 -569.9 834.1 1270.9" enable-background="new -62 -569.9 834.1 1270.9" xml:space="preserve">
<circle fill="#B7343A" cx="353.6" cy="453.1" r="70.7"/>
<path d="M320.3,490.1c-8.1-1.9-16.2,3-18.1,11.1l-19,78.5c-0.3,1-0.4,2.1-0.4,3.1l-24.9,23.8c-1,1-1.4,2.5-0.8,3.8s1.8,2.2,3.2,2.2
	h48.3c1.8,0,3.3-1.4,3.5-3.2l3.1-34.2c0-0.1,0-0.2,0-0.2l16.1-66.8C333.3,500.1,328.4,492,320.3,490.1z"/>
<path d="M449.1,606.3l-24.7-23.6c0-1-0.2-2.1-0.4-3.1l-19-78.5c-1.9-8.1-10.1-13-18.1-11.1c-8.1,1.9-13,10-11.1,18.1l16.1,66.8
	c0,0.1,0,0.2,0,0.2l3.1,34.2c0.2,1.8,1.7,3.2,3.5,3.2h48.3c0,0,0,0,0,0c1.9,0,3.5-1.6,3.5-3.5C450.4,608,449.9,607,449.1,606.3z"/>
<path fill="#B7343A" d="M298.9,421.3c-32.2-2.6-61.8,11.7-79.7,35.9c-10.6,12.4-22.6,30.3-24.7,33.6c-2.5,3.6-4,8.1-4,12.8
	c0,12.5,10.1,22.6,22.6,22.6c9.8,0,16.4-4.5,19.5-13.2c0.4-1.2,1.2-2.9,1.9-4.6l1.7,3.6c1.3,2.7,4,4.4,6.8,4.4c1,0,2.1-0.2,3.1-0.7
	c3.8-1.7,5.4-6.2,3.7-9.9l-10.6-23.1c-0.1-0.2-0.2-0.4-0.3-0.6c11-20.2,33.2-32.8,57.6-30.9c8.3,0.7,15.5-5.5,16.1-13.8
	C313.3,429.1,307.2,421.9,298.9,421.3z"/>
<polygon points="212.7,465.1 239.2,482.6 248.2,469.3 222.4,453.1 "/>
<path fill="#B7343A" d="M512.8,490.7c-2.1-3.3-14.1-21.2-24.7-33.6c-17.9-24.2-47.5-38.5-79.7-35.9c-8.3,0.7-14.4,7.9-13.8,16.1
	c0.7,8.3,7.9,14.4,16.1,13.8c24.5-2,46.6,10.6,57.6,30.9c-0.1,0.2-0.2,0.4-0.3,0.6l-10.6,23.1c-1.7,3.8-0.1,8.2,3.7,9.9
	c1,0.5,2.1,0.7,3.1,0.7c2.8,0,5.6-1.6,6.8-4.4l1.7-3.6c0.7,1.7,1.4,3.4,1.9,4.6c3.1,8.7,9.7,13.2,19.5,13.2
	c12.5,0,22.6-10.1,22.6-22.6C516.8,498.8,515.3,494.4,512.8,490.7z"/>
<path fill="#E44F50" d="M352.6,464.2c4.8,6.6,15.3,17.9,28.7,13.1c9.7-3.5,14.4-21.8,14.4-21.8s12,9.8,33.3,4.6
	c21.3-5.2,26.8-25.1,26.8-25.1s-4.2,27.7,19.2,24.9c23.2-2.7,15.5-45.5,15.4-46.1c2.8,15.3,19.4,30.2,31.5,13.8
	c9.1-12.3,6.5-32.9,5-47.1c1.2,11.2,12.9,30.5,26.2,23.9c17.5-8.5,8.8-41.8,4.5-55.2c6.6,20.3,30.1,8,35.5-5.7
	c7.6-19.3-6.3-43.6-15.9-59.8c8.7,11.3,28.1,21.4,34.1,2.1c10.5-34.1-15.6-66-36.6-89.8c9,10.8,48,45.3,49.8,10.3
	c1.6-32.1-30.2-55.7-56.3-67.4c8,3.4,16.5,6.8,25.2,7.4c23,1.4,19.4-19.5,8.2-31.8c-12-13.2-27.6-23.4-43.5-31.3
	c5.4,5.2,19.6,14,27.2,13c13.1-1.9,19.2-26.6,12.9-33.6c-18-20-48.6-12.8-60-8l4.6-1.3c20.8-5.9,24.3-25.7,18.4-41.3
	C549.7-18.7,498.7-5,470,5.9c9.7-3.7,21.1-3.7,26.1-14.7c4.6-10.2-1.2-20.9-10.8-25.5c-24.2-11.6-49.9,9.9-68.7,22.7
	c6.7-5.3,18.4-13.3,20.1-22.3c3.3-18-24.5-15.5-34.4-13.1c-18.6,4.5-35.3,16.7-46.2,32.3H351c-10.9-15.6-27.6-27.8-46.2-32.3
	c-9.9-2.4-37.7-4.9-34.4,13.1c1.7,9,13.4,17,20.1,22.3c-18.8-12.7-44.5-34.2-68.7-22.7c-9.6,4.6-15.4,15.3-10.8,25.5
	c5,11.1,16.4,11,26.1,14.7c-28.6-11-79.7-24.6-91.3,6.2c-5.9,15.6-2.3,35.4,18.4,41.3l4.6,1.3c-11.4-4.8-42-12-60,8
	c-6.3,7-0.2,31.7,12.9,33.6c7.6,1.1,21.8-7.8,27.2-13c-15.9,7.8-31.5,18.1-43.5,31.3c-11.2,12.4-14.9,33.2,8.2,31.8
	c8.7-0.5,17.3-4,25.2-7.4c-26.1,11.8-57.9,35.4-56.3,67.4c1.8,35,40.8,0.4,49.8-10.3c-20.9,23.8-47.1,55.6-36.6,89.8
	c6,19.3,25.4,9.2,34.1-2.1c-9.5,16.3-23.4,40.5-15.9,59.8c5.4,13.7,28.9,26,35.5,5.7c-4.4,13.4-13,46.6,4.5,55.2
	c13.4,6.5,25.1-12.7,26.2-23.9c-1.5,14.2-4.1,34.8,5,47.1c12.1,16.3,28.7,1.5,31.5-13.8c-0.1,0.6-7.8,43.4,15.4,46.1
	c23.3,2.7,19.2-24.9,19.2-24.9s5.5,19.9,26.8,25.1c21.3,5.2,33.3-4.6,33.3-4.6s4.7,18.4,14.4,21.8c13.3,4.8,23.7-6.2,28.6-12.9"/>
<g>
	<g>
		<circle fill="#FFFFFF" cx="251.3" cy="232" r="70.5"/>
		<path fill="#231F20" d="M251.3,309.5c-42.7,0-77.5-34.8-77.5-77.5s34.8-77.5,77.5-77.5s77.5,34.8,77.5,77.5S294,309.5,251.3,309.5
			z M251.3,168.5c-35,0-63.5,28.5-63.5,63.5s28.5,63.5,63.5,63.5s63.5-28.5,63.5-63.5S286.3,168.5,251.3,168.5z"/>
	</g>
	<g>
		<circle fill="#FFFFFF" cx="456" cy="232" r="70.5"/>
		<path fill="#231F20" d="M456,309.5c-42.7,0-77.5-34.8-77.5-77.5s34.8-77.5,77.5-77.5c42.7,0,77.5,34.8,77.5,77.5
			S498.7,309.5,456,309.5z M456,168.5c-35,0-63.5,28.5-63.5,63.5s28.5,63.5,63.5,63.5s63.5-28.5,63.5-63.5S491,168.5,456,168.5z"/>
	</g>
	<g>
		<path fill="#231F20" d="M289.7,220.3c-5.2-16.6-20.3-27.7-37.6-27.7c-21.7,0-39.4,17.7-39.4,39.4c0,21.7,17.7,39.4,39.4,39.4
			c17.4,0,32.5-11.1,37.6-27.7c0.6-1.9-0.5-3.9-2.3-4.5l-23.3-7.3l23.3-7.3C289.3,224.2,290.3,222.2,289.7,220.3z"/>
		<path fill="#231F20" d="M492.1,239.3l-23.3-7.3l23.3-7.3c1.9-0.6,2.9-2.6,2.3-4.5c-5.2-16.6-20.3-27.7-37.6-27.7
			c-21.7,0-39.4,17.7-39.4,39.4c0,21.7,17.7,39.4,39.4,39.4c17.4,0,32.5-11.1,37.6-27.7C495,241.9,493.9,239.9,492.1,239.3z"/>
	</g>
</g>
<g>
	<g>
		<path fill="#231F20" d="M368.3,233.6c-3.8-0.6-7.5,2-8.1,5.8c-0.7,4.5-5.2,5-6.6,5l0,0.2c0,0,0,0,0,0l0-0.2c-1.4,0-5.8-0.5-6.6-5
			c-0.6-3.8-4.3-6.4-8.1-5.8c-3.8,0.6-6.4,4.3-5.8,8.1c2.2,13.3,14.3,16.8,20.4,16.8l0-0.2c0.1,0,0.1,0,0.2,0c0,0,0,0,0,0v0.2
			c6.1,0,18.2-3.5,20.4-16.8C374.8,237.9,372.2,234.2,368.3,233.6z"/>
	</g>
</g>
<path d="M638.6-246.1c-1.9,35.7-3.1,71.5-5.8,107.1c-2.5,32.8-6.2,65.5-10.1,98.1c-2.9,24.2-5.7,48.6-10.5,72.5
	c-3,14.8-9.5,28.9-14.5,43.2c-0.4,1.2-1,2.4-1.8,3.3c-15.7,18.5-34,33.2-58.4,37.7c-4.7,0.9-10.2-1.8-15.2-3.4
	c-1.9-0.6-3.6-2.4-5.1-3.9c-20.1-21.4-46.2-30.7-74-35.6c-18.3-3.2-37-5.1-55.7-6c-33.7-1.8-67.6-3.1-101.2,1.4
	C259.8,72,234.1,78.6,211.1,93c-6,3.8-11.6,8.6-16.5,13.7c-10.3,10.6-21.9,12.1-34.9,6.4c-15.5-6.7-29.1-16.5-41-28.3
	c-8.7-8.7-12.3-20.6-16.1-32c-8.1-24.4-11-49.7-14-75.1c-3.2-26.9-6.4-53.9-8.9-80.9c-2.5-26.7-5-53.4-6-80.1
	c-1.5-41.9-2.5-83.8-2.2-125.6c0.2-34.5,5.2-68.5,19.3-100.4c17.5-39.5,47.5-67,84.9-87.2c29.9-16.1,62.3-24.6,95.8-29.4
	c34.8-5,69.8-6.7,104.9-5.3c45.4,1.8,90.4,6.4,133.1,23.5c41.8,16.7,76.7,42.1,100.4,81.3c14.9,24.8,21.9,52.2,25.5,80.6
	C639.4-312.7,638.7-279.4,638.6-246.1z"/>
<rect x="291.3" y="488.3" fill="#FFFFFF" width="127.5" height="19.6"/>
<rect x="334.8" y="487.1" fill="#FFF3B6" width="7" height="22"/>
<rect x="367.2" y="487.1" fill="#FFF3B6" width="7" height="22"/>
<circle fill="#FFF3B6" cx="355" cy="498.1" r="4.8"/>
<polygon points="468.1,482.6 496.7,467.9 488.1,457.2 461.4,471.8 "/>
<path d="M328.8,519.3c0,0,21.5,11.4,49.7,0c-1-4.4-2.6-11.2-2.6-11.2l-44.5,0L328.8,519.3z"/>
</svg>
