<?xml version="1.0" encoding="utf-8"?>
<!-- Generator: Adobe Illustrator 16.0.0, SVG Export Plug-In . SVG Version: 6.00 Build 0)  -->
<!DOCTYPE svg PUBLIC "-//W3C//DTD SVG 1.1//EN" "http://www.w3.org/Graphics/SVG/1.1/DTD/svg11.dtd">
<svg version="1.1" id="Layer_1" xmlns="http://www.w3.org/2000/svg" xmlns:xlink="http://www.w3.org/1999/xlink" x="0px" y="0px"
	 width="1000px" height="1000px" viewBox="0 0 1000 1000" enable-background="new 0 0 1000 1000" xml:space="preserve">
<g>
	
		<path fill="#1683C6" stroke="#1683C6" stroke-width="30" stroke-linecap="round" stroke-linejoin="round" stroke-miterlimit="10" d="
		M418.118,816.928H176.606c0,0,29.885-10.479,28.498-77.572c-2.061-99.75,115.359-143.26,115.359-143.26h195.309
		c0,0,117.42,43.51,115.359,143.26c-1.387,67.094,28.498,77.572,28.498,77.572H418.118"/>
	<circle fill="#BE4243" cx="418.118" cy="695.145" r="70.744"/>
	<g>
		
			<line fill="none" stroke="#BE4243" stroke-width="30" stroke-linecap="round" stroke-linejoin="round" stroke-miterlimit="10" x1="382.999" y1="746.713" x2="364.036" y2="825.236"/>
		
			<polygon fill="#BE4243" stroke="#BE4243" stroke-width="7" stroke-linecap="round" stroke-linejoin="round" stroke-miterlimit="10" points="
			352.247,826.59 326.534,851.125 374.854,851.125 377.963,816.928 		"/>
	</g>
	<g>
		
			<line fill="none" stroke="#BE4243" stroke-width="30" stroke-linecap="round" stroke-linejoin="round" stroke-miterlimit="10" x1="456.629" y1="746.713" x2="475.592" y2="825.236"/>
		
			<polygon fill="#BE4243" stroke="#BE4243" stroke-width="7" stroke-linecap="round" stroke-linejoin="round" stroke-miterlimit="10" points="
			487.381,826.59 513.095,851.125 464.774,851.125 461.665,816.928 		"/>
	</g>
	<g>
		<path fill="none" stroke="#BE4243" stroke-width="30" stroke-linecap="round" stroke-linejoin="round" stroke-miterlimit="10" d="
			M356.27,678.266c-38.889-3.107-73.352,23.162-79.988,61.641"/>
		
			<line fill="#E35050" stroke="#BE4243" stroke-width="15" stroke-linecap="round" stroke-linejoin="round" stroke-miterlimit="10" x1="290.938" y1="727.82" x2="301.553" y2="750.893"/>
		<path fill="#BE4243" d="M283.487,726.342l1.598-10.975c0,0,12.941-35.293,0.344-24.158c-11.643,10.287-29.709,37.492-32.389,41.57
			c-2.521,3.65-4.006,8.068-4.006,12.84c0,12.5,10.135,22.635,22.635,22.635c9.809,0,16.402-4.484,19.545-13.213
			c0.861-2.393,3.088-6.732,3.088-9.422C294.301,737.457,289.965,730.324,283.487,726.342z"/>
	</g>
	<g>
		<path fill="none" stroke="#BE4243" stroke-width="30" stroke-linecap="round" stroke-linejoin="round" stroke-miterlimit="10" d="
			M582.47,652.818c31.896,22.465,74.932,17.387,100.225-12.361"/>
		
			<line fill="#E35050" stroke="#BE4243" stroke-width="15" stroke-linecap="round" stroke-linejoin="round" stroke-miterlimit="10" x1="663.927" y1="643.404" x2="666.53" y2="618.141"/>
		<path fill="#BE4243" d="M669.591,648.469l-6.961,8.635c0,0-29.1,23.797-12.588,20.621c15.256-2.932,44.652-17.156,49.035-19.305
			c4.027-1.859,7.555-4.908,9.982-9.016c6.359-10.76,2.791-24.641-7.969-31.002c-8.445-4.99-16.402-4.486-23.549,1.428
			c-1.959,1.623-6.084,4.225-7.453,6.539C665.937,633.396,666.04,641.744,669.591,648.469z"/>
	</g>
	<path fill="#E35050" d="M408.867,703.762c4.758,6.594,15.262,17.922,28.729,13.088c9.711-3.486,14.381-21.842,14.381-21.842
		s11.969,9.842,33.303,4.627c21.334-5.217,26.827-25.123,26.827-25.123s-4.16,27.672,19.174,24.932
		c23.174-2.721,15.518-45.512,15.412-46.092c2.773,15.334,19.391,30.152,31.518,13.848c9.131-12.279,6.492-32.887,5.031-47.109
		c1.154,11.248,12.867,30.463,26.242,23.936c17.486-8.533,8.83-41.775,4.461-55.176c6.607,20.26,30.141,8.004,35.494-5.699
		c7.557-19.34-6.346-43.566-15.857-59.846c8.652,11.348,28.131,21.441,34.086,2.15c10.531-34.122-15.629-65.981-36.574-89.752
		c9.029,10.749,48.023,45.305,49.783,10.309c1.611-32.072-30.154-55.681-56.275-67.449c7.979,3.362,16.49,6.836,25.23,7.362
		c23.037,1.388,19.41-19.464,8.186-31.838c-11.971-13.192-27.598-23.434-43.514-31.255c5.407,5.198,19.621,14.049,27.213,12.965
		c13.123-1.872,19.199-26.61,12.896-33.613c-18-20-48.553-12.77-60-8l4.578-1.253c20.775-5.895,24.309-25.747,18.434-41.333
		c-11.59-30.747-62.623-17.126-91.271-6.168c9.734-3.723,21.133-3.669,26.143-14.721c4.627-10.209-1.188-20.947-10.758-25.525
		c-24.162-11.559-49.903,9.939-68.67,22.67c6.695-5.309,18.4-13.281,20.082-22.324c3.344-17.967-24.479-15.48-34.381-13.092
		c-18.602,4.486-35.283,16.672-46.211,32.287h-5.213c-10.93-15.615-27.611-27.801-46.213-32.287
		c-9.902-2.389-37.725-4.875-34.381,13.092c1.682,9.043,13.387,17.016,20.082,22.324c-18.768-12.73-44.508-34.229-68.67-22.67
		c-9.568,4.578-15.385,15.316-10.758,25.525c5.01,11.052,16.408,10.998,26.143,14.721c-28.648-10.958-79.682-24.579-91.271,6.168
		c-5.875,15.586-2.342,35.438,18.434,41.333l4.578,1.253c-11.447-4.77-42-12-60,8c-6.303,7.003-0.227,31.741,12.896,33.613
		c7.592,1.084,21.805-7.767,27.213-12.965c-15.916,7.821-31.543,18.062-43.512,31.255c-11.227,12.374-14.854,33.226,8.184,31.838
		c8.74-0.526,17.252-4,25.23-7.362c-26.121,11.769-57.887,35.377-56.275,67.449c1.76,34.996,40.754,0.44,49.783-10.309
		c-20.945,23.771-47.105,55.631-36.574,89.752c5.955,19.291,25.434,9.197,34.086-2.15c-9.512,16.279-23.414,40.506-15.857,59.846
		c5.354,13.703,28.889,25.959,35.494,5.699c-4.369,13.4-13.025,46.643,4.461,55.176c13.375,6.527,25.088-12.688,26.242-23.936
		c-1.461,14.223-4.1,34.83,5.031,47.109c12.127,16.305,28.744,1.486,31.518-13.848c-0.105,0.58-7.762,43.371,15.412,46.092
		c23.333,2.74,19.174-24.932,19.174-24.932s5.491,19.906,26.825,25.123c21.334,5.215,33.304-4.627,33.304-4.627
		s4.67,18.355,14.381,21.842c13.312,4.779,23.73-6.236,28.562-12.859"/>
	<g>
		<g>
			
				<path fill="#FFFFFF" stroke="#231F20" stroke-width="14" stroke-linecap="round" stroke-linejoin="round" stroke-miterlimit="10" d="
				M396.684,479.796c0,0,1.902,11.5,12.938,11.5"/>
			
				<path fill="#FFFFFF" stroke="#231F20" stroke-width="14" stroke-linecap="round" stroke-linejoin="round" stroke-miterlimit="10" d="
				M422.559,479.796c0,0-1.902,11.5-12.938,11.5"/>
		</g>
		
			<circle fill="#FFFFFF" stroke="#231F20" stroke-width="14" stroke-linecap="round" stroke-linejoin="round" stroke-miterlimit="10" cx="307.615" cy="471.546" r="70.497"/>
		<g>
			<path fill="#231F20" d="M308.42,471.546l34.23-10.668c-4.541-14.586-18.148-25.176-34.23-25.176
				c-19.795,0-35.844,16.048-35.844,35.844c0,19.797,16.049,35.844,35.844,35.844c16.082,0,29.689-10.588,34.23-25.175
				L308.42,471.546z"/>
			<path fill="#231F20" d="M308.42,510.951c-21.727,0-39.402-17.677-39.402-39.405c0-21.727,17.676-39.402,39.402-39.402
				c17.354,0,32.475,11.122,37.629,27.676c0.584,1.877-0.463,3.871-2.34,4.457l-23.328,7.27l23.328,7.271
				c1.877,0.584,2.924,2.579,2.34,4.455C340.895,499.828,325.774,510.951,308.42,510.951z M308.42,439.261
				c-17.801,0-32.285,14.484-32.285,32.285c0,17.803,14.484,32.286,32.285,32.286c13.018,0,24.502-7.637,29.59-19.334l-30.648-9.553
				c-1.486-0.463-2.5-1.84-2.5-3.398c0-1.557,1.014-2.934,2.5-3.397l30.648-9.552C332.922,446.898,321.438,439.261,308.42,439.261z"
				/>
		</g>
		
			<circle fill="#FFFFFF" stroke="#231F20" stroke-width="14" stroke-linecap="round" stroke-linejoin="round" stroke-miterlimit="10" cx="512.283" cy="471.546" r="70.497"/>
		<g>
			<path fill="#231F20" d="M513.091,471.546l34.229-10.668c-4.541-14.586-18.146-25.176-34.229-25.176
				c-19.797,0-35.844,16.048-35.844,35.844c0,19.797,16.047,35.844,35.844,35.844c16.082,0,29.688-10.588,34.229-25.175
				L513.091,471.546z"/>
			<path fill="#231F20" d="M513.091,510.951c-21.727,0-39.405-17.677-39.405-39.405c0-21.727,17.678-39.402,39.405-39.402
				c17.352,0,32.475,11.122,37.627,27.676c0.585,1.877-0.463,3.871-2.338,4.457l-23.328,7.27l23.328,7.271
				c1.875,0.584,2.923,2.579,2.338,4.455C545.565,499.828,530.442,510.951,513.091,510.951z M513.091,439.261
				c-17.803,0-32.286,14.484-32.286,32.285c0,17.803,14.482,32.286,32.286,32.286c13.018,0,24.502-7.637,29.59-19.334l-30.648-9.553
				c-1.488-0.463-2.5-1.84-2.5-3.398c0-1.557,1.012-2.934,2.5-3.397l30.648-9.552C537.593,446.898,526.108,439.261,513.091,439.261z
				"/>
		</g>
	</g>
	<g>
		
			<polygon fill="#FBCA28" stroke="#FBCA28" stroke-width="7" stroke-linecap="round" stroke-linejoin="round" stroke-miterlimit="10" points="
			364.968,200.777 319.988,163.875 319.988,235.08 499.908,235.08 499.908,163.875 454.929,200.777 409.947,163.875 		"/>
		
			<path fill="#FBCA28" stroke="#FBCA28" stroke-width="7" stroke-linecap="round" stroke-linejoin="round" stroke-miterlimit="10" d="
			M499.908,250.08h-179.92c-8.283,0-15-6.715-15-15v-71.205c0-5.799,3.344-11.078,8.586-13.559
			c5.242-2.479,11.443-1.717,15.928,1.963l35.467,29.096l35.465-29.096c2.682-2.201,6.045-3.404,9.514-3.404
			c5.365,0,8.184,2.312,11.447,4.989l20.559,16.865c4.578,3.757,9.156,7.513,12.977,10.646l35.465-29.096
			c4.484-3.68,10.69-4.442,15.928-1.963c5.244,2.48,8.586,7.76,8.586,13.559v71.205C514.908,243.365,508.192,250.08,499.908,250.08z
			 M334.988,220.08h149.92v-24.496l-20.466,16.79c-2.681,2.2-6.044,3.403-9.513,3.403c-5.365,0-8.184-2.312-11.447-4.988
			l-20.559-16.865c-4.578-3.758-9.156-7.514-12.977-10.646l-35.465,29.097c-5.531,4.538-13.496,4.538-19.027,0l-20.467-16.79V220.08
			z"/>
	</g>
	
		<line fill="none" stroke="#D2D3D4" stroke-width="30" stroke-linecap="round" stroke-linejoin="round" stroke-miterlimit="10" x1="629.591" y1="851.125" x2="727.591" y2="489.839"/>
	<g>
		<g id="XMLID_82_">
			<g>
				<path fill="#6FB5E4" d="M822.352,426.587c1.924,7.151-1.664,14.637-8.439,17.618l-71.355,31.43
					c0.504-0.243,0.994-0.51,1.474-0.813c7.021-4.391,9.144-13.646,4.753-20.666l-6.883-10.998l48.142-21.221l-3.296-12.249
					l-31.582-9.709c7.924,2.436,16.312-2.016,18.746-9.93c2.433-7.914-2.007-16.31-9.931-18.745l39.516,12.147
					c4.932,1.516,8.731,5.457,10.076,10.442L822.352,426.587z"/>
				<polygon fill="#6FB5E4" points="786.746,409.688 790.042,421.937 741.9,443.158 713.984,398.556 723.583,390.271 
					755.164,399.979 				"/>
				<path fill="#6FB5E4" d="M748.783,454.156c4.391,7.02,2.268,16.275-4.753,20.666c-0.479,0.303-0.97,0.57-1.474,0.813l-0.438,0.2
					c-0.131,0.054-0.266,0.117-0.395,0.161c-0.185,0.09-0.373,0.157-0.561,0.225c-0.553,0.196-1.118,0.368-1.681,0.498
					c-0.259,0.057-0.517,0.113-0.781,0.158c-0.268,0.054-0.529,0.088-0.791,0.123c-0.795,0.101-1.591,0.138-2.376,0.106
					c-0.27-0.01-0.525-0.026-0.789-0.054c-0.266-0.019-0.526-0.058-0.786-0.096c-0.185-0.015-0.362-0.048-0.54-0.082
					c-0.159-0.028-0.327-0.059-0.493-0.099c-0.168-0.031-0.333-0.071-0.509-0.115c-0.251-0.067-0.503-0.134-0.751-0.21l-0.01-0.003
					c-0.248-0.077-0.494-0.163-0.739-0.249c-0.16-0.06-0.329-0.122-0.485-0.191c-0.16-0.06-0.316-0.128-0.464-0.195
					c-0.166-0.072-0.329-0.153-0.492-0.235c-0.236-0.115-0.474-0.229-0.704-0.363c-0.225-0.121-0.455-0.255-0.674-0.395
					c-0.893-0.567-1.737-1.225-2.501-1.972c-0.194-0.185-0.376-0.377-0.558-0.569c-0.314-0.337-0.614-0.691-0.895-1.07
					c-0.104-0.137-0.209-0.273-0.311-0.42c-0.255-0.361-0.505-0.741-0.729-1.134c-0.279-0.483-0.535-0.98-0.763-1.5
					c-3.341-7.577,0.092-16.429,7.678-19.767l11.881-5.229L748.783,454.156z"/>
				<path fill="#6FB5E4" d="M763.979,371.304c7.924,2.436,12.363,10.831,9.931,18.745c-2.434,7.915-10.822,12.366-18.746,9.93
					c-7.914-2.433-12.363-10.831-9.93-18.746C747.667,373.319,756.065,368.871,763.979,371.304z"/>
				<path fill="#6FB5E4" d="M741.163,476.221c0.188-0.068,0.376-0.135,0.561-0.225C741.542,476.076,741.351,476.153,741.163,476.221
					z"/>
				<path fill="#6FB5E4" d="M738.701,476.876c0.265-0.044,0.522-0.101,0.781-0.158C739.221,476.785,738.963,476.842,738.701,476.876
					z"/>
				<path fill="#6FB5E4" d="M737.91,477c0.262-0.035,0.523-0.069,0.791-0.123C738.434,476.93,738.169,476.974,737.91,477z"/>
				<path fill="#6FB5E4" d="M734.745,477.052c0.264,0.028,0.52,0.044,0.789,0.054C735.265,477.096,734.999,477.077,734.745,477.052z
					"/>
				<path fill="#6FB5E4" d="M733.959,476.956c0.26,0.038,0.521,0.077,0.786,0.096C734.479,477.033,734.216,477.004,733.959,476.956z
					"/>
				<path fill="#6FB5E4" d="M732.926,476.775c0.166,0.041,0.334,0.071,0.493,0.099C733.26,476.846,733.092,476.815,732.926,476.775z
					"/>
				<path fill="#6FB5E4" d="M731.666,476.45c0.248,0.076,0.5,0.143,0.751,0.21C732.166,476.593,731.914,476.526,731.666,476.45z"/>
				<path fill="#6FB5E4" d="M741.9,443.158l-11.881,5.229c-7.586,3.338-11.019,12.19-7.678,19.767c0.228,0.52,0.483,1.017,0.763,1.5
					l-41.377-66.086c-3.931-6.272-2.693-14.481,2.915-19.316l25.63-22.115c3.903-3.372,9.27-4.494,14.202-2.978l39.505,12.145
					c-7.914-2.433-16.312,2.015-18.745,9.93c-2.434,7.915,2.016,16.312,9.93,18.746l-31.581-9.708l-9.599,8.285L741.9,443.158z"/>
				<path fill="#6FB5E4" d="M730.917,476.199c0.245,0.086,0.491,0.172,0.739,0.249C731.408,476.371,731.162,476.285,730.917,476.199
					z"/>
				<path fill="#6FB5E4" d="M729.968,475.813c0.147,0.066,0.304,0.135,0.464,0.195C730.271,475.948,730.125,475.882,729.968,475.813
					z"/>
				<path fill="#6FB5E4" d="M728.771,475.215c0.23,0.134,0.468,0.249,0.704,0.363C729.236,475.473,729.002,475.349,728.771,475.215z
					"/>
				<path fill="#6FB5E4" d="M728.098,474.82c0.219,0.14,0.449,0.274,0.674,0.395C728.537,475.091,728.316,474.96,728.098,474.82z"/>
				<path fill="#6FB5E4" d="M725.039,472.279c0.182,0.192,0.363,0.384,0.558,0.569C725.399,472.672,725.218,472.48,725.039,472.279z
					"/>
				<path fill="#6FB5E4" d="M723.834,470.789c0.102,0.146,0.206,0.283,0.311,0.42C724.04,471.072,723.936,470.935,723.834,470.789z"
					/>
			</g>
			<g>
			</g>
		</g>
	</g>
	
		<polyline fill="none" stroke="#D2D3D4" stroke-width="30" stroke-linecap="round" stroke-linejoin="round" stroke-miterlimit="10" points="
		712.905,441.044 698.741,448.547 725.001,498.12 	"/>
	
		<polyline fill="none" stroke="#D2D3D4" stroke-width="30" stroke-linecap="round" stroke-linejoin="round" stroke-miterlimit="10" points="
		767.069,457.697 774.571,471.86 725.001,498.12 	"/>
	
		<polyline fill="none" stroke="#FFFFFF" stroke-width="14" stroke-linecap="round" stroke-linejoin="round" stroke-miterlimit="10" points="
		733.21,388.607 752.581,408.406 744.94,433.259 	"/>
	
		<polyline fill="none" stroke="#FFFFFF" stroke-width="14" stroke-linecap="round" stroke-linejoin="round" stroke-miterlimit="10" points="
		779.728,402.908 752.579,408.406 744.938,433.258 	"/>
	
		<line fill="none" stroke="#FEEB5F" stroke-width="14" stroke-linecap="round" stroke-linejoin="round" stroke-miterlimit="10" x1="773.454" y1="340.724" x2="786.237" y2="299.146"/>
	
		<line fill="none" stroke="#FEEB5F" stroke-width="14" stroke-linecap="round" stroke-linejoin="round" stroke-miterlimit="10" x1="722.177" y1="328.757" x2="701.813" y2="290.32"/>
	
		<line fill="none" stroke="#FEEB5F" stroke-width="14" stroke-linecap="round" stroke-linejoin="round" stroke-miterlimit="10" x1="822.599" y1="359.628" x2="861.036" y2="339.267"/>
</g>
</svg>
