<?xml version="1.0" encoding="utf-8"?>
<!-- Generator: Adobe Illustrator 16.0.0, SVG Export Plug-In . SVG Version: 6.00 Build 0)  -->
<!DOCTYPE svg PUBLIC "-//W3C//DTD SVG 1.1//EN" "http://www.w3.org/Graphics/SVG/1.1/DTD/svg11.dtd">
<svg version="1.1" id="Layer_1" xmlns="http://www.w3.org/2000/svg" xmlns:xlink="http://www.w3.org/1999/xlink" x="0px" y="0px"
	 width="1000px" height="1000px" viewBox="0 0 1000 1000" enable-background="new 0 0 1000 1000" xml:space="preserve">
<g>
	<path fill="none" stroke="#764E2A" stroke-width="14" stroke-linecap="round" stroke-linejoin="round" stroke-miterlimit="10" d="
		M647.297,824.574c0-10.982,8.904-19.886,19.887-19.886s19.886,8.903,19.886,19.886v88.656"/>
	
		<polygon fill="#231F20" stroke="#231F20" stroke-width="30" stroke-linecap="round" stroke-linejoin="round" stroke-miterlimit="10" points="
		446.104,761.323 561.727,761.323 561.727,892.203 505.281,852.203 446.104,892.203 	"/>
	<g>
		<g>
			
				<line fill="none" stroke="#939598" stroke-width="30" stroke-linecap="round" stroke-linejoin="round" stroke-miterlimit="10" x1="539.005" y1="821.988" x2="557.969" y2="900.512"/>
			
				<polygon fill="#231F20" stroke="#231F20" stroke-width="7" stroke-linecap="round" stroke-linejoin="round" stroke-miterlimit="10" points="
				569.757,901.865 595.472,926.4 547.149,926.4 544.041,892.203 			"/>
		</g>
		
			<polygon fill="#939598" stroke="#939598" stroke-width="7" stroke-linecap="round" stroke-linejoin="round" stroke-miterlimit="10" points="
			565.203,882.023 570.673,902.738 545.318,906.256 541.465,874.756 		"/>
		<g>
			
				<line fill="none" stroke="#939598" stroke-width="30" stroke-linecap="round" stroke-linejoin="round" stroke-miterlimit="10" x1="470.495" y1="821.988" x2="451.531" y2="900.512"/>
			
				<polygon fill="#231F20" stroke="#231F20" stroke-width="7" stroke-linecap="round" stroke-linejoin="round" stroke-miterlimit="10" points="
				439.743,901.865 414.028,926.4 462.351,926.4 465.459,892.203 			"/>
		</g>
		
			<polygon fill="#939598" stroke="#939598" stroke-width="7" stroke-linecap="round" stroke-linejoin="round" stroke-miterlimit="10" points="
			444.297,882.023 438.827,902.738 464.182,906.256 468.035,874.756 		"/>
		<path fill="#231F20" d="M431.547,770.419c0-39.071,31.674-70.743,70.744-70.743c39.074,0,70.745,31.672,70.745,70.743
			s-31.671,70.743-70.745,70.743C463.221,841.162,431.547,809.49,431.547,770.419z"/>
	</g>
	<g>
		<path fill="none" stroke="#231F20" stroke-width="30" stroke-linecap="round" stroke-linejoin="round" stroke-miterlimit="10" d="
			M434.445,753.541c-38.89-3.109-73.352,23.162-79.988,61.639"/>
		
			<line fill="#E35050" stroke="#BE4243" stroke-width="15" stroke-linecap="round" stroke-linejoin="round" stroke-miterlimit="10" x1="369.113" y1="803.094" x2="379.727" y2="826.168"/>
		<path fill="#BE4243" d="M361.662,801.617l1.597-10.975c0,0,12.941-35.294,0.343-24.16c-11.641,10.289-29.709,37.492-32.389,41.572
			c-2.52,3.648-4.006,8.068-4.006,12.84c0,12.5,10.136,22.633,22.636,22.633c9.81,0,16.403-4.482,19.545-13.211
			c0.862-2.395,3.089-6.732,3.089-9.422C372.477,812.731,368.14,805.6,361.662,801.617z"/>
		
			<path fill="#231F20" stroke="#231F20" stroke-width="7" stroke-linecap="round" stroke-linejoin="round" stroke-miterlimit="10" d="
			M374.42,790.924l-1.943,12.17c0,0-13.764,4.232-24.764-9.803c0,0,4.029-21.034,32.014-36.367l3.234,13.495L374.42,790.924z"/>
	</g>
	<g>
		<path fill="none" stroke="#231F20" stroke-width="30" stroke-linecap="round" stroke-linejoin="round" stroke-miterlimit="10" d="
			M564.959,768.966c35.133-16.962,76.764-4.929,96.863,28.544"/>
		
			<line fill="#E35050" stroke="#BE4243" stroke-width="15" stroke-linecap="round" stroke-linejoin="round" stroke-miterlimit="10" x1="643.788" y1="791.541" x2="642.236" y2="816.893"/>
		<path fill="#BE4243" d="M650.201,787.471l-5.457-9.655c0,0-24.828-28.226-9.056-22.401c14.573,5.384,41.256,24.213,45.229,27.048
			c3.669,2.49,6.653,6.074,8.379,10.522c4.521,11.654-1.267,24.767-12.921,29.286c-9.146,3.548-16.914,1.753-22.999-5.249
			c-1.67-1.921-5.314-5.16-6.286-7.668C644.137,801.743,645.602,793.525,650.201,787.471z"/>
		
			<path fill="#231F20" stroke="#231F20" stroke-width="7" stroke-linecap="round" stroke-linejoin="round" stroke-miterlimit="10" d="
			M634.439,782.113l6.213,10.645c0,0,14.363-1.031,19.543-18.094c0,0-11.361-18.154-42.998-22.33l1.865,13.751L634.439,782.113z"/>
	</g>
	<path fill="#E35050" d="M310.759,364.291l4.578,1.252c-11.447-4.77-42-12-60,8c-6.304,7.003-0.227,31.742,12.896,33.614
		c7.593,1.083,21.807-7.767,27.214-12.965c-15.917,7.821-31.542,18.062-43.513,31.254c-11.225,12.375-14.852,33.226,8.186,31.838
		c8.739-0.527,17.251-4,25.229-7.362c-26.119,11.769-57.887,35.377-56.274,67.449c1.761,34.997,40.754,0.441,49.783-10.309
		c-20.945,23.771-47.104,55.631-36.575,89.753c5.956,19.291,25.436,9.197,34.088-2.15c-9.512,16.278-23.415,40.505-15.859,59.847
		c5.355,13.701,28.889,25.957,35.495,5.698c-4.37,13.399-13.026,46.643,4.462,55.176c13.374,6.526,25.087-12.688,26.242-23.937
		c-1.461,14.223-4.101,34.83,5.031,47.11c12.125,16.306,28.744,1.487,31.518-13.849c-0.105,0.581-7.763,43.372,15.412,46.093
		c23.332,2.739,19.173-24.933,19.173-24.933s5.491,19.908,26.825,25.123s33.304-4.627,33.304-4.627s4.67,18.357,14.38,21.843
		c13.314,4.778,23.732-6.237,28.564-12.859"/>
	<path fill="#E35050" d="M307.678,362.959l381.562,1.332c0,0,37.422-10.748,55.422,9.252c6.301,7.003,0.226,31.742-12.896,33.614
		c-7.592,1.083-21.806-7.767-27.215-12.965c15.918,7.821,31.543,18.062,43.512,31.254c11.229,12.375,14.855,33.226-8.183,31.838
		c-8.74-0.527-17.252-4-25.229-7.362c26.12,11.769,57.885,35.377,56.276,67.449c-1.761,34.997-40.756,0.441-49.785-10.309
		c20.946,23.771,47.106,55.631,36.575,89.753c-5.955,19.291-25.436,9.197-34.088-2.15c9.513,16.278,23.415,40.505,15.859,59.847
		c-5.354,13.701-28.889,25.957-35.494,5.698c4.368,13.399,13.025,46.643-4.463,55.176c-13.373,6.526-25.086-12.688-26.24-23.937
		c1.459,14.223,4.1,34.83-5.032,47.11c-12.126,16.306-28.745,1.487-31.518-13.849c0.104,0.581,7.763,43.372-15.413,46.093
		c-23.333,2.739-19.172-24.933-19.172-24.933s-5.493,19.908-26.828,25.123c-21.333,5.215-33.302-4.627-33.302-4.627
		s-4.669,18.357-14.381,21.843c-13.468,4.834-23.969-6.494-28.728-13.087"/>
	<g>
		
			<circle fill="#FFFFFF" stroke="#231F20" stroke-width="14" stroke-linecap="round" stroke-linejoin="round" stroke-miterlimit="10" cx="397.665" cy="542.907" r="70.497"/>
		<g>
			<path fill="#231F20" d="M398.473,542.907l34.229-10.669c-4.541-14.586-18.148-25.176-34.229-25.176
				c-19.797,0-35.844,16.049-35.844,35.845s16.047,35.845,35.844,35.845c16.08,0,29.688-10.59,34.229-25.176L398.473,542.907z"/>
			<path fill="#231F20" d="M398.473,582.311c-21.727,0-39.404-17.676-39.404-39.403s17.678-39.403,39.404-39.403
				c17.352,0,32.475,11.123,37.627,27.677c0.586,1.876-0.463,3.871-2.338,4.456l-23.328,7.271l23.328,7.271
				c1.875,0.585,2.924,2.58,2.338,4.456C430.947,571.188,415.824,582.311,398.473,582.311z M398.473,510.622
				c-17.803,0-32.287,14.483-32.287,32.285s14.484,32.285,32.287,32.285c13.016,0,24.5-7.637,29.59-19.335l-30.648-9.553
				c-1.488-0.463-2.5-1.84-2.5-3.397s1.012-2.935,2.5-3.397l30.648-9.553C422.973,518.259,411.488,510.622,398.473,510.622z"/>
		</g>
		
			<circle fill="#FFFFFF" stroke="#231F20" stroke-width="14" stroke-linecap="round" stroke-linejoin="round" stroke-miterlimit="10" cx="602.334" cy="542.907" r="70.498"/>
		<g>
			<path fill="#231F20" d="M603.141,542.907l34.23-10.669c-4.541-14.586-18.148-25.176-34.23-25.176
				c-19.795,0-35.844,16.049-35.844,35.845s16.049,35.845,35.844,35.845c16.082,0,29.689-10.59,34.23-25.176L603.141,542.907z"/>
			<path fill="#231F20" d="M603.141,582.311c-21.727,0-39.402-17.676-39.402-39.403s17.676-39.403,39.402-39.403
				c17.354,0,32.475,11.123,37.629,27.677c0.584,1.876-0.465,3.871-2.34,4.456l-23.328,7.271l23.328,7.271
				c1.875,0.585,2.924,2.58,2.34,4.456C635.615,571.188,620.494,582.311,603.141,582.311z M603.141,510.622
				c-17.803,0-32.285,14.483-32.285,32.285s14.482,32.285,32.285,32.285c13.018,0,24.502-7.637,29.59-19.335l-30.648-9.553
				c-1.486-0.463-2.5-1.84-2.5-3.397s1.014-2.935,2.5-3.397l30.648-9.553C627.643,518.259,616.158,510.622,603.141,510.622z"/>
		</g>
	</g>
	
		<line fill="#231F20" stroke="#231F20" stroke-width="30" stroke-linecap="round" stroke-linejoin="round" stroke-miterlimit="10" x1="249.425" y1="372.145" x2="744.662" y2="372.145"/>
	
		<rect x="382.961" y="73.6" fill="#231F20" stroke="#231F20" stroke-width="30" stroke-linecap="round" stroke-linejoin="round" stroke-miterlimit="10" width="228.165" height="298.545"/>
	
		<circle fill="none" stroke="#939598" stroke-width="17" stroke-linecap="round" stroke-linejoin="round" stroke-miterlimit="10" cx="394.914" cy="542.907" r="97.635"/>
	
		<circle fill="none" stroke="#939598" stroke-width="17" stroke-linecap="round" stroke-linejoin="round" stroke-miterlimit="10" cx="334.279" cy="651.229" r="17.333"/>
	
		<circle fill="none" stroke="#939598" stroke-width="17" stroke-linecap="round" stroke-linejoin="round" stroke-miterlimit="10" cx="327.207" cy="685.896" r="17.333"/>
	
		<circle fill="none" stroke="#939598" stroke-width="17" stroke-linecap="round" stroke-linejoin="round" stroke-miterlimit="10" cx="341.735" cy="720.562" r="17.333"/>
	<g>
		
			<path fill="#231F20" stroke="#231F20" stroke-width="17" stroke-linecap="round" stroke-linejoin="round" stroke-miterlimit="10" d="
			M496.979,616.25c-1.238-1.095-3.039-1.858-5.168-2.083c-5.952-0.629-14.105,2.031-19.324,4.848
			c-14.354,7.745-18.344-3.073-18.355-3.104c6.766,18.395,26.593,22.188,41.918,8.979
			C499.663,621.775,499.39,618.384,496.979,616.25z"/>
		
			<path fill="#231F20" stroke="#231F20" stroke-width="17" stroke-linecap="round" stroke-linejoin="round" stroke-miterlimit="10" d="
			M503.021,616.25c1.237-1.095,3.038-1.858,5.166-2.083c5.953-0.629,14.107,2.031,19.326,4.848
			c14.353,7.745,18.344-3.073,18.355-3.104c-6.766,18.395-26.593,22.188-41.918,8.979
			C500.338,621.775,500.609,618.384,503.021,616.25z"/>
	</g>
	<rect x="382.961" y="301.896" fill="#BDBEC0" width="228.165" height="58.355"/>
	
		<line fill="none" stroke="#231F20" stroke-width="14" stroke-linecap="round" stroke-linejoin="round" stroke-miterlimit="10" x1="540.25" y1="825.46" x2="564.959" y2="920.563"/>
	
		<line fill="none" stroke="#231F20" stroke-width="14" stroke-linecap="round" stroke-linejoin="round" stroke-miterlimit="10" x1="470.367" y1="825.46" x2="445.658" y2="920.563"/>
</g>
</svg>
