<?xml version="1.0" encoding="utf-8"?>
<!-- Generator: Adobe Illustrator 17.0.0, SVG Export Plug-In . SVG Version: 6.00 Build 0)  -->
<!DOCTYPE svg PUBLIC "-//W3C//DTD SVG 1.1//EN" "http://www.w3.org/Graphics/SVG/1.1/DTD/svg11.dtd">
<svg version="1.1" id="Layer_1" xmlns="http://www.w3.org/2000/svg" xmlns:xlink="http://www.w3.org/1999/xlink" x="0px" y="0px"
	 width="218px" height="218px" viewBox="0 0 218 218" enable-background="new 0 0 218 218" xml:space="preserve">
<g id="Layer_2">
	<path fill="none" stroke="#212123" stroke-width="8" stroke-miterlimit="10" d="M113.538,85.187c0,0,10.143-8.809,18.96,12.16
		s18.149,15.751,26.766,26.558c8.34,10.459,17.561,53.518,18.357,57.192"/>
	<path fill="none" stroke="#212123" stroke-width="8" stroke-miterlimit="10" d="M129.258,64.689c0,0,10.143-8.809,18.96,12.16
		s-4.41,53.164,22.609,51.329c13.346-0.906,21.719,28.746,22.514,32.42"/>
</g>
<g id="Layer_4">
	<circle fill="#010101" cx="109.139" cy="163.887" r="22.617"/>
	<path fill="#010101" d="M98.496,175.711c-2.575-0.621-5.166,0.962-5.788,3.536l-6.063,25.104c-0.08,0.331-0.122,0.662-0.132,0.99
		l-7.969,7.603c-0.331,0.316-0.436,0.801-0.266,1.225c0.17,0.425,0.581,0.703,1.039,0.703h15.448c0.579,0,1.062-0.441,1.114-1.018
		l0.994-10.933c0.002-0.026,0.002-0.051,0.002-0.077l5.155-21.346C102.653,178.924,101.07,176.333,98.496,175.711z"/>
	<path fill="#010101" d="M139.665,212.879l-7.9-7.538c-0.009-0.327-0.052-0.659-0.132-0.99l-6.063-25.104
		c-0.622-2.575-3.213-4.158-5.788-3.536c-2.575,0.622-4.157,3.213-3.536,5.788l5.155,21.346c0.001,0.026,0,0.051,0.002,0.077
		l0.994,10.933c0.052,0.576,0.535,1.018,1.114,1.018h15.448c0.002,0,0.004,0,0.006,0c0.618,0,1.119-0.501,1.119-1.119
		C140.087,213.4,139.922,213.084,139.665,212.879z"/>
	<path fill="#010101" d="M91.646,153.71c-10.303-0.825-19.767,3.749-25.487,11.477c-3.404,3.951-7.215,9.691-7.898,10.731
		c-0.806,1.166-1.281,2.579-1.281,4.105c0,3.996,3.24,7.236,7.236,7.236c3.136,0,5.244-1.433,6.249-4.224
		c0.138-0.383,0.386-0.923,0.598-1.474l0.529,1.15c0.404,0.879,1.272,1.396,2.18,1.396c0.335,0,0.676-0.071,1-0.22
		c1.203-0.553,1.73-1.978,1.176-3.18l-3.393-7.377c-0.031-0.068-0.066-0.132-0.102-0.196c3.516-6.469,10.609-10.488,18.429-9.864
		c2.64,0.212,4.951-1.758,5.162-4.398C96.255,156.232,94.286,153.921,91.646,153.71z"/>
	<path fill="#010101" d="M160.019,175.918c-0.683-1.04-4.494-6.779-7.898-10.73c-5.72-7.728-15.184-12.302-25.488-11.478
		c-2.64,0.211-4.609,2.522-4.398,5.163c0.211,2.64,2.522,4.609,5.162,4.398c7.821-0.624,14.913,3.395,18.429,9.864
		c-0.037,0.063-0.072,0.128-0.103,0.196l-3.393,7.377c-0.553,1.203-0.027,2.627,1.176,3.18c0.325,0.149,0.665,0.22,1.001,0.22
		c0.907,0,1.776-0.518,2.18-1.396l0.529-1.15c0.213,0.551,0.46,1.09,0.598,1.474c1.005,2.791,3.113,4.224,6.249,4.224
		c3.996,0,7.237-3.24,7.237-7.236C161.3,178.498,160.824,177.085,160.019,175.918z"/>
</g>
<g id="Layer_1_1_">
	<g>
		<circle fill="#010101" cx="109.14" cy="163.887" r="22.617"/>
		<path fill="#010101" d="M98.496,175.711c-2.575-0.621-5.166,0.962-5.788,3.536l-6.063,25.104c-0.08,0.331-0.122,0.662-0.132,0.99
			l-7.969,7.603c-0.331,0.316-0.436,0.801-0.266,1.225c0.17,0.425,0.581,0.703,1.039,0.703h15.448c0.579,0,1.062-0.441,1.114-1.018
			l0.994-10.933c0.002-0.026,0.002-0.051,0.002-0.077l5.155-21.346C102.653,178.924,101.07,176.333,98.496,175.711z"/>
		<path fill="#010101" d="M139.666,212.879l-7.9-7.538c-0.009-0.327-0.052-0.659-0.132-0.99l-6.063-25.104
			c-0.622-2.575-3.213-4.158-5.788-3.536c-2.575,0.622-4.157,3.213-3.536,5.788l5.155,21.346c0.001,0.026,0,0.051,0.002,0.077
			l0.994,10.933c0.052,0.576,0.535,1.018,1.114,1.018h15.448c0.002,0,0.004,0,0.006,0c0.618,0,1.119-0.501,1.119-1.119
			C140.087,213.4,139.922,213.084,139.666,212.879z"/>
		<path fill="#010101" d="M91.646,153.71c-10.303-0.825-19.767,3.749-25.487,11.477c-3.404,3.951-7.215,9.691-7.898,10.731
			c-0.806,1.166-1.281,2.579-1.281,4.105c0,3.996,3.24,7.236,7.236,7.236c3.136,0,5.244-1.433,6.249-4.224
			c0.138-0.383,0.386-0.923,0.598-1.474l0.529,1.15c0.404,0.879,1.272,1.396,2.18,1.396c0.335,0,0.676-0.071,1-0.22
			c1.203-0.553,1.73-1.978,1.176-3.18l-3.393-7.377c-0.031-0.068-0.066-0.132-0.102-0.196c3.516-6.469,10.609-10.488,18.429-9.864
			c2.64,0.212,4.951-1.758,5.162-4.398C96.255,156.232,94.286,153.921,91.646,153.71z"/>
		<path fill="#010101" d="M160.019,175.918c-0.683-1.04-4.494-6.779-7.898-10.73c-5.72-7.728-15.184-12.302-25.488-11.478
			c-2.64,0.211-4.609,2.522-4.398,5.163c0.211,2.64,2.522,4.609,5.162,4.398c7.821-0.624,14.913,3.395,18.429,9.864
			c-0.037,0.063-0.072,0.128-0.103,0.196l-3.393,7.377c-0.553,1.203-0.027,2.627,1.176,3.18c0.325,0.149,0.665,0.22,1.001,0.22
			c0.907,0,1.776-0.518,2.18-1.396l0.529-1.15c0.213,0.551,0.46,1.09,0.598,1.474c1.005,2.791,3.113,4.224,6.249,4.224
			c3.996,0,7.237-3.24,7.237-7.236C161.3,178.498,160.825,177.085,160.019,175.918z"/>
		<path fill="#E35151" d="M108.794,167.456c1.521,2.108,4.879,5.73,9.184,4.184c3.105-1.114,4.598-6.983,4.598-6.983
			s3.826,3.146,10.647,1.479c6.82-1.667,8.576-8.032,8.576-8.032s-1.33,8.847,6.13,7.971c7.409-0.87,4.961-14.55,4.927-14.736
			c0.887,4.903,6.199,9.64,10.076,4.428c2.919-3.926,2.076-10.514,1.608-15.061c0.369,3.596,4.114,9.739,8.39,7.653
			c5.59-2.728,2.823-13.356,1.426-17.64c2.112,6.477,9.637,2.559,11.347-1.822c2.416-6.184-2.029-13.929-5.07-19.133
			c2.766,3.628,8.994,6.855,10.897,0.687c3.367-10.909-4.997-21.094-11.693-28.694c2.887,3.437,15.353,14.484,15.916,3.296
			c0.514-10.253-9.641-17.801-17.992-21.563c2.551,1.075,5.272,2.185,8.066,2.354c7.365,0.444,6.205-6.223,2.616-10.179
			c-3.827-4.218-8.822-7.492-13.911-9.992c1.729,1.662,6.273,4.491,8.7,4.145c4.195-0.598,6.138-8.507,4.123-10.746
			c-5.755-6.394-15.522-4.083-19.182-2.558l1.464-0.4c6.642-1.885,7.772-8.232,5.893-13.215c-3.705-9.83-20.021-5.475-29.179-1.972
			c3.112-1.191,6.756-1.173,8.358-4.707c1.479-3.264-0.38-6.696-3.439-8.16c-7.725-3.696-15.953,3.178-21.954,7.248
			c2.14-1.698,5.882-4.246,6.42-7.137c1.069-5.744-7.826-4.949-10.992-4.186c-5.947,1.434-11.28,5.33-14.774,10.322h-1.666
			c-3.494-4.992-8.827-8.888-14.774-10.322c-3.166-0.764-12.06-1.559-10.992,4.186c0.538,2.891,4.28,5.44,6.42,7.137
			c-6-4.07-14.229-10.943-21.954-7.248c-3.059,1.464-4.919,4.896-3.439,8.16c1.602,3.534,5.246,3.516,8.358,4.707
			c-9.158-3.503-25.474-7.858-29.179,1.972c-1.878,4.983-0.749,11.33,5.893,13.215l1.464,0.4c-3.66-1.525-13.427-3.836-19.182,2.558
			c-2.015,2.239-0.073,10.148,4.123,10.746c2.427,0.347,6.971-2.483,8.7-4.145c-5.088,2.5-10.084,5.774-13.911,9.992
			c-3.589,3.956-4.749,10.622,2.617,10.179c2.794-0.168,5.515-1.279,8.066-2.354C32.165,67.252,22.01,74.8,22.525,85.053
			c0.563,11.189,13.029,0.141,15.916-3.296c-6.696,7.6-15.059,17.786-11.693,28.694c1.904,6.167,8.132,2.94,10.898-0.687
			c-3.041,5.204-7.486,12.949-5.07,19.133c1.712,4.381,9.236,8.298,11.347,1.822c-1.397,4.283-4.164,14.912,1.427,17.64
			c4.276,2.086,8.02-4.057,8.389-7.653c-0.467,4.548-1.311,11.136,1.609,15.061c3.877,5.213,9.189,0.475,10.076-4.428
			c-0.034,0.186-2.482,13.866,4.927,14.736c7.46,0.875,6.13-7.971,6.13-7.971s1.756,6.365,8.576,8.032
			c6.821,1.668,10.647-1.479,10.647-1.479s1.493,5.868,4.598,6.983c4.256,1.527,7.587-1.994,9.132-4.111"/>
		<path fill="#010101" stroke="#FFFFFF" stroke-miterlimit="10" d="M108.794,167.456c1.521,2.108,4.879,5.73,9.184,4.184
			c3.105-1.114,4.598-6.983,4.598-6.983s3.826,3.146,10.647,1.479c6.82-1.667,8.576-8.032,8.576-8.032s-1.33,8.847,6.13,7.971
			c7.409-0.87,4.961-14.55,4.927-14.736c0.887,4.903,6.199,9.64,10.076,4.428c2.919-3.926,2.076-10.514,1.608-15.061
			c0.369,3.596,4.114,9.739,8.39,7.653c5.59-2.728,2.823-13.356,1.426-17.64c2.112,6.477,9.637,2.559,11.347-1.822
			c2.416-6.184-2.029-13.929-5.07-19.133c2.766,3.628,8.994,6.855,10.897,0.687c3.367-10.909-4.997-21.094-11.693-28.694
			c2.887,3.437,15.353,14.484,15.916,3.296c0.514-10.253-9.641-17.801-17.992-21.563c2.551,1.075,5.272,2.185,8.066,2.354
			c7.365,0.444,6.205-6.223,2.616-10.179c-3.827-4.218-8.822-7.492-13.911-9.992c1.729,1.662,6.273,4.491,8.7,4.145
			c4.195-0.598,6.138-8.507,4.123-10.746c-5.755-6.394-15.522-4.083-19.182-2.558l1.464-0.4c6.642-1.885,7.772-8.232,5.893-13.215
			c-3.705-9.83-20.021-5.475-29.179-1.972c3.112-1.191,6.756-1.173,8.358-4.707c1.479-3.264-0.38-6.696-3.439-8.16
			c-7.725-3.696-15.953,3.178-21.954,7.248c2.14-1.698,5.882-4.246,6.42-7.137c1.069-5.744-7.826-4.949-10.992-4.186
			c-5.947,1.434-11.28,5.33-14.774,10.322h-1.666c-3.494-4.992-8.827-8.888-14.774-10.322c-3.166-0.764-12.06-1.559-10.992,4.186
			c0.538,2.891,4.28,5.44,6.42,7.137c-6-4.07-14.229-10.943-21.954-7.248c-3.059,1.464-4.919,4.896-3.439,8.16
			c1.602,3.534,5.246,3.516,8.358,4.707c-9.158-3.503-25.474-7.858-29.179,1.972c-1.878,4.983-0.749,11.33,5.893,13.215l1.464,0.4
			c-3.66-1.525-13.427-3.836-19.182,2.558c-2.015,2.239-0.073,10.148,4.123,10.746c2.427,0.347,6.971-2.483,8.7-4.145
			c-5.088,2.5-10.084,5.774-13.911,9.992c-3.589,3.956-4.749,10.622,2.617,10.179c2.794-0.168,5.515-1.279,8.066-2.354
			C32.165,67.252,22.01,74.8,22.525,85.053c0.563,11.189,13.029,0.141,15.916-3.296c-6.696,7.6-15.059,17.786-11.693,28.694
			c1.904,6.167,8.132,2.94,10.898-0.687c-3.041,5.204-7.486,12.949-5.07,19.133c1.712,4.381,9.236,8.298,11.347,1.822
			c-1.397,4.283-4.164,14.912,1.427,17.64c4.276,2.086,8.02-4.057,8.389-7.653c-0.467,4.548-1.311,11.136,1.609,15.061
			c3.877,5.213,9.189,0.475,10.076-4.428c-0.034,0.186-2.482,13.866,4.927,14.736c7.46,0.875,6.13-7.971,6.13-7.971
			s1.756,6.365,8.576,8.032c6.821,1.668,10.647-1.479,10.647-1.479s1.493,5.868,4.598,6.983c4.256,1.527,7.587-1.994,9.132-4.111"/>
		<path fill="#E35151" d="M172.427,99.296c0,11.949-11.058,21.635-24.698,21.635H71.517c-13.64,0-24.698-9.686-24.698-21.635v-10.03
			c0-11.949,11.058-21.635,24.698-21.635h76.213c13.64,0,24.698,9.686,24.698,21.635V99.296z"/>
		<g>
			<path fill="#FFFFFF" d="M63.808,75.419c1.181,1.22,2.838,1.986,4.654,2.037c0.063,0.002,0.115,0.003,0.163,0.003
				c0.168,0.042,0.334,0.089,0.498,0.141c0.173,0.09,0.346,0.178,0.514,0.276c0.488,0.293,0.959,0.609,1.42,0.942
				c0.265,0.211,0.666,0.526,0.793,0.629c2.345,1.919,4.669,3.757,7.423,5.046c2.939,1.375,5.977,2.326,9.031,3.383
				c0.33,0.114,2.229,0.879,1.597,0.576c0.462,0.21,0.922,0.428,1.364,0.678c0.422,0.239,0.843,0.484,1.249,0.751
				c-0.034,0.012,1.003,0.854,1.17,1.015c1.434,1.386,3.367,2.006,5.232,1.825c0.027,0.456,0.046,0.913,0.046,1.376
				c0,12.448-10.091,22.538-22.538,22.538s-22.538-10.091-22.538-22.538C53.885,86.325,57.821,79.471,63.808,75.419z"/>
			<path fill="#231F20" d="M65.13,72.057c-0.031,0.237-0.049,0.473-0.049,0.706c0,1.514,0.462,2.759,1.227,3.746
				c-6.081,3.51-10.186,10.078-10.186,17.59c0,11.194,9.106,20.3,20.3,20.3s20.3-9.107,20.3-20.3c0-0.945-0.07-1.873-0.196-2.785
				c1.482,0.294,3.065,0.094,4.426-0.669c0.158,1.13,0.246,2.281,0.246,3.454c0,13.661-11.115,24.776-24.776,24.776
				S51.648,107.76,51.648,94.098C51.648,84.503,57.134,76.171,65.13,72.057z"/>
		</g>
		<g>
			<g>
				<path fill="#FFFFFF" d="M154.472,74.537c-1.181,1.22-2.838,1.986-4.654,2.037c-0.063,0.002-0.115,0.003-0.163,0.003
					c-0.168,0.042-0.334,0.089-0.498,0.141c-0.173,0.09-0.346,0.178-0.514,0.276c-0.488,0.293-0.959,0.609-1.42,0.942
					c-0.265,0.211-0.666,0.526-0.793,0.629c-2.345,1.919-4.669,3.757-7.423,5.046c-2.939,1.375-5.977,2.326-9.031,3.383
					c-0.33,0.114-2.229,0.879-1.597,0.576c-0.462,0.21-0.922,0.428-1.364,0.678c-0.422,0.239-0.843,0.484-1.249,0.751
					c0.034,0.012-1.003,0.854-1.17,1.015c-1.434,1.386-3.367,2.006-5.232,1.825c-0.027,0.456-0.046,0.913-0.046,1.376
					c0,12.448,10.091,22.538,22.538,22.538s22.538-10.091,22.538-22.538C164.394,85.443,160.459,78.589,154.472,74.537z"/>
				<path fill="#231F20" d="M153.149,71.175c0.031,0.237,0.049,0.473,0.049,0.706c0,1.514-0.462,2.759-1.227,3.746
					c6.081,3.51,10.186,10.078,10.186,17.59c0,11.194-9.106,20.3-20.3,20.3c-11.194,0-20.3-9.107-20.3-20.3
					c0-0.945,0.07-1.873,0.196-2.785c-1.482,0.294-3.065,0.094-4.426-0.669c-0.158,1.13-0.246,2.281-0.246,3.454
					c0,13.661,11.115,24.776,24.776,24.776c13.661,0,24.776-11.114,24.776-24.776C166.632,83.621,161.146,75.289,153.149,71.175z"/>
			</g>
			<g>
				<path fill="#231F20" d="M82.317,91.705c-1.647-5.292-6.482-8.848-12.03-8.848c-6.946,0-12.597,5.651-12.597,12.597
					c0,6.946,5.651,12.597,12.597,12.597c5.548,0,10.382-3.556,12.03-8.848c0.187-0.6-0.148-1.238-0.748-1.425l-7.458-2.325
					l7.458-2.325C82.169,92.943,82.504,92.305,82.317,91.705z"/>
				<path fill="#231F20" d="M147.002,97.459l-7.458-2.325l7.458-2.325c0.599-0.187,0.935-0.825,0.748-1.425
					c-1.647-5.292-6.482-8.848-12.03-8.848c-6.946,0-12.597,5.651-12.597,12.597c0,6.946,5.651,12.597,12.597,12.597
					c5.548,0,10.382-3.556,12.03-8.848C147.937,98.284,147.601,97.646,147.002,97.459z"/>
			</g>
		</g>
		<g>
			<g>
				<path fill="#231F20" d="M113.832,93.724c-1.229-0.201-2.387,0.632-2.588,1.861c-0.234,1.434-1.67,1.586-2.104,1.599l0.001,0.073
					c-0.001,0-0.002,0-0.002,0l0.001-0.073c-0.434-0.012-1.87-0.165-2.104-1.599c-0.201-1.229-1.36-2.061-2.588-1.861
					c-1.229,0.201-2.061,1.36-1.861,2.588c0.695,4.246,4.566,5.375,6.516,5.379l0-0.075c0.023,0.001,0.045,0.004,0.068,0.004
					c0.001,0,0.003,0,0.004,0v0.072c1.95-0.004,5.822-1.132,6.516-5.379C115.894,95.083,115.061,93.925,113.832,93.724z"/>
			</g>
		</g>
	</g>
	<g>
		<path fill="none" d="M49.366,113.164c-0.287-0.487-0.588-0.965-0.898-1.437c1.4,2.82,3.325,5.398,5.97,7.241
			C52.414,117.441,50.708,115.442,49.366,113.164z"/>
	</g>
	<line fill="none" stroke="#231F20" stroke-width="5" stroke-miterlimit="10" x1="154.196" y1="73.365" x2="118.382" y2="91.938"/>
	<line fill="none" stroke="#231F20" stroke-width="5" stroke-miterlimit="10" x1="64.042" y1="74.065" x2="99.857" y2="92.637"/>
</g>
<g id="Layer_3">
	<path fill="#212123" stroke="#212123" stroke-miterlimit="10" d="M177.764,63.49c0,0-26.144,0.136-29.643,0.136
		S57.69,63.632,57.69,63.632s-13.944-1.75-17.174-0.143s13.12-10.812,19.306-13.463c6.186-2.651,54.459-16.033,87.98-1.944
		C167.986,56.566,177.764,63.49,177.764,63.49z"/>
	<path display="none" fill="#212123" stroke="#212123" stroke-miterlimit="10" d="M43.745,45.672c0,0-7.452,4.269-8.915,5.443
		c-1.464,1.174-5.041,3.718-6.225,6.155c-1.183,2.437-2.39,4.985-1.272,6.362c1.118,1.378,0.512,2.677,4.169,2.228
		s9.015-2.371,9.015-2.371s14.226,0.144,21.179,0.143c6.953-0.001,30.554,0.004,35.86,0c5.306-0.004,80.21-0.143,80.21-0.143
		s7.926,2.288,9.131,2.366c1.46,0.095,3.704-0.167,3.824-1.783c0.145-1.95,0.829-3.966-0.783-6.378
		c-1.439-2.154-8.573-7.837-9.744-8.466c-4.226-2.269-11.432-8.065-19.259-8.882c-11.878-1.24-20.102-0.897-31.675-1.168
		C111.783,38.769,54.856,40.804,43.745,45.672z"/>
	<path fill="#212123" d="M83.353,177.766"/>
</g>
</svg>
