<?xml version="1.0" encoding="utf-8"?>
<!-- Generator: Adobe Illustrator 18.1.0, SVG Export Plug-In . SVG Version: 6.00 Build 0)  -->
<svg version="1.1" id="Layer_1" xmlns="http://www.w3.org/2000/svg" xmlns:xlink="http://www.w3.org/1999/xlink" x="0px" y="0px"
	 viewBox="111 -24.9 834.1 841.9" enable-background="new 111 -24.9 834.1 841.9" xml:space="preserve">
<filter  x="-0.43231264" y="-0.2741496" width="1.8646253" id="filter5946" height="1.5482992" color-interpolation-filters="sRGB">
	<feGaussianBlur  id="feGaussianBlur5948" stdDeviation="2.3654689"></feGaussianBlur>
</filter>
<filter  x="-0.30383629" y="-0.5796243" width="1.6076726" id="filter5326-5" height="2.1592486" color-interpolation-filters="sRGB">
	<feGaussianBlur  id="feGaussianBlur5328-1" stdDeviation="0.51995757"></feGaussianBlur>
</filter>
<filter  x="-0.30383629" y="-0.5796243" width="1.6076726" id="filter5326" height="2.1592486" color-interpolation-filters="sRGB">
	<feGaussianBlur  id="feGaussianBlur5328" stdDeviation="0.51995757"></feGaussianBlur>
</filter>
<filter  x="-0.19194812" y="-0.35189104" width="1.3838962" id="filter5182" height="1.7037821" color-interpolation-filters="sRGB">
	<feGaussianBlur  id="feGaussianBlur5184" stdDeviation="5.4803274"></feGaussianBlur>
</filter>
<filter  x="-0.13931777" y="-0.14900789" width="1.2786355" id="filter5081-3" height="1.2980158" color-interpolation-filters="sRGB">
	<feGaussianBlur  id="feGaussianBlur5083-1" stdDeviation="4.0338011"></feGaussianBlur>
</filter>
<filter  x="-0.13931777" y="-0.14900789" width="1.2786355" id="filter5081" height="1.2980158" color-interpolation-filters="sRGB">
	<feGaussianBlur  id="feGaussianBlur5083" stdDeviation="4.0338011"></feGaussianBlur>
</filter>
<filter  x="-0.28099522" y="-0.16310172" width="1.5619904" id="filter5015" height="1.3262033" color-interpolation-filters="sRGB">
	<feGaussianBlur  id="feGaussianBlur5017" stdDeviation="4.8352768"></feGaussianBlur>
</filter>
<filter  x="-0.14015472" y="-0.087846085" width="1.2803094" id="filter4826" height="1.1756922" color-interpolation-filters="sRGB">
	<feGaussianBlur  id="feGaussianBlur4828" stdDeviation="5.8322339"></feGaussianBlur>
</filter>
<filter  x="-0.060504407" y="-0.13732864" width="1.1210088" id="filter4716" height="1.2746572" color-interpolation-filters="sRGB">
	<feGaussianBlur  id="feGaussianBlur4718" stdDeviation="1.8302533"></feGaussianBlur>
</filter>
<filter  x="-0.079088919" y="-0.17235126" width="1.1581779" id="filter4606" height="1.3447025" color-interpolation-filters="sRGB">
	<feGaussianBlur  id="feGaussianBlur4608" stdDeviation="2.1962086"></feGaussianBlur>
</filter>
<filter  x="-0.080543831" y="-0.16569135" width="1.1610878" id="filter4570" height="1.3313828" color-interpolation-filters="sRGB">
	<feGaussianBlur  id="feGaussianBlur4572" stdDeviation="2.2300756"></feGaussianBlur>
</filter>
<filter  x="-0.078345791" y="-0.17377429" width="1.1566916" id="filter4426" height="1.3475486" color-interpolation-filters="sRGB">
	<feGaussianBlur  id="feGaussianBlur4428" stdDeviation="2.2410256"></feGaussianBlur>
</filter>
<filter  x="-0.07866995" y="-0.17220049" width="1.1573399" id="filter4338" height="1.344401" color-interpolation-filters="sRGB">
	<feGaussianBlur  id="feGaussianBlur4340" stdDeviation="2.2207295"></feGaussianBlur>
</filter>
<filter  id="filter3981-0" color-interpolation-filters="sRGB">
	<feGaussianBlur  id="feGaussianBlur3983-4" stdDeviation="0.23768265"></feGaussianBlur>
</filter>
<filter  id="filter3981" color-interpolation-filters="sRGB">
	<feGaussianBlur  id="feGaussianBlur3983" stdDeviation="0.23768265"></feGaussianBlur>
</filter>
<filter  x="-0.17943262" y="-0.19204848" width="1.3588651" id="filter3973" height="1.3840969" color-interpolation-filters="sRGB">
	<feGaussianBlur  id="feGaussianBlur3975" stdDeviation="1.8011586"></feGaussianBlur>
</filter>
<g>

		<g id="path5888" opacity="0.3633" filter="url(#filter5946)" enable-background="new    ">

			<radialGradient id="SVGID_1_" cx="1069.0709" cy="-2287.0022" r="335.1651" gradientTransform="matrix(0.2009 2.187431e-02 2.620468e-02 -0.1557 375.1118 337.6195)" gradientUnits="userSpaceOnUse">
			<stop  offset="0" style="stop-color:#000000"/>
			<stop  offset="1" style="stop-color:#000000;stop-opacity:0"/>
		</radialGradient>
		<ellipse fill="url(#SVGID_1_)" cx="527.9" cy="714.4" rx="19.8" ry="25.3"/>
	</g>
	<g id="g3919">
		<g id="g3909">
			<g id="g5194" transform="translate(37.5978,47.84267)">
				<path id="path4083" fill="#FF7F2A" d="M361.5,622.1
					c-22.3,15.5-29.6,30.1-38.3,46.2c-14.2,26.4,1.5,30.4,47.3,29.3c23.8,33.2,37.6,28.3,59.7,4.5c30.4,18.5,51.5,20.9,49.6-11.3
					c0.7-22.3-14.7-43.4-34.9-64.2L361.5,622.1z"/>

					<g id="path4083-94" opacity="0.6167" filter="url(#filter4338)" enable-background="new    ">
					<path fill="#FFFFFF" d="M376.8,678.7c-73.3,9.6-29.3-32.3-28.9-40.9c-2.9,0.1-7.1,11.4-10.8,18.2c-12,22.2-5.6,30.2,39.7,24.6
						c20,27.8,31.6,23.7,50.1,3.8c25.3,15.1,44.2,17.9,41.6-9.5c-0.7-4.4-2-7.5-3.1-9.7c-0.2,18.2,3,41.4-38.7,17.3
						C411.2,696.2,393.6,702.6,376.8,678.7L376.8,678.7z"/>
				</g>

					<g id="path4083-94-66" opacity="0.6167" filter="url(#filter4606)" enable-background="new    ">
					<path d="M373.9,689.6c-43.4,6.7-40.3,2.6-49.8-1.5c-9.9-6.3,13.5-36.1,14.3-40.9c-3.3,0.2-8.8,13-13.1,20.6
						c-13.3,24.6-5.8,31.8,45.1,27c23.1,31.6,36.6,26.9,58,4.3c29.3,17.2,49.7,21.7,46.8-9.3c-0.8-5-0.9-9.9-2.2-12.4
						c-0.1,10.3,1.9,25.2-3.3,30.9c-5.1,5.7-17.4-1.9-41.6-15.5c-9,7.8-17.4,22.5-27.2,22.8C391.3,716,383.6,703.1,373.9,689.6
						L373.9,689.6z"/>
				</g>
			</g>
			<g id="g5199" transform="translate(38.314804,47.800896)">
				<path id="path4083-9" fill="#FF7F2A" d="M619,622.1
					c22.3,15.5,29.6,30.1,38.3,46.2c14.2,26.4-1.5,30.4-47.3,29.3c-23.8,33.2-37.6,28.3-59.7,4.5c-30.4,18.5-51.5,20.9-49.6-11.3
					c-0.7-22.3,14.7-43.4,34.9-64.2L619,622.1z"/>

					<g id="path4083-94-6" opacity="0.6167" filter="url(#filter4426)" enable-background="new    ">
					<path fill="#FFFFFF" d="M603.1,678.7c73.3,9.6,29.3-32.3,28.9-40.9c2.9,0.1,7.1,11.4,10.8,18.2c15.4,25.6,7.4,31.9-39.7,24.6
						c-20,27.8-31.6,23.7-50.1,3.8c-25.3,15.1-44.2,17.9-41.6-9.5c0.7-4.4,2-7.5,3.1-9.7C513,684,508,708,553.2,682.4
						C568.7,696.1,586.3,702.6,603.1,678.7L603.1,678.7z"/>
				</g>

					<g id="path4083-94-66-1" opacity="0.6167" filter="url(#filter4570)" enable-background="new    ">
					<path d="M606.5,689.5c43.4,6.7,40.3,2.6,49.8-1.5c9.9-6.3-15.4-40-16.3-44.8c3.3,0.2,10.2,16.1,14.5,23.7
						c13.3,24.6,6.3,32.6-44.6,27.9c-23.1,31.6-36.6,26.9-58,4.3c-29.3,17.2-49.7,21.4-46.8-9.6c0.8-5,0.9-9.6,2.2-12.1
						c0.1,10.3-1.9,25.2,3.3,30.9c5.1,5.7,17.4-1.9,41.6-15.5c9,7.8,17.4,22.5,27.2,22.8C589.1,715.9,596.8,703.1,606.5,689.5z"/>
				</g>
			</g>
		</g>
		<g id="g5217" transform="translate(39.5978,51.84267)">
			<g id="g5209">
				<g id="g3843">
					<path id="path3009-1" d="M488.4,31.5
						c-83.9-0.1-142.7,53.2-157.9,91.4c-37.3,68.3-3.9,131.5-11,149.5c-15.4,46.9-17.4,41.5-87.3,129.1
						c-43.3,55.2-99,41.2-83.6,79.7c1.8,10.2,88.3,44.6,132,6.9c0.9,54.2,17.7,116.2,43.4,140.5c25.8,32.3,102.3,44.1,164.9,27.7
						c51,13.2,121.5,12.3,163.8-27.7c25.7-24.3,42.5-86.3,43.4-140.5c43.7,37.7,130.2,3.3,132-6.9c15.4-38.5-40.2-24.5-83.6-79.7
						c-69.9-87.6-71.9-82.2-87.3-129.1c-7.1-18,26.3-81.2-11-149.5C631.1,84.7,567.2,31.4,488.4,31.5z"/>
					<path id="path2985" fill="#FFFFFF" d="M430,124.1c-51,0-92.3,41.3-92.3,92.3
						c0,25.7,10.6,49,27.6,65.7c-27.3,37.5-43.9,87.4-43.9,142.2c0,116.3,74.8,210.6,167.1,210.6c92.3,0,167.1-94.3,167.1-210.6
						c0-54.8-16.6-104.8-43.9-142.2c17-16.7,27.6-40,27.6-65.7c0-51-41.3-92.3-92.3-92.3c-22.2,0-42.6,7.8-58.5,20.9
						C472.5,131.9,452.2,124.1,430,124.1L430,124.1z"/>
				</g>

					<g id="path5019" opacity="0.6033" filter="url(#filter5081)" enable-background="new    ">
					<path fill="#B6C7EA" d="M304.1,324.6c-21.4,28.8-37.2,58.3-52.3,74.6c-47.4,48.3-116.3,75.1-100.3,69.6
						C243.1,444.6,298.3,360.8,304.1,324.6L304.1,324.6z"/>
					<path fill="none" stroke="#000000" d="M304.1,324.6c-21.4,28.8-37.2,58.3-52.3,74.6c-47.4,48.3-116.3,75.1-100.3,69.6
						C243.1,444.6,298.3,360.8,304.1,324.6L304.1,324.6z"/>
				</g>

					<g id="path5019-7" opacity="0.6033" filter="url(#filter5081-3)" enable-background="new    ">
					<path fill="#B6C7EA" d="M667.4,324.6c21.4,28.8,37.2,58.3,52.3,74.6c47.4,48.3,116.3,75.1,100.3,69.6
						C728.4,444.6,673.3,360.8,667.4,324.6L667.4,324.6z"/>
					<path fill="none" stroke="#000000" d="M667.4,324.6c21.4,28.8,37.2,58.3,52.3,74.6c47.4,48.3,116.3,75.1,100.3,69.6
						C728.4,444.6,673.3,360.8,667.4,324.6L667.4,324.6z"/>
				</g>

					<g id="path5109" opacity="0.3" filter="url(#filter5182)" enable-background="new    ">

						<linearGradient id="SVGID_2_" gradientUnits="userSpaceOnUse" x1="690.186" y1="528.4531" x2="641.0607" y2="466.3307" gradientTransform="matrix(1 0 0 -1 -120.5213 586.4884)">
						<stop  offset="0" style="stop-color:#B6C7EA"/>
						<stop  offset="1" style="stop-color:#B6C7EA;stop-opacity:0"/>
					</linearGradient>
					<path fill="url(#SVGID_2_)" d="M477.4,37.4c-8.1,18,17.9,31.4,48.3,55.5c54.6,7.7,71.9,15.9,103,27.9
						C631,103.1,558.3,40,477.4,37.4z"/>
					<path fill="none" stroke="#000000" d="M477.4,37.4c-8.1,18,17.9,31.4,48.3,55.5c54.6,7.7,71.9,15.9,103,27.9
						C631,103.1,558.3,40,477.4,37.4z"/>
				</g>
			</g>

				<g id="path4728" opacity="0.27" filter="url(#filter4826)" enable-background="new    ">
				<path d="M361,287.2C287,395.9,340.2,584,524.8,636c-34.7,25-174.7-23.2-209.6-110.1C286.6,461.5,305.8,373.7,361,287.2
					L361,287.2z"/>
			</g>

				<g id="path4830" opacity="0.27" filter="url(#filter5015)" enable-background="new    ">
				<path d="M430.3,128.1C330.6,92.8,311.8,285.5,374,282.4C351.6,280.4,325.2,149.8,430.3,128.1z"/>
			</g>
		</g>
		<g id="g3901">
			<g id="g3897">
				<g id="path3865-9" filter="url(#filter3981-0)">

						<radialGradient id="SVGID_3_" cx="774.4078" cy="580.9064" r="24.7795" gradientTransform="matrix(3.5387 -3.120061e-02 -2.725215e-02 -3.0909 -2135.4216 2072.8254)" gradientUnits="userSpaceOnUse">
						<stop  offset="0" style="stop-color:#FFFFFF"/>
						<stop  offset="1" style="stop-color:#979797"/>
					</radialGradient>
					<ellipse fill="url(#SVGID_3_)" cx="589.2" cy="253.1" rx="29.7" ry="34.9"/>
				</g>

					<radialGradient id="path3865-3-9_1_" cx="720.9561" cy="242.8762" r="24.7795" gradientTransform="matrix(0.2266 -0.1045 -0.1886 -0.4089 481.438 425.0485)" gradientUnits="userSpaceOnUse">
					<stop  offset="0" style="stop-color:#FFFFFF"/>
					<stop  offset="1" style="stop-color:#000000"/>
				</radialGradient>
				<path id="path3865-3-9" fill="url(#path3865-3-9_1_)" d="M611.2,260.5
					c0,14-9.6,25.3-21.5,25.3c-11.9,0-21.5-11.3-21.5-25.3s9.6-25.3,21.5-25.3C601.5,235.1,611.2,246.5,611.2,260.5L611.2,260.5z"/>
			</g>
			<g id="g3838">
				<g id="path3865" filter="url(#filter3981)">

						<radialGradient id="SVGID_4_" cx="755.3495" cy="581.0988" r="24.7795" gradientTransform="matrix(3.5387 -3.120061e-02 -2.725215e-02 -3.0909 -2190.2551 2072.8254)" gradientUnits="userSpaceOnUse">
						<stop  offset="0" style="stop-color:#FFFFFF"/>
						<stop  offset="1" style="stop-color:#979797"/>
					</radialGradient>
					<ellipse fill="url(#SVGID_4_)" cx="466.9" cy="253.1" rx="29.7" ry="34.9"/>
				</g>

					<radialGradient id="path3865-3_1_" cx="475.5689" cy="305.6164" r="24.7795" gradientTransform="matrix(0.2266 -0.1045 -0.1886 -0.4089 426.6044 425.0485)" gradientUnits="userSpaceOnUse">
					<stop  offset="0" style="stop-color:#FFFFFF"/>
					<stop  offset="1" style="stop-color:#000000"/>
				</radialGradient>
				<path id="path3865-3" fill="url(#path3865-3_1_)" d="M488.9,260.5c0,14-9.6,25.3-21.5,25.3
					c-11.9,0-21.5-11.3-21.5-25.3s9.6-25.3,21.5-25.3C479.3,235.1,488.9,246.5,488.9,260.5L488.9,260.5z"/>
			</g>
		</g>
		<g id="g5204" transform="translate(39.5978,51.84267)">
			<path id="path3841" fill="#FF7F2A" d="M409.1,251.1
				c-26.7,24.7,52.8,74.2,79.6,74.1c25.3,2.3,110.5-49.4,76.5-74.1C557.8,239,417.5,239.6,409.1,251.1z"/>

				<g id="path3915" opacity="0.7467" filter="url(#filter3973)" enable-background="new    ">
				<path fill="#FFFFFF" d="M546.3,260.4c11.7-3.9,17.2-4.2,16.9,1.1c3.3,12-31.1,35.5-53.5,46.2C511.9,292,557.6,274.5,546.3,260.4
					z"/>
			</g>

				<g id="path3841-6" opacity="0.2667" filter="url(#filter4716)" enable-background="new    ">

					<radialGradient id="SVGID_5_" cx="550.619" cy="879.6174" r="90.7459" gradientTransform="matrix(-0.9209 -1.555024e-02 -9.769240e-03 0.5785 1003.5285 -228.2975)" gradientUnits="userSpaceOnUse">
					<stop  offset="0" style="stop-color:#FFFFFF;stop-opacity:0"/>
					<stop  offset="1" style="stop-color:#000000"/>
				</radialGradient>
				<path fill="url(#SVGID_5_)" d="M413.1,251.9c-9.9,5.8-2.9,27.5,19,44.6c19.1,14.9,44.7,26.7,57.6,26.7
					c12.2,1.1,38.7-10.7,58.2-25.9s28-35.7,15.4-45.4c10,14.3,3.7,23-7.2,34.1c-10.6,10.9-29.9,24.4-47.7,27.6
					c-17.8,3.1-33.8,0.5-51-8.9C439.9,295.2,404.5,266,413.1,251.9L413.1,251.9z"/>
			</g>
		</g>
	</g>

		<g id="path5308" opacity="0.4633" filter="url(#filter5326)" enable-background="new    ">
		<path fill="#513A17" d="M504.4,306.5c0.7,4.9,1.6,6.1,4.9,5.9c5-1.5,4.3-2.9,6.4-4.4C509.3,309.6,507.6,308,504.4,306.5
			L504.4,306.5z"/>
	</g>

		<g id="path5308-4" opacity="0.4633" filter="url(#filter5326-5)" enable-background="new    ">
		<path fill="#513A17" d="M550.5,306.3c-0.7,4.9-1.6,6.1-4.9,5.9c-5-1.5-4.3-2.9-6.4-4.4C545.6,309.5,547.3,307.9,550.5,306.3
			L550.5,306.3z"/>
	</g>
	<g>
		<path fill="#E44F50" d="M525,402.8c3.5,4.9,11.3,13.3,21.3,9.7c7.2-2.6,10.6-16.2,10.6-16.2s8.9,7.3,24.7,3.4
			c15.8-3.9,19.9-18.6,19.9-18.6s-3.1,20.5,14.2,18.5c17.2-2,11.5-33.7,11.4-34.1c2.1,11.4,14.4,22.3,23.3,10.3
			c6.8-9.1,4.8-24.3,3.7-34.9c0.9,8.3,9.5,22.5,19.4,17.7c12.9-6.3,6.5-30.9,3.3-40.8c4.9,15,22.3,5.9,26.3-4.2
			c5.6-14.3-4.7-32.3-11.7-44.3c6.4,8.4,20.8,15.9,25.2,1.6c7.8-25.3-11.6-48.8-27.1-66.4c6.7,8,35.5,33.5,36.9,7.6
			c1.2-23.7-22.3-41.2-41.7-49.9c5.9,2.5,12.2,5.1,18.7,5.4c17.1,1,14.4-14.4,6.1-23.6c-8.9-9.8-20.4-17.3-32.2-23.1
			c4,3.8,14.5,10.4,20.1,9.6c9.7-1.4,14.2-19.7,9.5-24.9c-13.3-14.8-35.9-9.5-44.4-5.9l3.4-0.9c15.4-4.4,18-19.1,13.6-30.6
			c-8.6-22.8-46.4-12.7-67.6-4.6c7.2-2.8,15.6-2.7,19.4-10.9c3.4-7.6-0.9-15.5-8-18.9c-17.9-8.6-36.9,7.4-50.8,16.8
			c5-3.9,13.6-9.8,14.9-16.5c2.5-13.3-18.1-11.5-25.4-9.7c-13.8,3.3-26.1,12.3-34.2,23.9h-3.9c-8.1-11.6-20.4-20.6-34.2-23.9
			c-7.3-1.8-27.9-3.6-25.4,9.7c1.2,6.7,9.9,12.6,14.9,16.5c-13.9-9.4-32.9-25.3-50.8-16.8c-7.1,3.4-11.4,11.3-8,18.9
			c3.7,8.2,12.1,8.1,19.4,10.9c-21.2-8.1-59-18.2-67.6,4.6c-4.3,11.5-1.7,26.2,13.6,30.6l3.4,0.9c-8.5-3.5-31.1-8.9-44.4,5.9
			c-4.7,5.2-0.2,23.5,9.5,24.9c5.6,0.8,16.1-5.7,20.1-9.6c-11.8,5.8-23.3,13.4-32.2,23.1c-8.3,9.2-11,24.6,6.1,23.6
			c6.5-0.4,12.8-3,18.7-5.4c-19.3,8.7-42.8,26.2-41.7,49.9c1.3,25.9,30.2,0.3,36.9-7.6c-15.5,17.6-34.9,41.2-27.1,66.4
			c4.4,14.3,18.8,6.8,25.2-1.6c-7,12-17.3,30-11.7,44.3c4,10.1,21.4,19.2,26.3,4.2c-3.2,9.9-9.6,34.5,3.3,40.8
			c9.9,4.8,18.6-9.4,19.4-17.7c-1.1,10.5-3,25.8,3.7,34.9c9,12.1,21.3,1.1,23.3-10.3c-0.1,0.4-5.7,32.1,11.4,34.1
			c17.3,2,14.2-18.5,14.2-18.5s4.1,14.7,19.9,18.6c15.8,3.9,24.7-3.4,24.7-3.4s3.5,13.6,10.6,16.2c9.9,3.5,17.6-4.6,21.1-9.5"/>
		<g>
			<g>
				<circle fill="#FFFFFF" cx="450" cy="230.9" r="52.2"/>
				<path fill="#231F20" d="M450,288.3c-31.6,0-57.4-25.7-57.4-57.4s25.7-57.4,57.4-57.4s57.4,25.7,57.4,57.4S481.7,288.3,450,288.3
					z M450,183.9c-25.9,0-47,21.1-47,47s21.1,47,47,47s47-21.1,47-47S475.9,183.9,450,183.9z"/>
			</g>
			<g>
				<circle fill="#FFFFFF" cx="601.5" cy="230.9" r="52.2"/>
				<path fill="#231F20" d="M601.5,288.3c-31.6,0-57.4-25.7-57.4-57.4s25.7-57.4,57.4-57.4c31.6,0,57.4,25.7,57.4,57.4
					S633.2,288.3,601.5,288.3z M601.5,183.9c-25.9,0-47,21.1-47,47s21.1,47,47,47s47-21.1,47-47S627.4,183.9,601.5,183.9z"/>
			</g>
			<g>
				<path fill="#231F20" d="M478.5,222.2c-3.8-12.3-15-20.5-27.9-20.5c-16.1,0-29.2,13.1-29.2,29.2c0,16.1,13.1,29.2,29.2,29.2
					c12.8,0,24-8.2,27.9-20.5c0.4-1.4-0.3-2.9-1.7-3.3l-17.3-5.4l17.3-5.4C478.1,225.1,478.9,223.6,478.5,222.2z"/>
				<path fill="#231F20" d="M628.2,236.3l-17.3-5.4l17.3-5.4c1.4-0.4,2.2-1.9,1.7-3.3c-3.8-12.3-15-20.5-27.9-20.5
					c-16.1,0-29.2,13.1-29.2,29.2c0,16.1,13.1,29.2,29.2,29.2c12.8,0,24-8.2,27.9-20.5C630.4,238.2,629.6,236.7,628.2,236.3z"/>
			</g>
		</g>
		<g>
			<g>
				<path fill="#231F20" d="M536.6,232.1c-2.8-0.5-5.5,1.5-6,4.3c-0.5,3.3-3.9,3.7-4.9,3.7l0,0.2c0,0,0,0,0,0l0-0.2
					c-1,0-4.3-0.4-4.9-3.7c-0.5-2.8-3.1-4.8-6-4.3c-2.8,0.5-4.8,3.1-4.3,6c1.6,9.8,10.6,12.4,15.1,12.5l0-0.2c0.1,0,0.1,0,0.2,0
					c0,0,0,0,0,0v0.2c4.5,0,13.5-2.6,15.1-12.5C541.4,235.2,539.5,232.6,536.6,232.1z"/>
			</g>
		</g>
	</g>
</g>
</svg>
