<?xml version="1.0" encoding="utf-8"?>
<!-- Generator: Adobe Illustrator 16.0.0, SVG Export Plug-In . SVG Version: 6.00 Build 0)  -->
<!DOCTYPE svg PUBLIC "-//W3C//DTD SVG 1.1//EN" "http://www.w3.org/Graphics/SVG/1.1/DTD/svg11.dtd">
<svg version="1.1" id="Layer_1" xmlns="http://www.w3.org/2000/svg" xmlns:xlink="http://www.w3.org/1999/xlink" x="0px" y="0px"
	 width="1000px" height="1000px" viewBox="0 0 1000 1000" enable-background="new 0 0 1000 1000" xml:space="preserve">
<g>
	<circle fill="#DEE3C1" cx="504.347" cy="674.195" r="70.744"/>
	<g>
		
			<line fill="none" stroke="#BE4243" stroke-width="30" stroke-linecap="round" stroke-linejoin="round" stroke-miterlimit="10" x1="469.229" y1="725.764" x2="450.265" y2="804.287"/>
		
			<polygon fill="#BE4243" stroke="#BE4243" stroke-width="7" stroke-linecap="round" stroke-linejoin="round" stroke-miterlimit="10" points="
			438.477,805.641 412.763,830.176 461.084,830.176 464.192,795.979 		"/>
	</g>
	<g>
		
			<line fill="none" stroke="#BE4243" stroke-width="30" stroke-linecap="round" stroke-linejoin="round" stroke-miterlimit="10" x1="542.858" y1="725.764" x2="561.822" y2="804.287"/>
		
			<polygon fill="#BE4243" stroke="#BE4243" stroke-width="7" stroke-linecap="round" stroke-linejoin="round" stroke-miterlimit="10" points="
			573.61,805.641 599.324,830.176 551.003,830.176 547.895,795.979 		"/>
	</g>
	<g>
		<path fill="none" stroke="#BE4243" stroke-width="30" stroke-linecap="round" stroke-linejoin="round" stroke-miterlimit="10" d="
			M442.5,657.316c-38.89-3.108-73.351,23.162-79.988,61.64"/>
		
			<line fill="#E35050" stroke="#BE4243" stroke-width="15" stroke-linecap="round" stroke-linejoin="round" stroke-miterlimit="10" x1="377.168" y1="706.87" x2="387.782" y2="729.943"/>
		<path fill="#BE4243" d="M369.716,705.393l1.598-10.975c0,0,12.941-35.293,0.344-24.159
			c-11.643,10.288-29.709,37.492-32.389,41.571c-2.521,3.649-4.006,8.068-4.006,12.84c0,12.5,10.135,22.634,22.635,22.634
			c9.81,0,16.403-4.483,19.545-13.212c0.861-2.394,3.089-6.732,3.089-9.422C380.531,716.508,376.194,709.375,369.716,705.393z"/>
	</g>
	<g>
		<path fill="none" stroke="#BE4243" stroke-width="30" stroke-linecap="round" stroke-linejoin="round" stroke-miterlimit="10" d="
			M617.136,636.61c-0.638,39.008,27.763,71.736,66.583,75.922"/>
		
			<line fill="#E35050" stroke="#BE4243" stroke-width="15" stroke-linecap="round" stroke-linejoin="round" stroke-miterlimit="10" x1="670.729" y1="698.673" x2="693.084" y2="686.617"/>
		<path fill="#BE4243" d="M669.727,706.202l-11.054-0.899c0,0-36.042-10.679-24.133,1.188c11.005,10.967,39.3,27.274,43.54,29.69
			c3.803,2.283,8.307,3.488,13.068,3.186c12.475-0.793,21.946-11.551,21.153-24.025c-0.622-9.789-5.513-16.086-14.423-18.668
			c-2.443-0.709-6.915-2.656-9.599-2.486C680.135,694.704,673.29,699.483,669.727,706.202z"/>
	</g>
	<path fill="#E35050" d="M498.819,682.812c4.759,6.594,15.261,17.922,28.728,13.088c9.712-3.486,14.381-21.842,14.381-21.842
		s11.969,9.842,33.303,4.626s26.827-25.123,26.827-25.123s-4.161,27.672,19.173,24.933c23.175-2.721,15.518-45.512,15.412-46.093
		c2.773,15.335,19.392,30.153,31.518,13.849c9.132-12.279,6.491-32.887,5.032-47.11c1.154,11.248,12.867,30.463,26.241,23.937
		c17.487-8.533,8.83-41.776,4.462-55.176c6.605,20.259,30.141,8.004,35.494-5.699c7.556-19.341-6.347-43.567-15.858-59.846
		c8.651,11.348,28.133,21.441,34.087,2.15c10.531-34.122-15.629-65.981-36.575-89.753c9.029,10.749,48.024,45.306,49.785,10.309
		c1.608-32.071-30.156-55.681-56.276-67.448c7.978,3.361,16.489,6.835,25.229,7.361c23.039,1.389,19.412-19.463,8.185-31.838
		c-11.969-13.191-27.595-23.434-43.513-31.254c5.409,5.197,19.623,14.049,27.215,12.965c13.122-1.873,19.197-26.611,12.896-33.614
		c-18-20-48.553-12.77-60-8l4.578-1.253c20.775-5.895,24.309-25.747,18.434-41.333c-11.59-30.747-62.624-17.126-91.271-6.167
		c9.734-3.724,21.133-3.67,26.142-14.722c4.628-10.209-1.188-20.946-10.757-25.524c-24.162-11.56-49.902,9.939-68.67,22.67
		c6.694-5.31,18.398-13.282,20.082-22.324c3.343-17.968-24.48-15.48-34.381-13.092c-18.602,4.486-35.283,16.672-46.213,32.287
		h-5.212c-10.931-15.615-27.612-27.801-46.214-32.287c-9.901-2.389-37.723-4.876-34.381,13.092
		c1.684,9.042,13.387,17.015,20.083,22.324c-18.769-12.73-44.507-34.229-68.67-22.67c-9.568,4.578-15.385,15.315-10.758,25.524
		c5.009,11.052,16.408,10.998,26.142,14.722c-28.646-10.959-79.68-24.58-91.271,6.167c-5.876,15.586-2.342,35.438,18.434,41.333
		l4.578,1.253c-11.447-4.77-42-12-60,8c-6.304,7.003-0.227,31.741,12.896,33.614c7.593,1.084,21.807-7.768,27.214-12.965
		c-15.917,7.82-31.542,18.062-43.513,31.254c-11.225,12.375-14.852,33.227,8.186,31.838c8.739-0.526,17.251-4,25.229-7.361
		c-26.119,11.768-57.886,35.377-56.274,67.448c1.761,34.997,40.754,0.44,49.783-10.309c-20.945,23.772-47.104,55.632-36.575,89.753
		c5.956,19.291,25.436,9.197,34.088-2.15c-9.512,16.278-23.415,40.505-15.858,59.846c5.354,13.703,28.888,25.958,35.494,5.699
		c-4.37,13.399-13.025,46.643,4.462,55.176c13.374,6.526,25.087-12.688,26.242-23.937c-1.461,14.224-4.101,34.831,5.031,47.11
		c12.125,16.305,28.744,1.486,31.518-13.849c-0.105,0.581-7.763,43.372,15.412,46.093c23.332,2.739,19.173-24.933,19.173-24.933
		s5.491,19.907,26.825,25.123s33.304-4.626,33.304-4.626s4.67,18.355,14.38,21.842c13.314,4.778,23.732-6.236,28.564-12.859"/>
	<g>
		<g>
			
				<path fill="#FFFFFF" stroke="#231F20" stroke-width="14" stroke-linecap="round" stroke-linejoin="round" stroke-miterlimit="10" d="
				M486.636,458.847c0,0,1.902,11.5,12.938,11.5"/>
			
				<path fill="#FFFFFF" stroke="#231F20" stroke-width="14" stroke-linecap="round" stroke-linejoin="round" stroke-miterlimit="10" d="
				M512.511,458.847c0,0-1.902,11.5-12.938,11.5"/>
		</g>
		<g>
			
				<circle fill="#FFFFFF" stroke="#231F20" stroke-width="14" stroke-linecap="round" stroke-linejoin="round" stroke-miterlimit="10" cx="397.566" cy="450.597" r="70.497"/>
			<g>
				<path fill="#231F20" d="M398.374,450.597l34.229-10.668c-4.541-14.587-18.148-25.176-34.229-25.176
					c-19.797,0-35.844,16.047-35.844,35.844s16.047,35.844,35.844,35.844c16.08,0,29.688-10.589,34.229-25.176L398.374,450.597z"/>
				<path fill="#231F20" d="M398.374,490c-21.727,0-39.404-17.677-39.404-39.403s17.678-39.403,39.404-39.403
					c17.352,0,32.475,11.122,37.627,27.677c0.586,1.877-0.463,3.871-2.338,4.456l-23.328,7.271l23.328,7.271
					c1.875,0.585,2.924,2.579,2.338,4.456C430.849,478.878,415.726,490,398.374,490z M398.374,418.312
					c-17.803,0-32.287,14.483-32.287,32.285s14.484,32.285,32.287,32.285c13.016,0,24.5-7.637,29.59-19.335l-30.648-9.552
					c-1.488-0.464-2.5-1.841-2.5-3.398s1.012-2.935,2.5-3.398l30.648-9.552C422.874,425.949,411.39,418.312,398.374,418.312z"/>
			</g>
			
				<circle fill="#FFFFFF" stroke="#231F20" stroke-width="14" stroke-linecap="round" stroke-linejoin="round" stroke-miterlimit="10" cx="602.235" cy="450.597" r="70.498"/>
			<g>
				<path fill="#231F20" d="M603.042,450.597l34.23-10.668c-4.541-14.587-18.148-25.176-34.23-25.176
					c-19.795,0-35.844,16.047-35.844,35.844s16.049,35.844,35.844,35.844c16.082,0,29.689-10.589,34.23-25.176L603.042,450.597z"/>
				<path fill="#231F20" d="M603.042,490c-21.727,0-39.402-17.677-39.402-39.403s17.676-39.403,39.402-39.403
					c17.354,0,32.475,11.122,37.629,27.677c0.584,1.877-0.465,3.871-2.34,4.456l-23.328,7.271l23.328,7.271
					c1.875,0.585,2.924,2.579,2.34,4.456C635.517,478.878,620.396,490,603.042,490z M603.042,418.312
					c-17.803,0-32.285,14.483-32.285,32.285s14.482,32.285,32.285,32.285c13.018,0,24.502-7.637,29.59-19.335l-30.648-9.552
					c-1.486-0.464-2.5-1.841-2.5-3.398s1.014-2.935,2.5-3.398l30.648-9.552C627.544,425.949,616.06,418.312,603.042,418.312z"/>
			</g>
		</g>
	</g>
	
		<polygon fill="#DEE3C1" stroke="#DEE3C1" stroke-width="30" stroke-linecap="round" stroke-linejoin="round" stroke-miterlimit="10" points="
		506.042,757.541 428.15,757.541 450.265,711.541 559.689,711.541 581.804,757.541 503.912,757.541 	"/>
	
		<line fill="none" stroke="#A97D51" stroke-width="14" stroke-linecap="round" stroke-linejoin="round" stroke-miterlimit="10" x1="450.265" y1="711.541" x2="559.689" y2="711.541"/>
	<g>
		
			<polyline fill="none" stroke="#FCEE23" stroke-width="30" stroke-linecap="round" stroke-linejoin="round" stroke-miterlimit="10" points="
			308.501,349.523 294.142,371.405 321.951,376.046 		"/>
		
			<polyline fill="none" stroke="#FCEE23" stroke-width="30" stroke-linecap="round" stroke-linejoin="round" stroke-miterlimit="10" points="
			335.718,339.321 321.358,361.203 349.168,365.844 		"/>
		
			<polyline fill="none" stroke="#FCEE23" stroke-width="30" stroke-linecap="round" stroke-linejoin="round" stroke-miterlimit="10" points="
			272.489,358.02 258.131,379.902 285.94,384.544 		"/>
		
			<polyline fill="none" stroke="#FCEE23" stroke-width="30" stroke-linecap="round" stroke-linejoin="round" stroke-miterlimit="10" points="
			239.329,365.844 224.972,387.727 252.78,392.369 		"/>
	</g>
	<g>
		
			<polyline fill="none" stroke="#FCEE23" stroke-width="30" stroke-linecap="round" stroke-linejoin="round" stroke-miterlimit="10" points="
			691.499,349.523 705.858,371.405 678.049,376.046 		"/>
		
			<polyline fill="none" stroke="#FCEE23" stroke-width="30" stroke-linecap="round" stroke-linejoin="round" stroke-miterlimit="10" points="
			664.282,339.321 678.642,361.203 650.832,365.844 		"/>
		
			<polyline fill="none" stroke="#FCEE23" stroke-width="30" stroke-linecap="round" stroke-linejoin="round" stroke-miterlimit="10" points="
			727.511,358.02 741.869,379.902 714.06,384.544 		"/>
		
			<polyline fill="none" stroke="#FCEE23" stroke-width="30" stroke-linecap="round" stroke-linejoin="round" stroke-miterlimit="10" points="
			760.671,365.844 775.028,387.727 747.22,392.369 		"/>
	</g>
	
		<rect x="702.611" y="639.532" transform="matrix(0.897 0.442 -0.442 0.897 389.1364 -245.2604)" fill="#F6EED9" stroke="#F6EED9" stroke-width="30" stroke-linecap="round" stroke-linejoin="round" stroke-miterlimit="10" width="36.667" height="146"/>
	<path fill="none" stroke="#A97D51" stroke-width="14" stroke-linecap="round" stroke-linejoin="round" stroke-miterlimit="10" d="
		M696.815,706.87l38.048,18.894c0,0,21.285,9.778,13.285,31.777s16.667,21.333,16.667,21.333"/>
	
		<circle fill="none" stroke="#BE4243" stroke-width="14" stroke-linecap="round" stroke-linejoin="round" stroke-miterlimit="10" cx="720.048" cy="718.407" r="11.83"/>
</g>
</svg>
