<?xml version="1.0" encoding="utf-8"?>
<!-- Generator: Adobe Illustrator 16.0.0, SVG Export Plug-In . SVG Version: 6.00 Build 0)  -->
<!DOCTYPE svg PUBLIC "-//W3C//DTD SVG 1.1//EN" "http://www.w3.org/Graphics/SVG/1.1/DTD/svg11.dtd">
<svg version="1.1" id="Layer_1" xmlns="http://www.w3.org/2000/svg" xmlns:xlink="http://www.w3.org/1999/xlink" x="0px" y="0px"
	 width="834.069px" height="841.89px" viewBox="0 0 834.069 841.89" enable-background="new 0 0 834.069 841.89"
	 xml:space="preserve">
<circle fill="#BD4142" cx="415.635" cy="593.973" r="70.744"/>
<path fill="#BD4142" d="M382.342,630.959c-8.053-1.943-16.158,3.008-18.103,11.061l-18.964,78.523
	c-0.25,1.035-0.382,2.072-0.412,3.096l-24.925,23.783c-1.035,0.987-1.365,2.505-0.833,3.833s1.818,2.198,3.249,2.198h48.321
	c1.811,0,3.322-1.38,3.485-3.183l3.108-34.198c0.007-0.08,0.005-0.16,0.006-0.24l16.125-66.77
	C395.346,641.01,390.395,632.904,382.342,630.959z"/>
<path fill="#BD4142" d="M511.117,747.216l-24.71-23.577c-0.029-1.024-0.162-2.061-0.412-3.096l-18.963-78.523
	c-1.945-8.053-10.051-13.006-18.103-11.061c-8.053,1.945-13.004,10.05-11.06,18.104l16.125,66.77c0.002,0.08,0,0.16,0.007,0.24
	l3.108,34.198c0.164,1.803,1.675,3.183,3.485,3.183h48.321c0.006,0.001,0.013,0.001,0.02,0c1.933,0,3.5-1.566,3.5-3.5
	C512.436,748.846,511.92,747.857,511.117,747.216z"/>
<path fill="#BD4142" d="M360.916,562.141c-32.227-2.581-61.828,11.727-79.721,35.9c-10.646,12.358-22.568,30.312-24.705,33.566
	c-2.521,3.648-4.006,8.068-4.006,12.84c0,12.5,10.135,22.633,22.635,22.633c9.81,0,16.403-4.482,19.545-13.211
	c0.432-1.199,1.206-2.887,1.871-4.61l1.655,3.597c1.264,2.748,3.979,4.367,6.818,4.367c1.049,0,2.114-0.221,3.129-0.688
	c3.763-1.731,5.411-6.186,3.679-9.948l-10.613-23.074c-0.098-0.212-0.206-0.414-0.32-0.612
	c10.998-20.234,33.184-32.805,57.644-30.855c8.257,0.664,15.487-5.498,16.147-13.756
	C375.333,570.03,369.174,562.801,360.916,562.141z"/>
<path fill="#BD4142" d="M574.782,631.607c-2.137-3.254-14.058-21.205-24.703-33.563c-17.893-24.172-47.493-38.479-79.724-35.903
	c-8.259,0.66-14.417,7.89-13.758,16.148c0.66,8.258,7.89,14.418,16.147,13.756c24.462-1.952,46.646,10.619,57.645,30.854
	c-0.115,0.198-0.224,0.401-0.321,0.613l-10.614,23.074c-1.73,3.763-0.084,8.217,3.68,9.948c1.016,0.467,2.08,0.688,3.13,0.688
	c2.838,0,5.554-1.619,6.818-4.367l1.654-3.596c0.665,1.723,1.438,3.41,1.87,4.609c3.143,8.729,9.736,13.211,19.545,13.211
	c12.5,0,22.637-10.133,22.637-22.633C578.788,639.676,577.301,635.256,574.782,631.607z"/>
<path fill="#E44F50" d="M414.554,605.137c4.759,6.594,15.261,17.922,28.728,13.088c9.711-3.486,14.381-21.842,14.381-21.842
	s11.969,9.842,33.303,4.625c21.334-5.215,26.826-25.123,26.826-25.123s-4.16,27.672,19.174,24.934
	c23.174-2.721,15.518-45.512,15.412-46.094c2.773,15.336,19.391,30.154,31.518,13.85c9.131-12.279,6.492-32.887,5.031-47.111
	c1.154,11.248,12.867,30.463,26.242,23.938c17.486-8.533,8.83-41.777,4.461-55.176c6.607,20.258,30.143,8.004,35.494-5.699
	c7.557-19.342-6.346-43.568-15.857-59.846c8.652,11.348,28.133,21.441,34.086,2.15c10.531-34.122-15.629-65.981-36.574-89.753
	c9.029,10.75,48.023,45.306,49.785,10.309c1.609-32.071-30.156-55.68-56.277-67.448c7.979,3.362,16.49,6.835,25.23,7.362
	c23.037,1.388,19.41-19.464,8.184-31.838c-11.969-13.192-27.594-23.434-43.512-31.255c5.408,5.198,19.621,14.049,27.213,12.965
	c13.123-1.872,19.199-26.61,12.896-33.614c-18-20-48.553-12.77-60-8l4.578-1.252c20.775-5.895,24.309-25.748,18.434-41.334
	c-11.59-30.746-62.623-17.125-91.271-6.167c9.734-3.724,21.133-3.669,26.143-14.722c4.627-10.209-1.189-20.946-10.758-25.524
	c-24.162-11.56-49.9,9.939-68.67,22.67c6.695-5.31,18.399-13.282,20.082-22.324c3.344-17.968-24.479-15.48-34.381-13.092
	c-18.602,4.486-35.283,16.672-46.213,32.287h-5.212c-10.929-15.615-27.611-27.801-46.212-32.287
	c-9.902-2.389-37.724-4.876-34.381,13.092c1.683,9.042,13.387,17.015,20.082,22.324c-18.768-12.73-44.507-34.229-68.67-22.67
	c-9.569,4.578-15.385,15.315-10.758,25.524c5.01,11.053,16.408,10.998,26.143,14.722c-28.647-10.958-79.682-24.579-91.271,6.167
	c-5.875,15.586-2.342,35.439,18.434,41.334l4.578,1.252c-11.447-4.77-42-12-60,8c-6.303,7.004-0.227,31.742,12.896,33.614
	c7.592,1.084,21.806-7.767,27.213-12.965c-15.916,7.821-31.542,18.062-43.512,31.255c-11.227,12.374-14.853,33.226,8.185,31.838
	c8.739-0.527,17.251-4,25.229-7.362c-26.12,11.769-57.886,35.377-56.275,67.448c1.76,34.997,40.754,0.441,49.783-10.309
	c-20.945,23.772-47.104,55.632-36.574,89.753c5.955,19.291,25.435,9.197,34.087-2.15c-9.512,16.277-23.415,40.504-15.858,59.846
	c5.354,13.703,28.888,25.957,35.494,5.699c-4.369,13.398-13.025,46.643,4.462,55.176c13.374,6.525,25.087-12.689,26.241-23.938
	c-1.46,14.225-4.1,34.832,5.032,47.111c12.126,16.305,28.744,1.486,31.518-13.85c-0.105,0.582-7.763,43.373,15.412,46.094
	c23.333,2.738,19.173-24.934,19.173-24.934s5.492,19.908,26.826,25.123c21.334,5.217,33.303-4.625,33.303-4.625
	s4.669,18.355,14.381,21.842c13.312,4.777,23.73-6.236,28.563-12.859"/>
<g>
	<g>
		<circle fill="#FFFFFF" cx="313.301" cy="372.921" r="70.497"/>
		<path fill="#231F20" d="M313.301,450.418c-42.732,0-77.497-34.765-77.497-77.497s34.765-77.497,77.497-77.497
			s77.497,34.765,77.497,77.497S356.033,450.418,313.301,450.418z M313.301,309.424c-35.012,0-63.497,28.485-63.497,63.497
			s28.485,63.497,63.497,63.497s63.497-28.484,63.497-63.497S348.313,309.424,313.301,309.424z"/>
	</g>
	<g>
		<circle fill="#FFFFFF" cx="517.97" cy="372.921" r="70.498"/>
		<path fill="#231F20" d="M517.97,450.418c-42.732,0-77.498-34.765-77.498-77.497s34.766-77.497,77.498-77.497
			c42.731,0,77.497,34.765,77.497,77.497S560.702,450.418,517.97,450.418z M517.97,309.424c-35.013,0-63.498,28.485-63.498,63.497
			s28.485,63.497,63.498,63.497s63.497-28.484,63.497-63.497S552.983,309.424,517.97,309.424z"/>
	</g>
	<g>
		<path fill="#231F20" d="M351.736,361.195c-5.153-16.554-20.275-27.677-37.628-27.677c-21.727,0-39.403,17.677-39.403,39.403
			c0,21.728,17.676,39.403,39.403,39.403c17.353,0,32.475-11.122,37.628-27.677c0.585-1.876-0.463-3.871-2.339-4.456l-23.328-7.271
			l23.328-7.271C351.273,365.066,352.321,363.072,351.736,361.195z"/>
		<path fill="#231F20" d="M554.066,380.192l-23.328-7.271l23.328-7.271c1.875-0.585,2.924-2.579,2.339-4.456
			c-5.153-16.554-20.275-27.677-37.628-27.677c-21.727,0-39.402,17.677-39.402,39.403c0,21.728,17.676,39.403,39.402,39.403
			c17.353,0,32.475-11.122,37.628-27.677C556.99,382.772,555.941,380.777,554.066,380.192z"/>
	</g>
</g>
<g>
	<g>
		<path fill="#231F20" d="M430.312,374.509c-3.843-0.628-7.467,1.977-8.096,5.82c-0.733,4.485-5.223,4.961-6.581,5l0.004,0.229
			c-0.003,0-0.005,0-0.007,0l0.003-0.229c-1.358-0.039-5.848-0.515-6.581-5c-0.628-3.843-4.253-6.448-8.095-5.82
			c-3.843,0.629-6.448,4.253-5.82,8.095c2.173,13.282,14.283,16.812,20.383,16.824l0.001-0.236c0.071,0.002,0.142,0.011,0.214,0.011
			c0.004,0,0.008,0,0.012,0v0.226c6.1-0.011,18.21-3.542,20.383-16.824C436.76,378.762,434.155,375.138,430.312,374.509z"/>
	</g>
</g>
</svg>
