<?xml version="1.0" encoding="utf-8"?>
<!-- Generator: Adobe Illustrator 18.1.1, SVG Export Plug-In . SVG Version: 6.00 Build 0)  -->
<svg version="1.1" id="Layer_2" xmlns="http://www.w3.org/2000/svg" xmlns:xlink="http://www.w3.org/1999/xlink" x="0px" y="0px"
	 viewBox="391 -391 1000 1000" enable-background="new 391 -391 1000 1000" xml:space="preserve">
<g>
	<circle fill="#E6E7E8" stroke="#E6E7E8" stroke-miterlimit="10" cx="855.9" cy="263.2" r="70.7"/>
	<g>
		
			<line fill="none" stroke="#BD4142" stroke-width="30" stroke-linecap="round" stroke-linejoin="round" stroke-miterlimit="10" x1="820.7" y1="314.8" x2="801.8" y2="393.3"/>
		
			<polygon fill="#BD4142" stroke="#BD4142" stroke-width="7" stroke-linecap="round" stroke-linejoin="round" stroke-miterlimit="10" points="
			790,394.6 764.3,419.2 812.6,419.2 815.7,385 		"/>
	</g>
	<g>
		
			<line fill="none" stroke="#BD4142" stroke-width="30" stroke-linecap="round" stroke-linejoin="round" stroke-miterlimit="10" x1="894.4" y1="314.8" x2="913.3" y2="393.3"/>
		
			<polygon fill="#BD4142" stroke="#BD4142" stroke-width="7" stroke-linecap="round" stroke-linejoin="round" stroke-miterlimit="10" points="
			925.1,394.6 950.8,419.2 902.5,419.2 899.4,385 		"/>
	</g>
	<g>
		<path fill="none" stroke="#BD4142" stroke-width="30" stroke-linecap="round" stroke-linejoin="round" stroke-miterlimit="10" d="
			M794,246.3c-38.9-3.1-73.4,23.2-80,61.6"/>
		
			<line fill="#E44F50" stroke="#BD4142" stroke-width="15" stroke-linecap="round" stroke-linejoin="round" stroke-miterlimit="10" x1="728.7" y1="295.9" x2="739.3" y2="318.9"/>
		<path fill="#BD4142" d="M721.2,294.4l1.6-11c0,0,12.9-35.3,0.3-24.2c-11.6,10.3-29.7,37.5-32.4,41.6c-2.5,3.6-4,8.1-4,12.8
			c0,12.5,10.1,22.6,22.6,22.6c9.8,0,16.4-4.5,19.5-13.2c0.9-2.4,3.1-6.7,3.1-9.4C732,305.5,727.7,298.4,721.2,294.4z"/>
	</g>
	<g>
		<path fill="none" stroke="#BD4142" stroke-width="30" stroke-linecap="round" stroke-linejoin="round" stroke-miterlimit="10" d="
			M968.6,225.6c-0.6,39,27.8,71.7,66.6,75.9"/>
		
			<line fill="#E44F50" stroke="#BD4142" stroke-width="15" stroke-linecap="round" stroke-linejoin="round" stroke-miterlimit="10" x1="1022.2" y1="287.7" x2="1044.6" y2="275.6"/>
		<path fill="#BD4142" d="M1021.2,295.2l-11.1-0.9c0,0-36-10.7-24.1,1.2c11,11,39.3,27.3,43.5,29.7c3.8,2.3,8.3,3.5,13.1,3.2
			c12.5-0.8,21.9-11.6,21.2-24c-0.6-9.8-5.5-16.1-14.4-18.7c-2.4-0.7-6.9-2.7-9.6-2.5C1031.6,283.7,1024.8,288.5,1021.2,295.2z"/>
	</g>
	<path fill="#E44F50" d="M850.3,271.8c4.8,6.6,15.3,17.9,28.7,13.1c9.7-3.5,14.4-21.8,14.4-21.8s12,9.8,33.3,4.6
		c21.3-5.2,26.8-25.1,26.8-25.1s-4.2,27.7,19.2,24.9c23.2-2.7,15.5-45.5,15.4-46.1c2.8,15.3,19.4,30.2,31.5,13.8
		c9.1-12.3,6.5-32.9,5-47.1c1.2,11.2,12.9,30.5,26.2,23.9c17.5-8.5,8.8-41.8,4.5-55.2c6.6,20.3,30.1,8,35.5-5.7
		c7.6-19.3-6.3-43.6-15.9-59.8c8.7,11.3,28.1,21.4,34.1,2.2c10.5-34.1-15.6-66-36.6-89.8c9,10.7,48,45.3,49.8,10.3
		c1.6-32.1-30.2-55.7-56.3-67.4c8,3.4,16.5,6.8,25.2,7.4c23,1.4,19.4-19.5,8.2-31.8c-12-13.2-27.6-23.4-43.5-31.3
		c5.4,5.2,19.6,14,27.2,13c13.1-1.9,19.2-26.6,12.9-33.6c-18-20-48.6-12.8-60-8l4.6-1.3c20.8-5.9,24.3-25.7,18.4-41.3
		c-11.6-30.7-62.6-17.1-91.3-6.2c9.7-3.7,21.1-3.7,26.1-14.7c4.6-10.2-1.2-20.9-10.8-25.5c-24.2-11.6-49.9,9.9-68.7,22.7
		c6.7-5.3,18.4-13.3,20.1-22.3c3.3-18-24.5-15.5-34.4-13.1c-18.6,4.5-35.3,16.7-46.2,32.3h-5.2c-10.9-15.6-27.6-27.8-46.2-32.3
		c-9.9-2.4-37.7-4.9-34.4,13.1c1.7,9,13.4,17,20.1,22.3c-18.8-12.7-44.5-34.2-68.7-22.7c-9.6,4.6-15.4,15.3-10.8,25.5
		c5,11.1,16.4,11,26.1,14.7c-28.6-11-79.7-24.6-91.3,6.2c-5.9,15.6-2.3,35.4,18.4,41.3l4.6,1.3c-11.4-4.8-42-12-60,8
		c-6.3,7-0.2,31.7,12.9,33.6c7.6,1.1,21.8-7.8,27.2-13c-15.9,7.8-31.5,18.1-43.5,31.3c-11.2,12.4-14.9,33.2,8.2,31.8
		c8.7-0.5,17.3-4,25.2-7.4c-26.1,11.8-57.9,35.4-56.3,67.4c1.8,35,40.8,0.4,49.8-10.3c-20.9,23.8-47.1,55.6-36.6,89.8
		c6,19.3,25.4,9.2,34.1-2.2c-9.5,16.3-23.4,40.5-15.9,59.8c5.4,13.7,28.9,26,35.5,5.7c-4.4,13.4-13,46.6,4.5,55.2
		c13.4,6.5,25.1-12.7,26.2-23.9c-1.5,14.2-4.1,34.8,5,47.1c12.1,16.3,28.7,1.5,31.5-13.8c-0.1,0.6-7.8,43.4,15.4,46.1
		c23.3,2.7,19.2-24.9,19.2-24.9s5.5,19.9,26.8,25.1c21.3,5.2,33.3-4.6,33.3-4.6s4.7,18.4,14.4,21.8c13.3,4.8,23.7-6.2,28.6-12.9"/>
	<g>
		<g>
			
				<path fill="#FFFFFF" stroke="#231F20" stroke-width="14" stroke-linecap="round" stroke-linejoin="round" stroke-miterlimit="10" d="
				M838.1,47.8c0,0,1.9,11.5,12.9,11.5"/>
			
				<path fill="#FFFFFF" stroke="#231F20" stroke-width="14" stroke-linecap="round" stroke-linejoin="round" stroke-miterlimit="10" d="
				M864,47.8c0,0-1.9,11.5-12.9,11.5"/>
		</g>
		<g>
			
				<circle fill="#FFFFFF" stroke="#231F20" stroke-width="14" stroke-linecap="round" stroke-linejoin="round" stroke-miterlimit="10" cx="749.1" cy="39.6" r="70.5"/>
			<g>
				<path fill="#231F20" d="M749.9,39.6l34.2-10.7C779.6,14.3,766,3.8,749.9,3.8c-19.8,0-35.8,16-35.8,35.8
					c0,19.8,16,35.8,35.8,35.8c16.1,0,29.7-10.6,34.2-25.2L749.9,39.6z"/>
				<path fill="#231F20" d="M749.9,79c-21.7,0-39.4-17.7-39.4-39.4c0-21.7,17.7-39.4,39.4-39.4c17.4,0,32.5,11.1,37.6,27.7
					c0.6,1.9-0.5,3.9-2.3,4.5l-23.3,7.3l23.3,7.3c1.9,0.6,2.9,2.6,2.3,4.5C782.4,67.9,767.2,79,749.9,79z M749.9,7.3
					c-17.8,0-32.3,14.5-32.3,32.3c0,17.8,14.5,32.3,32.3,32.3c13,0,24.5-7.6,29.6-19.3L748.8,43c-1.5-0.5-2.5-1.8-2.5-3.4
					c0-1.6,1-2.9,2.5-3.4l30.6-9.6C774.4,14.9,762.9,7.3,749.9,7.3z"/>
			</g>
			
				<circle fill="#FFFFFF" stroke="#231F20" stroke-width="14" stroke-linecap="round" stroke-linejoin="round" stroke-miterlimit="10" cx="953.7" cy="39.6" r="70.5"/>
			<g>
				<path fill="#231F20" d="M954.5,39.6l34.2-10.7c-4.5-14.6-18.1-25.2-34.2-25.2c-19.8,0-35.8,16-35.8,35.8
					c0,19.8,16,35.8,35.8,35.8c16.1,0,29.7-10.6,34.2-25.2L954.5,39.6z"/>
				<path fill="#231F20" d="M954.5,79c-21.7,0-39.4-17.7-39.4-39.4c0-21.7,17.7-39.4,39.4-39.4c17.4,0,32.5,11.1,37.6,27.7
					c0.6,1.9-0.5,3.9-2.3,4.5l-23.3,7.3l23.3,7.3c1.9,0.6,2.9,2.6,2.3,4.5C987,67.9,971.9,79,954.5,79z M954.5,7.3
					c-17.8,0-32.3,14.5-32.3,32.3c0,17.8,14.5,32.3,32.3,32.3c13,0,24.5-7.6,29.6-19.3L953.5,43c-1.5-0.5-2.5-1.8-2.5-3.4
					c0-1.6,1-2.9,2.5-3.4l30.6-9.6C979.1,14.9,967.6,7.3,954.5,7.3z"/>
			</g>
		</g>
	</g>
	
		<polygon fill="#E6E7E8" stroke="#E6E7E8" stroke-width="30" stroke-linecap="round" stroke-linejoin="round" stroke-miterlimit="10" points="
		857.5,346.5 779.7,346.5 801.8,300.5 911.2,300.5 933.3,346.5 855.4,346.5 	"/>
	
		<line fill="none" stroke="#231F20" stroke-width="14" stroke-linecap="round" stroke-linejoin="round" stroke-miterlimit="10" x1="801.8" y1="300.5" x2="911.2" y2="300.5"/>
	
		<line fill="none" stroke="#231F20" stroke-width="14" stroke-linecap="round" stroke-linejoin="round" stroke-miterlimit="10" x1="894.4" y1="350" x2="894.4" y2="300.5"/>
	
		<line fill="none" stroke="#231F20" stroke-width="14" stroke-linecap="round" stroke-linejoin="round" stroke-miterlimit="10" x1="879.5" y1="300.5" x2="879.5" y2="323.5"/>
	
		<rect x="611.5" y="-118.8" fill="#E1F4FD" stroke="#E1F4FD" stroke-width="7" stroke-linecap="round" stroke-linejoin="round" stroke-miterlimit="10" width="479.3" height="70.3"/>
	<circle fill="#E44F50" stroke="#E44F50" stroke-width="14" stroke-miterlimit="10" cx="851.1" cy="-83.7" r="23.9"/>
	
		<line fill="none" stroke="#231F20" stroke-width="30" stroke-linecap="round" stroke-linejoin="round" stroke-miterlimit="10" x1="1024.2" y1="336.3" x2="1072.1" y2="257.1"/>
	<circle fill="none" stroke="#BCBEC0" stroke-width="14" stroke-miterlimit="10" cx="1093" cy="257.1" r="10"/>
	<circle fill="none" stroke="#BCBEC0" stroke-width="14" stroke-miterlimit="10" cx="1110.7" cy="270.4" r="10"/>
	<circle fill="none" stroke="#BCBEC0" stroke-width="14" stroke-miterlimit="10" cx="1113" cy="291.7" r="10"/>
	<circle fill="none" stroke="#BCBEC0" stroke-width="14" stroke-miterlimit="10" cx="1118.4" cy="312" r="10"/>
	<circle fill="none" stroke="#BCBEC0" stroke-width="14" stroke-miterlimit="10" cx="1118.4" cy="332" r="10"/>
	
		<line fill="none" stroke="#231F20" stroke-width="30" stroke-linecap="round" stroke-linejoin="round" stroke-miterlimit="10" x1="1201.6" y1="402.7" x2="1127" y2="347.9"/>
</g>
</svg>
