<?xml version="1.0" encoding="utf-8"?>
<!-- Generator: Adobe Illustrator 16.0.0, SVG Export Plug-In . SVG Version: 6.00 Build 0)  -->
<!DOCTYPE svg PUBLIC "-//W3C//DTD SVG 1.1//EN" "http://www.w3.org/Graphics/SVG/1.1/DTD/svg11.dtd">
<svg version="1.1" id="Layer_1" xmlns="http://www.w3.org/2000/svg" xmlns:xlink="http://www.w3.org/1999/xlink" x="0px" y="0px"
	 width="1000px" height="1000px" viewBox="0 0 1000 1000" enable-background="new 0 0 1000 1000" xml:space="preserve">
<g>
	<g>
		<path fill="none" stroke="#BE4243" stroke-width="30" stroke-linecap="round" stroke-linejoin="round" stroke-miterlimit="10" d="
			M391.196,666.522c-38.891-3.109-73.352,23.162-79.988,61.639"/>
		
			<line fill="#E35050" stroke="#BE4243" stroke-width="15" stroke-linecap="round" stroke-linejoin="round" stroke-miterlimit="10" x1="325.864" y1="716.075" x2="336.478" y2="739.149"/>
		<path fill="#BE4243" d="M318.411,714.599l1.598-10.975c0,0,12.941-35.294,0.344-24.16c-11.641,10.289-29.709,37.492-32.389,41.572
			c-2.52,3.648-4.006,8.068-4.006,12.84c0,12.5,10.135,22.633,22.635,22.633c9.809,0,16.404-4.482,19.545-13.211
			c0.861-2.395,3.09-6.732,3.09-9.422C329.228,725.713,324.89,718.581,318.411,714.599z"/>
	</g>
	<circle fill="#BE4243" cx="453.042" cy="683.4" r="70.744"/>
	<g>
		
			<line fill="none" stroke="#BE4243" stroke-width="30" stroke-linecap="round" stroke-linejoin="round" stroke-miterlimit="10" x1="417.925" y1="734.97" x2="398.96" y2="813.493"/>
		
			<polygon fill="#BE4243" stroke="#BE4243" stroke-width="7" stroke-linecap="round" stroke-linejoin="round" stroke-miterlimit="10" points="
			387.173,814.847 361.458,839.382 409.78,839.382 412.888,805.185 		"/>
	</g>
	<g>
		
			<line fill="none" stroke="#BE4243" stroke-width="30" stroke-linecap="round" stroke-linejoin="round" stroke-miterlimit="10" x1="491.554" y1="734.97" x2="510.517" y2="813.493"/>
		
			<polygon fill="#BE4243" stroke="#BE4243" stroke-width="7" stroke-linecap="round" stroke-linejoin="round" stroke-miterlimit="10" points="
			522.306,814.847 548.019,839.382 499.698,839.382 496.591,805.185 		"/>
	</g>
	<g>
		<path fill="none" stroke="#BE4243" stroke-width="30" stroke-linecap="round" stroke-linejoin="round" stroke-miterlimit="10" d="
			M503.024,666.522c38.891-3.109,73.352,23.162,79.988,61.639"/>
		
			<line fill="#E35050" stroke="#BE4243" stroke-width="15" stroke-linecap="round" stroke-linejoin="round" stroke-miterlimit="10" x1="568.356" y1="716.075" x2="557.743" y2="739.149"/>
		<path fill="#BE4243" d="M575.81,714.599l-1.598-10.975c0,0-12.943-35.294-0.346-24.16c11.643,10.289,29.711,37.492,32.391,41.572
			c2.52,3.648,4.006,8.068,4.006,12.84c0,12.5-10.135,22.633-22.635,22.633c-9.811,0-16.404-4.482-19.545-13.211
			c-0.863-2.395-3.09-6.732-3.09-9.422C564.993,725.713,569.331,718.581,575.81,714.599z"/>
	</g>
	<path fill="#E35050" d="M449.513,692.247c-4.832,6.622-15.25,17.637-28.562,12.859c-9.711-3.486-14.381-21.843-14.381-21.843
		s-11.969,9.842-33.303,4.626c-21.334-5.215-26.826-25.123-26.826-25.123s4.16,27.672-19.172,24.934
		c-23.176-2.721-15.518-45.512-15.412-46.094c-2.773,15.336-19.393,30.154-31.518,13.85c-9.133-12.28-6.492-32.888-5.031-47.111
		c-1.156,11.248-12.869,30.463-26.244,23.938c-17.486-8.533-8.83-41.777-4.461-55.176c-6.605,20.258-30.141,8.003-35.494-5.699
		c-7.557-19.342,6.348-43.568,15.859-59.846c-8.654,11.348-28.133,21.441-34.088,2.15c-10.529-34.122,15.629-65.981,36.574-89.754
		c-9.027,10.75-48.023,45.307-49.783,10.309c-1.611-32.07,30.156-55.68,56.275-67.448h429.301l25.23,7.362
		c-8.74-0.527-17.25-4-25.23-7.362c26.121,11.769,57.887,35.378,56.277,67.448c-1.762,34.998-40.756,0.441-49.783-10.309
		c20.945,23.772,47.104,55.632,36.572,89.754c-5.953,19.291-25.434,9.197-34.086-2.15c9.512,16.277,23.416,40.504,15.858,59.846
		c-5.353,13.702-28.888,25.957-35.493,5.699c4.368,13.398,13.025,46.643-4.463,55.176c-13.373,6.525-25.088-12.689-26.242-23.938
		c1.461,14.224,4.102,34.831-5.031,47.111c-12.127,16.305-28.744,1.486-31.518-13.85c0.105,0.582,7.764,43.373-15.412,46.094
		c-23.332,2.738-19.172-24.934-19.172-24.934s-5.492,19.908-26.828,25.123c-21.332,5.216-33.301-4.626-33.301-4.626
		s-4.67,18.356-14.381,21.843c-13.469,4.834-23.971-6.494-28.729-13.088"/>
	<g>
		
			<circle fill="#FFFFFF" stroke="#231F20" stroke-width="14" stroke-linecap="round" stroke-linejoin="round" stroke-miterlimit="10" cx="550.932" cy="459.804" r="70.497"/>
		<g>
			<g>
				
					<path fill="#FFFFFF" stroke="#231F20" stroke-width="14" stroke-linecap="round" stroke-linejoin="round" stroke-miterlimit="10" d="
					M448.269,506.703c-24.756,0-29.023-25.8-29.023-25.8h58.049C477.294,480.903,473.024,506.703,448.269,506.703"/>
			</g>
			
				<circle fill="#FFFFFF" stroke="#231F20" stroke-width="14" stroke-linecap="round" stroke-linejoin="round" stroke-miterlimit="10" cx="346.262" cy="459.804" r="70.497"/>
			<g>
				<path fill="#231F20" d="M347.067,459.804l34.23-10.669c-4.541-14.587-18.146-25.176-34.23-25.176
					c-19.795,0-35.842,16.048-35.842,35.845c0,19.796,16.047,35.844,35.842,35.844c16.084,0,29.689-10.59,34.23-25.176
					L347.067,459.804z"/>
				<path fill="#231F20" d="M347.067,499.206c-21.725,0-39.402-17.676-39.402-39.402c0-21.728,17.678-39.404,39.402-39.404
					c17.354,0,32.477,11.123,37.629,27.678c0.586,1.876-0.463,3.871-2.338,4.455l-23.328,7.271l23.328,7.27
					c1.875,0.586,2.924,2.58,2.338,4.457C379.544,488.084,364.421,499.206,347.067,499.206z M347.067,427.519
					c-17.801,0-32.283,14.482-32.283,32.285c0,17.801,14.482,32.285,32.283,32.285c13.018,0,24.504-7.637,29.592-19.336
					l-30.648-9.552c-1.488-0.464-2.5-1.841-2.5-3.397c0-1.559,1.012-2.936,2.5-3.398l30.648-9.553
					C371.571,435.155,360.085,427.519,347.067,427.519z"/>
			</g>
			<g>
				<path fill="#231F20" d="M551.737,459.804l34.23-10.669c-4.541-14.587-18.148-25.176-34.23-25.176
					c-19.795,0-35.844,16.048-35.844,35.845c0,19.796,16.049,35.844,35.844,35.844c16.082,0,29.689-10.59,34.23-25.176
					L551.737,459.804z"/>
				<path fill="#231F20" d="M551.737,499.206c-21.727,0-39.402-17.676-39.402-39.402c0-21.728,17.676-39.404,39.402-39.404
					c17.352,0,32.475,11.123,37.629,27.678c0.584,1.876-0.463,3.871-2.34,4.455l-23.328,7.271l23.328,7.27
					c1.877,0.586,2.924,2.58,2.34,4.457C584.212,488.084,569.089,499.206,551.737,499.206z M551.737,427.519
					c-17.803,0-32.285,14.482-32.285,32.285c0,17.801,14.482,32.285,32.285,32.285c13.018,0,24.502-7.637,29.59-19.336
					l-30.648-9.552c-1.486-0.464-2.5-1.841-2.5-3.397c0-1.559,1.014-2.936,2.5-3.398l30.648-9.553
					C576.239,435.155,564.755,427.519,551.737,427.519z"/>
			</g>
		</g>
	</g>
	<path fill="none" stroke="#2BACE2" stroke-width="30" stroke-linecap="round" stroke-linejoin="round" stroke-miterlimit="10" d="
		M241.388,363.678h491.877c0,0,89.123,2.256,89.123-66.562"/>
	
		<path fill="#2BACE2" stroke="#2BACE2" stroke-width="30" stroke-linecap="round" stroke-linejoin="round" stroke-miterlimit="10" d="
		M241.388,363.687c0-112.152,90.918-203.068,203.068-203.068s203.068,90.916,203.068,203.068"/>
	
		<path fill="#2BACE2" stroke="#2183AC" stroke-width="30" stroke-linecap="round" stroke-linejoin="round" stroke-miterlimit="10" d="
		M324.388,353.687h-62c0-28.109,5.711-54.886,16.037-79.23C278.425,274.456,324.388,268.371,324.388,353.687z"/>
	<circle fill="#FFFFFF" cx="570.262" cy="282.201" r="41.905"/>
	<circle fill="#231F20" cx="553.027" cy="283.944" r="6.972"/>
	<circle fill="#231F20" cx="588.062" cy="274.361" r="6.972"/>
	<g>
		
			<path fill="#FFFFFF" stroke="#231F20" stroke-width="6" stroke-linecap="round" stroke-linejoin="round" stroke-miterlimit="10" d="
			M568.138,286.315c0,0,1.691,3.77,5.475,2.771"/>
		
			<path fill="#FFFFFF" stroke="#231F20" stroke-width="6" stroke-linecap="round" stroke-linejoin="round" stroke-miterlimit="10" d="
			M577.007,283.976c0,0,0.387,4.113-3.395,5.111"/>
	</g>
	<g>
		
			<path fill="#2BACE2" stroke="#2BACE2" stroke-width="30" stroke-linecap="round" stroke-linejoin="round" stroke-miterlimit="10" d="
			M293.074,556.566c-26.979,13.954-37.541,47.139-23.587,74.119l85.723,165.745c13.953,26.98,47.139,37.541,74.119,23.588
			c26.98-13.955,37.539-47.139,23.586-74.119l-85.721-165.746C353.239,553.173,320.056,542.612,293.074,556.566z"/>
		<g>
			
				<line fill="none" stroke="#1683C6" stroke-width="14" stroke-linecap="round" stroke-linejoin="round" stroke-miterlimit="10" x1="283.349" y1="647.692" x2="373.062" y2="601.294"/>
			
				<line fill="none" stroke="#E0E4AB" stroke-width="30" stroke-linecap="round" stroke-linejoin="round" stroke-miterlimit="10" x1="290.345" y1="661.218" x2="276.354" y2="634.166"/>
			
				<line fill="none" stroke="#E0E4AB" stroke-width="30" stroke-linecap="round" stroke-linejoin="round" stroke-miterlimit="10" x1="380.058" y1="614.82" x2="366.065" y2="587.769"/>
			
				<path fill="#1683C6" stroke="#1683C6" stroke-width="14" stroke-linecap="round" stroke-linejoin="round" stroke-miterlimit="10" d="
				M307.56,611.784c-3.043-5.887-0.738-13.127,5.146-16.171l0.889-0.46c5.887-3.043,13.127-0.74,16.17,5.146l19.086,36.901
				c3.045,5.887,0.74,13.127-5.146,16.171l-0.887,0.46c-5.887,3.044-13.127,0.741-16.172-5.146L307.56,611.784z"/>
		</g>
		<g>
			
				<line fill="none" stroke="#1683C6" stroke-width="14" stroke-linecap="round" stroke-linejoin="round" stroke-miterlimit="10" x1="349.073" y1="774.769" x2="438.782" y2="728.372"/>
			
				<line fill="none" stroke="#E0E4AB" stroke-width="30" stroke-linecap="round" stroke-linejoin="round" stroke-miterlimit="10" x1="356.067" y1="788.296" x2="342.077" y2="761.243"/>
			
				<line fill="none" stroke="#E0E4AB" stroke-width="30" stroke-linecap="round" stroke-linejoin="round" stroke-miterlimit="10" x1="445.78" y1="741.897" x2="431.788" y2="714.845"/>
			
				<path fill="#1683C6" stroke="#1683C6" stroke-width="14" stroke-linecap="round" stroke-linejoin="round" stroke-miterlimit="10" d="
				M373.282,738.862c-3.043-5.887-0.738-13.127,5.146-16.172l0.889-0.459c5.887-3.045,13.127-0.74,16.172,5.146l19.084,36.9
				c3.045,5.887,0.74,13.127-5.146,16.172l-0.887,0.459c-5.889,3.045-13.127,0.74-16.174-5.146L373.282,738.862z"/>
		</g>
		<path fill="#231F20" d="M301.366,614.987c-1.768-3.42-0.43-7.626,2.992-9.395c3.42-1.77,7.625-0.432,9.393,2.989
			c1.771,3.421,0.432,7.626-2.988,9.396S303.138,618.407,301.366,614.987z"/>
		<circle fill="#231F20" cx="329.766" cy="600.3" r="6.972"/>
		<circle fill="#231F20" cx="328.955" cy="653.152" r="6.972"/>
		<circle fill="#231F20" cx="351.161" cy="641.667" r="6.972"/>
		<circle fill="#231F20" cx="373.221" cy="738.74" r="6.972"/>
		<circle fill="#231F20" cx="395.426" cy="727.255" r="6.972"/>
		<circle fill="#231F20" cx="394.615" cy="780.107" r="6.972"/>
		<circle fill="#231F20" cx="416.82" cy="768.622" r="6.972"/>
	</g>
	<circle fill="#BE4243" cx="309.989" cy="730.549" r="24.461"/>
</g>
</svg>
