<?xml version="1.0" encoding="utf-8"?>
<!-- Generator: Adobe Illustrator 18.1.0, SVG Export Plug-In . SVG Version: 6.00 Build 0)  -->
<svg version="1.1" id="Layer_1" xmlns="http://www.w3.org/2000/svg" xmlns:xlink="http://www.w3.org/1999/xlink" x="0px" y="0px"
	 viewBox="79 -202.7 1000 1000" enable-background="new 79 -202.7 1000 1000" xml:space="preserve">
<g>
	<g>
		<g>
			<path fill="#231F20" d="M530.3,279.6c-3.9-0.7-7.4,2-8.1,5.7c-0.7,4.4-5,4.9-6.6,4.9v0.2l0,0v-0.2c-1.3,0-5.7-0.5-6.6-4.9
				c-0.7-3.9-4.4-6.4-8.1-5.7c-3.9,0.7-6.4,4.4-5.7,8.1c2.2,13.3,14.1,16.6,20.2,16.6v-0.2c0.2,0,0.2,0,0.2,0l0,0v0.2
				c6.1,0,18-3.5,20.2-16.6C536.7,283.8,534.2,280.3,530.3,279.6z"/>
		</g>
	</g>
	<g>
		
			<radialGradient id="SVGID_1_" cx="-171.5769" cy="850.6602" r="677.9434" gradientTransform="matrix(0.7274 -0.5149 0.4274 0.6039 223.2775 -164.7501)" gradientUnits="userSpaceOnUse">
			<stop  offset="0" style="stop-color:#FFFFFF"/>
			<stop  offset="1" style="stop-color:#B3B3B3"/>
		</radialGradient>
		<circle fill="url(#SVGID_1_)" cx="519.7" cy="506.8" r="212.7"/>
	</g>
	<circle cx="517.2" cy="557.6" r="20.7"/>
	<circle cx="517.2" cy="607.2" r="20.7"/>
	<circle cx="517.2" cy="656.6" r="20.7"/>
	
		<radialGradient id="SVGID_2_" cx="396.1569" cy="-275.2829" r="688.0247" gradientTransform="matrix(0.4209 0 0 -0.4209 348.8493 145.1925)" gradientUnits="userSpaceOnUse">
		<stop  offset="5.435106e-03" style="stop-color:#FFFFFF"/>
		<stop  offset="0.4781" style="stop-color:#FDFDFD"/>
		<stop  offset="0.6484" style="stop-color:#F6F6F6"/>
		<stop  offset="0.7697" style="stop-color:#EBEBEB"/>
		<stop  offset="0.8678" style="stop-color:#DADADA"/>
		<stop  offset="0.9509" style="stop-color:#C4C4C4"/>
		<stop  offset="1" style="stop-color:#B3B3B3"/>
	</radialGradient>
	<path fill="url(#SVGID_2_)" d="M514.8,508c4.7,6.6,15.1,17.7,28.4,12.9c9.6-3.5,14.3-21.7,14.3-21.7s11.9,9.8,33,4.5
		c21-5.2,26.6-24.9,26.6-24.9s-4.2,27.4,19,24.6c22.9-2.7,15.3-45.1,15.1-45.6c2.9,15.1,19.2,29.9,31.1,13.6
		c9.1-12.3,6.4-32.5,4.9-46.6c1.2,11.1,12.8,30.3,25.9,23.5c17.3-8.4,8.7-41.4,4.4-54.7c6.6,20.2,29.8,7.9,35.1-5.5
		c7.6-19.2-6.2-43.2-15.6-59.2c8.6,11.3,27.7,21.2,33.8,2.2c10.4-33.8-15.5-65.4-36.2-89c8.9,10.8,47.6,44.9,49.3,10.3
		c1.7-31.8-29.9-55.2-55.8-66.6c7.9,3.4,16.3,6.7,24.9,7.2c22.7,1.3,19.2-19.3,8.1-31.4c-11.9-13.1-27.4-23.2-43-30.9
		c5.4,5,19.3,13.8,26.9,12.9c12.9-1.8,19-26.4,12.8-33.3c-17.8-19.8-48.1-12.8-59.4-7.9l4.5-1.3c20.7-5.9,24-25.4,18.2-40.9
		c-11.3-30.6-61.7-17-90.1-6.4c9.6-3.7,20.9-3.7,25.9-14.5c4.5-10.1-1.2-20.7-10.8-25.2c-23.9-11.4-49.3,9.8-67.9,22.4
		c6.6-5.2,18.2-13.3,19.8-22c3.4-17.8-24.2-15.3-34-12.9c-18.5,4.4-35,16.5-45.7,31.9h-4.9c-10.8-15.5-27.4-27.6-45.7-31.9
		c-9.8-2.4-37.3-4.9-34,12.9c1.7,8.9,13.3,16.8,19.8,22c-18.5-12.6-44.1-33.8-67.9-22.4c-9.6,4.5-15.1,15.1-10.8,25.2
		c4.9,10.9,16.1,10.9,25.9,14.5c-28.2-10.9-78.9-24.4-90.5,6.1c-5.9,15.5-2.4,35,18.2,40.9l4.5,1.3c-11.3-4.7-41.5-11.9-59.4,7.9
		c-6.2,6.9-0.2,31.3,12.8,33.3c7.6,1.2,21.7-7.7,26.9-12.9c-15.6,7.7-31.1,18-43,30.9c-11.1,12.3-14.8,32.8,8.1,31.4
		c8.6-0.5,17.2-4,24.9-7.2c-25.9,11.8-57.3,35-55.8,66.6c1.8,34.6,40.4,0.3,49.3-10.3c-20.7,23.5-46.6,55-36.2,89
		c5.9,19.2,25.1,9.1,33.8-2.2c-9.4,16.1-23.2,40-15.6,59.2c5.4,13.5,28.6,25.7,35.1,5.5c-4.4,13.3-12.9,46.1,4.4,54.7
		c13.3,6.4,24.9-12.6,25.9-23.5c-1.5,14-4,34.5,4.9,46.6c11.9,16.1,28.4,1.5,31.1-13.6c-0.2,0.7-7.7,42.9,15.1,45.6
		c23,2.7,19-24.6,19-24.6s5.4,19.7,26.6,24.9c21.2,5,33-4.5,33-4.5s4.5,18.2,14.3,21.7c13.3,4.7,23.4-6.1,28.3-12.8"/>
	<g>
		<g>
			<circle fill="#FFFFFF" cx="424.4" cy="278.1" r="69.8"/>
			<path fill="#231F20" d="M424.4,354.8c-42.2,0-76.7-34.5-76.7-76.7s34.5-76.7,76.7-76.7s76.7,34.5,76.7,76.7
				S466.6,354.8,424.4,354.8z M424.4,215.2c-34.6,0-62.9,28.3-62.9,62.9s28.2,62.9,62.9,62.9s62.9-28.2,62.9-62.9
				S459,215.2,424.4,215.2z"/>
		</g>
		<g>
			<circle fill="#FFFFFF" cx="627" cy="278.1" r="69.8"/>
			<path fill="#231F20" d="M627,354.8c-42.2,0-76.7-34.5-76.7-76.7s34.5-76.7,76.7-76.7c42.2,0,76.7,34.5,76.7,76.7
				S669.2,354.8,627,354.8z M627,215.2c-34.6,0-62.9,28.3-62.9,62.9S592.3,341,627,341c34.6,0,62.9-28.2,62.9-62.9
				S661.6,215.2,627,215.2z"/>
		</g>
		<g>
			<path fill="#231F20" d="M462.4,266.5c-5-16.5-20.2-27.4-37.2-27.4c-21.5,0-39,17.5-39,39s17.5,39,39,39
				c17.2,0,32.1-10.9,37.2-27.4c0.7-1.8-0.5-3.9-2.4-4.4l-23-7.2l23-7.2C462,270.4,463,268.4,462.4,266.5z"/>
			<path fill="#231F20" d="M662.6,285.4l-23-7.2l23-7.2c1.8-0.7,2.9-2.5,2.4-4.4c-5-16.5-20.2-27.4-37.2-27.4c-21.5,0-39,17.5-39,39
				s17.5,39,39,39c17.2,0,32.1-10.9,37.2-27.4C665.7,287.9,664.5,285.9,662.6,285.4z"/>
		</g>
	</g>
	<circle fill="#FBB03B" cx="525.1" cy="315.1" r="33.5"/>
	<g>
		<path fill="#552200" d="M159.2,391.3c11.8,22.4,15.5,55.3,34.3,66.6c21.4,12.9,44.2,19.7,67.3,24.4c-5-23.5-8.4-45.9-18.7-69.3
			c-3.2-7.2-12.4-6.7-19-10.8c6.9,2.2,16.6-0.2,21.5,7.2c14.3,21.9,22.4,49.8,34.3,76.2c18.7,3.5,37.5,6.4,55.5,11.4
			c3.4,14.3-8.1,17.3-4.4,21.4c-29.1-11.8-59.5-18.5-88.3-29.1c-20.9,6.1-44.6,15.5-62.6,15.1c-8.6-0.2-14-11.4-20.7-17
			c7.2,4,13.8,13.3,21.2,11.8c19.2-4.4,29.4-9.4,44.1-17.2c-11.6-5.2-22.7-11.4-33.1-19.3C171.5,448.8,169.4,415,159.2,391.3z"/>
	</g>
	<g>
		<path fill="#552200" d="M888,365.2c-11.9,23.9-15.1,58.7-34.8,71.1c-22.2,14-46.1,21.7-70.3,27.2c4.9-24.9,7.9-48.6,18.2-73.7
			c3.2-7.7,12.9-7.6,19.7-11.8c-7.2,2.5-17.5,0.3-22.4,8.1c-14.6,23.2-22.7,53-34.5,81.1c-19.7,4-39.3,7.6-58.2,13.3l5.2,22.4
			c30.4-13.1,62.4-20.9,92.5-32.5c22,6.1,47.3,15.5,66.1,14.6c9.1-0.3,14.6-12.3,21.5-18.5c-7.6,4.4-14.3,14.3-22,12.8
			c-20.3-4.2-31.3-9.2-46.9-17.2c12.1-5.7,23.5-12.6,34.5-21C876.2,426.1,877.7,390.3,888,365.2z"/>
	</g>
</g>
</svg>
