<?xml version="1.0" encoding="utf-8"?>
<!-- Generator: Adobe Illustrator 18.1.1, SVG Export Plug-In . SVG Version: 6.00 Build 0)  -->
<svg version="1.1" id="Layer_2" xmlns="http://www.w3.org/2000/svg" xmlns:xlink="http://www.w3.org/1999/xlink" x="0px" y="0px"
	 viewBox="391 -391 1000 1000" enable-background="new 391 -391 1000 1000" xml:space="preserve">
<g>
	<g>
		<path fill="none" stroke="#1B6482" stroke-width="30" stroke-linecap="round" stroke-linejoin="round" stroke-miterlimit="10" d="
			M955.6,340.6c15,36,54.2,54.6,91.4,42.9"/>
		
			<line fill="#E44F50" stroke="#BD4142" stroke-width="15" stroke-linecap="round" stroke-linejoin="round" stroke-miterlimit="10" x1="1029.6" y1="376" x2="1045.3" y2="356"/>
		<path fill="#BD4142" d="M1031.7,383.3l-10.5,3.6c0,0-37.3,4.7-21.6,10.8c14.5,5.6,46.9,9.3,51.8,9.8c4.4,0.6,9-0.1,13.3-2.3
			c11.1-5.7,15.5-19.4,9.8-30.5c-4.5-8.7-11.5-12.5-20.7-11.3c-2.5,0.3-7.4,0.3-9.8,1.6C1036.6,368.6,1032.3,375.7,1031.7,383.3z"/>
		
			<path fill="#1B6482" stroke="#1B6482" stroke-width="7" stroke-linecap="round" stroke-linejoin="round" stroke-miterlimit="10" d="
			M1016.4,376.8l11.7-3.8c0,0,10.1,10.3,2.6,26.5c0,0-20.5,6-47-11.8l10.5-9.1L1016.4,376.8z"/>
	</g>
	<g>
		<path fill="none" stroke="#1B6482" stroke-width="30" stroke-linecap="round" stroke-linejoin="round" stroke-miterlimit="10" d="
			M837.7,326.2c-38.9-3.1-73.4,23.2-80,61.6"/>
		
			<line fill="#E44F50" stroke="#BD4142" stroke-width="15" stroke-linecap="round" stroke-linejoin="round" stroke-miterlimit="10" x1="772.4" y1="375.7" x2="783" y2="398.8"/>
		<path fill="#BD4142" d="M764.9,374.3l1.6-11c0,0,12.9-35.3,0.3-24.2c-11.6,10.3-29.7,37.5-32.4,41.6c-2.5,3.6-4,8.1-4,12.8
			c0,12.5,10.1,22.6,22.6,22.6c9.8,0,16.4-4.5,19.5-13.2c0.9-2.4,3.1-6.7,3.1-9.4C775.8,385.4,771.4,378.2,764.9,374.3z"/>
		
			<path fill="#1B6482" stroke="#1B6482" stroke-width="7" stroke-linecap="round" stroke-linejoin="round" stroke-miterlimit="10" d="
			M777.7,363.6l-1.9,12.2c0,0-13.8,4.2-24.8-9.8c0,0,4-21,32-36.4l3.2,13.5L777.7,363.6z"/>
	</g>
	<g>
		
			<line fill="none" stroke="#1B6482" stroke-width="30" stroke-linecap="round" stroke-linejoin="round" stroke-miterlimit="10" x1="932.4" y1="396.9" x2="951.4" y2="475.4"/>
		
			<polygon fill="#231F20" stroke="#231F20" stroke-width="7" stroke-linecap="round" stroke-linejoin="round" stroke-miterlimit="10" points="
			963.1,476.8 988.9,501.3 940.5,501.3 937.4,467.1 		"/>
	</g>
	
		<polygon fill="#1B6482" stroke="#1B6482" stroke-width="7" stroke-linecap="round" stroke-linejoin="round" stroke-miterlimit="10" points="
		958.6,457 964.1,477.7 938.7,481.2 934.9,449.7 	"/>
	<g>
		
			<line fill="none" stroke="#1B6482" stroke-width="30" stroke-linecap="round" stroke-linejoin="round" stroke-miterlimit="10" x1="863.6" y1="396.9" x2="844.7" y2="475.4"/>
		
			<polygon fill="#231F20" stroke="#231F20" stroke-width="7" stroke-linecap="round" stroke-linejoin="round" stroke-miterlimit="10" points="
			832.9,476.8 807.2,501.3 855.5,501.3 858.6,467.1 		"/>
	</g>
	
		<polygon fill="#1B6482" stroke="#1B6482" stroke-width="7" stroke-linecap="round" stroke-linejoin="round" stroke-miterlimit="10" points="
		837.4,457 832,477.7 857.3,481.2 861.2,449.7 	"/>
	<g id="XMLID_4_">
		<g>
			<path fill="#238DB9" d="M939,287.2c17.7,12.9,29.2,33.7,29.2,57.3c0,39.1-31.7,70.7-70.7,70.7c-39.1,0-70.8-31.7-70.8-70.7
				c0-23.6,11.5-44.4,29.2-57.3l41.5,105.5L939,287.2z"/>
			<path fill="#BD4142" d="M939,287.2l-41.5,105.5L856,287.2c11.7-8.5,26-13.5,41.5-13.5C913,273.7,927.4,278.7,939,287.2z"/>
		</g>
		<g>
			
				<polyline fill="none" stroke="#1B6482" stroke-width="14" stroke-linecap="round" stroke-linejoin="round" stroke-miterlimit="10" points="
				850.7,273.7 856,287.2 897.5,392.6 			"/>
			
				<polyline fill="none" stroke="#1B6482" stroke-width="14" stroke-linecap="round" stroke-linejoin="round" stroke-miterlimit="10" points="
				944.3,273.7 939,287.2 897.5,392.6 			"/>
		</g>
	</g>
	
		<circle fill="none" stroke="#104154" stroke-width="14" stroke-linecap="round" stroke-linejoin="round" stroke-miterlimit="10" cx="897.5" cy="400.2" r="3"/>
	
		<circle fill="none" stroke="#104154" stroke-width="14" stroke-linecap="round" stroke-linejoin="round" stroke-miterlimit="10" cx="897.5" cy="374.1" r="3"/>
	<path fill="#E44F50" d="M1129.8-14.9"/>
	<path fill="#E44F50" d="M897,353.1c4.8,6.6,15.3,17.9,28.7,13.1c9.7-3.5,14.4-21.8,14.4-21.8s12,9.8,33.3,4.6
		c21.3-5.2,26.8-25.1,26.8-25.1s-4.2,27.7,19.2,24.9c23.2-2.7,15.5-45.5,15.4-46.1c2.8,15.3,19.4,30.2,31.5,13.8
		c9.1-12.3,6.5-32.9,5-47.1c1.2,11.2,12.9,30.5,26.2,23.9c17.5-8.5,8.8-41.8,4.5-55.2c6.6,20.3,30.1,8,35.5-5.7
		c7.6-19.3-6.3-43.6-15.9-59.8c8.7,11.3,28.1,21.4,34.1,2.2c10.5-34.1-15.6-66-36.6-89.8c9,10.8,48,45.3,49.8,10.3
		c1.6-32.1-30.2-55.7-56.3-67.4c8,3.4,16.5,6.8,25.2,7.4c23,1.4,19.4-19.5,8.2-31.8l-38.4-21.8l-441.4,3.5
		c7.6,1.1-4.3,5.1-16.3,18.3c-11.2,12.4-14.9,33.2,8.2,31.8c8.7-0.5,17.3-4,25.2-7.4c-26.1,11.8-57.9,35.4-56.3,67.4
		c1.8,35,40.8,0.4,49.8-10.3c-20.9,23.8-47.1,55.6-36.6,89.8c6,19.3,25.4,9.2,34.1-2.2c-9.5,16.3-23.4,40.5-15.9,59.8
		c5.4,13.7,28.9,26,35.5,5.7c-4.4,13.4-13,46.6,4.5,55.2c13.4,6.5,25.1-12.7,26.2-23.9c-1.5,14.2-4.1,34.8,5,47.1
		c12.1,16.3,28.7,1.5,31.5-13.8c-0.1,0.6-7.8,43.4,15.4,46.1c23.3,2.7,19.2-24.9,19.2-24.9s5.5,19.9,26.8,25.1
		c21.3,5.2,33.3-4.6,33.3-4.6s4.7,18.4,14.4,21.8c13.3,4.8,23.7-6.2,28.6-12.9"/>
	<g>
		<g>
			
				<path fill="#FFFFFF" stroke="#231F20" stroke-width="14" stroke-linecap="round" stroke-linejoin="round" stroke-miterlimit="10" d="
				M884.8,129.1c0,0,1.9,11.5,12.9,11.5"/>
			
				<path fill="#FFFFFF" stroke="#231F20" stroke-width="14" stroke-linecap="round" stroke-linejoin="round" stroke-miterlimit="10" d="
				M910.6,129.1c0,0-1.9,11.5-12.9,11.5"/>
		</g>
		
			<circle fill="#FFFFFF" stroke="#231F20" stroke-width="14" stroke-linecap="round" stroke-linejoin="round" stroke-miterlimit="10" cx="795.7" cy="120.8" r="70.5"/>
		<g>
			<path fill="#231F20" d="M796.5,120.8l34.2-10.7C826.2,95.6,812.6,85,796.5,85c-19.8,0-35.8,16-35.8,35.8
				c0,19.8,16,35.8,35.8,35.8c16.1,0,29.7-10.6,34.2-25.2L796.5,120.8z"/>
			<path fill="#231F20" d="M796.5,160.2c-21.7,0-39.4-17.7-39.4-39.4c0-21.7,17.7-39.4,39.4-39.4c17.4,0,32.5,11.1,37.6,27.7
				c0.6,1.9-0.5,3.9-2.3,4.5l-23.3,7.3l23.3,7.3c1.9,0.6,2.9,2.6,2.3,4.5C829,149.1,813.9,160.2,796.5,160.2z M796.5,88.6
				c-17.8,0-32.3,14.5-32.3,32.3c0,17.8,14.5,32.3,32.3,32.3c13,0,24.5-7.6,29.6-19.3l-30.6-9.6c-1.5-0.5-2.5-1.8-2.5-3.4
				c0-1.6,1-2.9,2.5-3.4l30.6-9.6C821,96.2,809.5,88.6,796.5,88.6z"/>
		</g>
		
			<circle fill="#FFFFFF" stroke="#231F20" stroke-width="14" stroke-linecap="round" stroke-linejoin="round" stroke-miterlimit="10" cx="1000.4" cy="120.8" r="70.5"/>
		<g>
			<path fill="#231F20" d="M1001.2,120.8l34.2-10.7c-4.5-14.6-18.1-25.2-34.2-25.2c-19.8,0-35.8,16-35.8,35.8
				c0,19.8,16,35.8,35.8,35.8c16.1,0,29.7-10.6,34.2-25.2L1001.2,120.8z"/>
			<path fill="#231F20" d="M1001.2,160.2c-21.7,0-39.4-17.7-39.4-39.4c0-21.7,17.7-39.4,39.4-39.4c17.4,0,32.5,11.1,37.6,27.7
				c0.6,1.9-0.5,3.9-2.3,4.5l-23.3,7.3l23.3,7.3c1.9,0.6,2.9,2.6,2.3,4.5C1033.6,149.1,1018.5,160.2,1001.2,160.2z M1001.2,88.6
				c-17.8,0-32.3,14.5-32.3,32.3c0,17.8,14.5,32.3,32.3,32.3c13,0,24.5-7.6,29.6-19.3l-30.6-9.6c-1.5-0.5-2.5-1.8-2.5-3.4
				c0-1.6,1-2.9,2.5-3.4l30.6-9.6C1025.7,96.2,1014.2,88.6,1001.2,88.6z"/>
		</g>
	</g>
	<g>
		
			<polygon fill="#238FBC" stroke="#238FBC" stroke-width="14" stroke-linecap="round" stroke-linejoin="round" stroke-miterlimit="10" points="
			890.8,307.6 858,291.6 858,324.3 		"/>
		
			<polygon fill="#238FBC" stroke="#238FBC" stroke-width="14" stroke-linecap="round" stroke-linejoin="round" stroke-miterlimit="10" points="
			898.1,307.6 931,291.6 931,324.3 		"/>
		
			<circle fill="#00AEEF" stroke="#00AEEF" stroke-width="14" stroke-linecap="round" stroke-linejoin="round" stroke-miterlimit="10" cx="895.1" cy="307.6" r="11.4"/>
	</g>
	
		<line fill="none" stroke="#1B6482" stroke-width="30" stroke-linecap="round" stroke-linejoin="round" stroke-miterlimit="10" x1="633.8" y1="-18.4" x2="1180" y2="-18.4"/>
	
		<rect x="768.1" y="-290.1" fill="#1B6482" stroke="#1B6482" stroke-width="30" stroke-linecap="round" stroke-linejoin="round" stroke-miterlimit="10" width="258.6" height="271.8"/>
	
		<rect x="768.1" y="-110.4" fill="#00AEEF" stroke="#1B6482" stroke-width="30" stroke-linecap="round" stroke-linejoin="round" stroke-miterlimit="10" width="258.6" height="74"/>
	<g>
		
			<rect x="991.3" y="342.1" transform="matrix(0.4743 -0.8804 0.8804 0.4743 220.0593 1114.9954)" fill="#2BB673" stroke="#349A65" stroke-width="14" stroke-linecap="round" stroke-linejoin="round" stroke-miterlimit="10" width="104.6" height="62.2"/>
		<path fill="#231F20" d="M1057.1,380.6c0.5-0.1,1.5-0.3,1.7-1.3c0.1-0.7-0.8-1.5-0.8-1.5s1-0.4,1.3-1.8c0.4-1.4-0.6-2.4-0.6-2.4
			s1.5,1.1,2.1-0.3c0.6-1.4-2.2-2.3-2.2-2.4c1,0.3,2.4-0.2,1.8-1.4c-0.4-0.9-1.7-1.4-2.6-1.8c0.7,0.3,2.2,0.2,2.2-0.8
			c0.1-1.3-2.2-1.8-3.1-2c1.4,0.3,1.4-1.5,0.8-2.3c-0.9-1.1-2.7-1-4-1c0.9-0.1,2.1-1,1.2-1.9c-1.7-1.7-4.4-1.2-6.4-0.7
			c0.9-0.2,4.2-1.4,2.2-2.6c-1.8-1.1-4.2,0-5.7,1.2c0.4-0.4,0.9-0.7,1.2-1.2c0.8-1.3-0.5-1.7-1.6-1.5c-1.1,0.3-2.2,0.9-3.2,1.6
			c0.5-0.2,1.4-0.7,1.6-1.2c0.3-0.8-1-2-1.6-1.8c-1.7,0.4-2.3,2.4-2.4,3.3l0.1-0.3c0.3-1.4-0.7-2.2-1.8-2.4c-2.2-0.3-3,3.1-3.2,5.1
			c0.1-0.7,0.5-1.4,0-2c-0.5-0.6-1.3-0.6-1.8-0.2c-1.4,1-1,3.2-0.8,4.7c-0.1-0.6-0.2-1.5-0.7-1.9c-0.9-0.8-1.7,0.9-1.8,1.6
			c-0.3,1.2-0.1,2.6,0.4,3.7l-0.2,0.3c-1.3,0.1-2.5,0.7-3.3,1.7c-0.5,0.5-1.5,2.1-0.3,2.4c0.6,0.2,1.4-0.2,1.9-0.5
			c-1.3,0.7-3.4,1.5-3.5,3.3c0,0.7,0.4,1.4,1.2,1.4c0.8,0.1,1.2-0.6,1.7-1.1c-1.5,1.3-3.9,3.9-2.5,5.5c0.7,0.8,2,1.3,3,0.2l0.2-0.2
			c-0.6,0.5-2,2.1-1.4,3.8c0.2,0.6,1.9,1,2.4,0.3c0.3-0.4,0.2-1.5,0.1-2c0,1.2,0.1,2.4,0.5,3.5c0.4,1,1.5,1.9,2.1,0.5
			c0.2-0.5,0.3-1.1,0.4-1.7c-0.1,1.9,0.2,4.5,2.2,5.4c2.1,1,1.3-2.4,1-3.2c0.7,2,1.8,4.5,4.1,5c1.3,0.3,1.3-1.2,0.9-2.1
			c0.7,1.1,1.6,2.6,3,2.8c1,0.1,2.4-0.9,1.5-1.9c0.6,0.7,2.3,2.2,3.4,1.5c0.8-0.6,0-1.9-0.6-2.3c0.8,0.5,1.9,1.3,2.9,1.2
			c1.3-0.2,1-1.6,0.2-2.3c0,0,2.3,1.8,3.2,0.6c0.9-1.3-0.9-1.9-0.9-1.9s1.3,0.3,2.3-0.8c1-1.1,0.8-2.1,0.8-2.1s1.2,0.3,1.7-0.2
			c0.7-0.6,0.4-1.6,0.1-2.1"/>
		<g>
			<path d="M1025.6,398.7c1-1.9,2.8-2.2,4-1.5c1.2,0.7,2,2.3,1,4.2l-1.2,2.2c1.7,0.9,2.7,1.7,3.5,3.6l4.8-8.8c1-1.8,2.6-2.4,4.2-1.5
				c1.5,0.8,2,2.6,1,4.3l-6.6,12.3c-0.9,1.7-2.5,2.8-4.3,1.8c-2.6-1.4-0.9-3.4-5.4-6.4l-1.1,2.1c-1,1.9-2.8,2.2-4,1.5
				c-1.2-0.7-2-2.3-1-4.2l0.6-1.1c-1.1-0.1-2.4-0.3-3.3-0.8c-4.3-2.3-5.1-7.2-2.2-12.5c3.5-6.5,8.5-6.4,10.7-5.3
				c1.3,0.7,1.8,2.5,1.1,3.9c-1.4,2.7-4.6-0.4-7,4c-0.9,1.7-0.9,3.7,1,4.7c0.8,0.4,1.9,0.5,2.7,0.6l0,0L1025.6,398.7z"/>
		</g>
		<g>
			<path d="M1056.9,340.6c1-1.9,2.8-2.2,4-1.5c1.2,0.7,2,2.3,1,4.2l-1.2,2.2c1.7,0.9,2.7,1.7,3.5,3.6l4.8-8.8c1-1.8,2.6-2.4,4.2-1.5
				c1.5,0.8,2,2.6,1,4.3l-6.6,12.3c-0.9,1.7-2.5,2.8-4.3,1.8c-2.6-1.4-0.9-3.4-5.4-6.4l-1.1,2.1c-1,1.9-2.8,2.2-4,1.5
				c-1.2-0.7-2-2.3-1-4.2l0.6-1.1c-1.1-0.1-2.4-0.3-3.3-0.8c-4.3-2.3-5.1-7.2-2.2-12.5c3.5-6.5,8.5-6.4,10.7-5.3
				c1.3,0.7,1.8,2.5,1.1,3.9c-1.4,2.7-4.6-0.4-7,4c-0.9,1.7-0.9,3.7,1,4.7c0.8,0.4,1.9,0.5,2.7,0.6l0,0L1056.9,340.6z"/>
		</g>
	</g>
	<g>
		
			<rect x="379.6" y="-6.7" transform="matrix(0.7642 0.645 -0.645 0.7642 117.6236 -272.8508)" fill="#2BB673" stroke="#349A65" stroke-width="14" stroke-linecap="round" stroke-linejoin="round" stroke-miterlimit="10" width="104.6" height="62.2"/>
		<path fill="#231F20" d="M422,36.2c0,0.5,0,1.6,0.9,1.9c0.6,0.2,1.7-0.5,1.7-0.5s0.2,1,1.5,1.7c1.3,0.6,2.4-0.1,2.4-0.1
			s-1.4,1.2-0.1,2.1c1.3,0.9,2.7-1.6,2.8-1.7c-0.5,0.9-0.3,2.4,1,2.1c1-0.2,1.7-1.4,2.3-2.2c-0.4,0.6-0.7,2.1,0.3,2.3
			c1.3,0.3,2.2-1.7,2.6-2.6c-0.5,1.3,1.2,1.7,2,1.2c1.2-0.7,1.5-2.5,1.8-3.7c0,0.9,0.5,2.3,1.6,1.6c2-1.3,2-4,2-6.1
			c0,0.9,0.5,4.4,2.1,2.7c1.5-1.6,0.9-4.1,0-5.8c0.3,0.5,0.5,1.1,1,1.5c1.1,1.1,1.8-0.2,1.8-1.3c0-1.2-0.4-2.4-0.9-3.5
			c0.1,0.5,0.4,1.6,0.8,1.8c0.7,0.5,2.1-0.5,2.1-1.2c-0.1-1.8-1.9-2.7-2.7-3l0.3,0.1c1.3,0.6,2.3-0.3,2.7-1.3
			c0.7-2.1-2.4-3.6-4.4-4.2c0.7,0.2,1.2,0.7,2,0.4c0.7-0.3,0.8-1.1,0.5-1.8c-0.7-1.6-3-1.6-4.5-1.8c0.6,0,1.5,0.1,2-0.3
			c0.9-0.8-0.6-1.8-1.2-2.1c-1.1-0.6-2.5-0.7-3.7-0.3l-0.3-0.2c0.1-1.3-0.2-2.6-1-3.6c-0.4-0.5-1.7-1.9-2.3-0.8
			c-0.3,0.5,0,1.4,0.1,2c-0.4-1.5-0.8-3.6-2.5-4.1c-0.7-0.2-1.4,0.1-1.6,0.8c-0.2,0.8,0.4,1.3,0.7,1.9c-1-1.8-3-4.7-4.9-3.6
			c-1,0.5-1.6,1.7-0.8,2.9l0.2,0.3c-0.4-0.7-1.6-2.4-3.4-2.2c-0.6,0.1-1.4,1.6-0.8,2.3c0.3,0.4,1.4,0.5,1.9,0.5
			c-1.1-0.3-2.4-0.4-3.5-0.3c-1.1,0.1-2.2,1.1-0.9,2c0.5,0.3,1,0.5,1.6,0.7c-1.8-0.5-4.5-0.7-5.7,1c-1.4,1.9,2.1,1.8,3,1.6
			c-2.1,0.3-4.8,0.8-5.7,3c-0.5,1.2,0.9,1.6,1.8,1.4c-1.2,0.4-2.9,1.1-3.4,2.4c-0.3,0.9,0.4,2.6,1.6,1.8c-0.8,0.5-2.7,1.8-2.1,3
			c0.4,0.9,1.8,0.4,2.4-0.1c-0.7,0.7-1.7,1.6-1.8,2.6c-0.1,1.3,1.4,1.3,2.2,0.6c0,0-2.3,1.9-1.2,3c1.1,1.1,2-0.4,2-0.4
			s-0.6,1.2,0.3,2.4c0.9,1.2,1.9,1.2,1.9,1.2s-0.5,1.1-0.2,1.7C420.5,36.5,421.5,36.4,422,36.2"/>
		<g>
			<path d="M410.7,1.6c1.7,1.4,1.5,3.2,0.6,4.3c-0.9,1.1-2.6,1.5-4.3,0.1l-1.9-1.6c-1.2,1.5-2.2,2.3-4.2,2.7l7.7,6.5
				c1.5,1.3,1.8,3.1,0.6,4.4c-1.1,1.3-2.9,1.4-4.5,0.1l-10.7-9c-1.4-1.2-2.2-3-0.9-4.6c1.9-2.2,3.6-0.2,7.4-3.9l-1.8-1.5
				c-1.7-1.4-1.5-3.2-0.6-4.3c0.9-1.1,2.6-1.5,4.3-0.1l1,0.8c0.4-1.1,0.8-2.2,1.5-3.1c3.1-3.7,8.1-3.5,12.7,0.4
				c5.6,4.7,4.5,9.7,3,11.5c-1,1.2-2.9,1.3-4,0.3c-2.3-2,1.3-4.4-2.5-7.6c-1.4-1.2-3.4-1.6-4.8,0c-0.6,0.7-0.9,1.8-1.2,2.5l0,0
				L410.7,1.6z"/>
		</g>
		<g>
			<path d="M461.2,44.1c1.7,1.4,1.5,3.2,0.6,4.3c-0.9,1.1-2.6,1.5-4.3,0.1l-1.9-1.6c-1.2,1.5-2.2,2.3-4.2,2.7l7.7,6.5
				c1.5,1.3,1.8,3.1,0.6,4.4s-2.9,1.4-4.5,0.1l-10.7-9c-1.4-1.2-2.2-3-0.9-4.6c1.9-2.2,3.6-0.2,7.4-3.9l-1.8-1.5
				c-1.7-1.4-1.5-3.2-0.6-4.3c0.9-1.1,2.6-1.5,4.3-0.1l1,0.8c0.4-1.1,0.8-2.2,1.5-3.1c3.1-3.7,8.1-3.5,12.7,0.4
				c5.6,4.7,4.5,9.7,3,11.5c-1,1.2-2.9,1.3-4,0.3c-2.3-2,1.3-4.4-2.5-7.6c-1.4-1.2-3.4-1.6-4.8,0c-0.6,0.7-0.9,1.8-1.2,2.5l0,0
				L461.2,44.1z"/>
		</g>
	</g>
	<g>
		
			<rect x="518" y="302" transform="matrix(0.8851 -0.4654 0.4654 0.8851 -89.5238 303.7309)" fill="#2BB673" stroke="#349A65" stroke-width="14" stroke-linecap="round" stroke-linejoin="round" stroke-miterlimit="10" width="104.6" height="62.2"/>
		<path fill="#231F20" d="M577.4,346.8c0.5,0.2,1.5,0.6,2.1-0.1c0.5-0.5,0.2-1.7,0.2-1.7s1,0.2,2.1-0.8c1.1-1,0.8-2.3,0.8-2.3
			s0.6,1.8,1.9,0.9c1.3-0.9-0.5-3.2-0.5-3.2c0.6,0.8,2.1,1.2,2.3-0.2c0.2-1-0.6-2.1-1.2-2.9c0.4,0.6,1.7,1.4,2.3,0.6
			c0.8-1-0.8-2.7-1.4-3.4c1,1,2-0.5,1.9-1.4c-0.2-1.4-1.7-2.4-2.8-3c0.9,0.4,2.3,0.4,2.1-0.9c-0.4-2.3-3-3.4-4.9-4.1
			c0.9,0.4,4.2,1.2,3.2-0.9c-0.9-1.9-3.5-2.3-5.4-2.2c0.6,0,1.2-0.1,1.7-0.3c1.4-0.6,0.5-1.7-0.5-2.1c-1.1-0.4-2.3-0.5-3.5-0.5
			c0.5,0.1,1.6,0.2,2-0.1c0.7-0.5,0.3-2.2-0.3-2.4c-1.7-0.6-3.3,0.8-3.8,1.4l0.2-0.2c1-1,0.6-2.3-0.2-3c-1.6-1.5-4.2,0.9-5.6,2.5
			c0.5-0.5,1.1-0.9,1.1-1.7c0-0.7-0.7-1.2-1.4-1.2c-1.8,0.1-2.6,2.1-3.3,3.5c0.2-0.5,0.7-1.4,0.5-1.9c-0.4-1.2-1.9-0.2-2.4,0.3
			c-1,0.8-1.6,2.1-1.7,3.3l-0.3,0.2c-1.1-0.6-2.5-0.8-3.7-0.5c-0.7,0.2-2.4,0.9-1.6,1.8c0.4,0.5,1.3,0.6,1.9,0.7
			c-1.5-0.2-3.7-0.6-4.7,0.8c-0.4,0.6-0.4,1.4,0.2,1.8c0.6,0.5,1.3,0.1,2,0.1c-2,0.2-5.4,1-5.2,3.2c0.1,1.1,1,2.2,2.4,1.9l0.3-0.1
			c-0.8,0.1-2.8,0.6-3.3,2.3c-0.2,0.6,1,1.9,1.8,1.6c0.5-0.2,1-1.1,1.2-1.6c-0.7,1-1.3,2-1.6,3.2c-0.3,1.1,0.2,2.4,1.5,1.6
			c0.5-0.3,0.9-0.8,1.3-1.2c-1.2,1.5-2.3,3.9-1.2,5.7c1.2,2,2.4-1.2,2.6-2.1c-0.5,2-1,4.7,0.6,6.4c0.9,1,1.8-0.2,1.9-1.2
			c-0.1,1.3-0.1,3.1,0.9,4c0.7,0.6,2.5,0.6,2.3-0.8c0.2,0.9,0.7,3.1,2,3.1c1,0,1.1-1.5,0.8-2.2c0.4,0.9,0.8,2.2,1.8,2.6
			c1.2,0.6,1.7-0.8,1.4-1.8c0,0,0.9,2.8,2.3,2.2c1.5-0.6,0.4-2.1,0.4-2.1s0.9,1,2.4,0.6c1.4-0.4,1.8-1.3,1.8-1.3s0.8,0.9,1.5,0.8
			c0.9-0.1,1.2-1.1,1.3-1.6"/>
		<g>
			<path d="M541.2,344.2c1.9-1,3.5-0.2,4.2,1c0.7,1.2,0.4,3-1.5,4l-2.2,1.2c0.9,1.7,1.3,2.9,0.9,4.9l8.9-4.7
				c1.8-0.9,3.5-0.5,4.3,1.1c0.8,1.5,0.2,3.2-1.6,4.2l-12.4,6.5c-1.7,0.9-3.6,1-4.6-0.9c-1.4-2.6,1.1-3.4-0.9-8.3l-2.1,1.1
				c-1.9,1-3.5,0.2-4.2-1c-0.7-1.2-0.4-3,1.5-4l1.1-0.6c-0.9-0.7-1.8-1.6-2.3-2.5c-2.3-4.3-0.2-8.8,5.2-11.6
				c6.5-3.4,10.7-0.6,11.8,1.6c0.7,1.3,0.1,3.1-1.2,3.8c-2.7,1.4-3.6-2.9-8-0.6c-1.7,0.9-2.8,2.6-1.8,4.4c0.4,0.8,1.3,1.5,1.9,2l0,0
				L541.2,344.2z"/>
		</g>
		<g>
			<path d="M599.6,313.5c1.9-1,3.5-0.2,4.2,1c0.7,1.2,0.4,3-1.5,4l-2.2,1.2c0.9,1.7,1.3,2.9,0.9,4.9l8.9-4.7
				c1.8-0.9,3.5-0.5,4.3,1.1c0.8,1.5,0.2,3.2-1.6,4.2l-12.4,6.5c-1.7,0.9-3.6,1-4.6-0.9c-1.4-2.6,1.1-3.4-0.9-8.3l-2.1,1.1
				c-1.9,1-3.5,0.2-4.2-1s-0.4-3,1.5-4l1.1-0.6c-0.9-0.7-1.8-1.6-2.3-2.5c-2.3-4.3-0.2-8.8,5.2-11.6c6.5-3.4,10.7-0.6,11.8,1.6
				c0.7,1.3,0.1,3.1-1.2,3.8c-2.7,1.4-3.6-2.9-8-0.6c-1.7,0.9-2.8,2.6-1.8,4.4c0.4,0.8,1.3,1.5,1.9,2l0,0L599.6,313.5z"/>
		</g>
	</g>
	<g>
		
			<rect x="1298.2" y="-83.2" transform="matrix(0.737 0.6759 -0.6759 0.737 319.9679 -926.4892)" fill="#2BB673" stroke="#349A65" stroke-width="14" stroke-linecap="round" stroke-linejoin="round" stroke-miterlimit="10" width="104.6" height="62.2"/>
		<path fill="#231F20" d="M1340-40.8c-0.1,0.5-0.1,1.6,0.8,1.9c0.6,0.3,1.7-0.4,1.7-0.4s0.1,1,1.4,1.7c1.3,0.7,2.4,0,2.4,0
			s-1.4,1.2-0.2,2.1c1.3,0.9,2.8-1.5,2.8-1.6c-0.6,0.9-0.4,2.3,0.9,2.1c1-0.2,1.8-1.3,2.4-2.1c-0.4,0.6-0.7,2.1,0.2,2.4
			c1.2,0.4,2.3-1.6,2.7-2.5c-0.6,1.3,1.1,1.7,2,1.3c1.2-0.6,1.6-2.4,1.9-3.6c-0.1,0.9,0.4,2.3,1.6,1.6c2-1.2,2.2-3.9,2.2-6
			c0,0.9,0.3,4.4,2,2.7c1.5-1.5,1-4.1,0.3-5.8c0.2,0.5,0.5,1.1,0.9,1.5c1.1,1.1,1.8-0.1,1.8-1.2c0-1.2-0.3-2.4-0.7-3.5
			c0,0.5,0.3,1.6,0.8,1.9c0.7,0.5,2.1-0.4,2.1-1.1c0-1.8-1.8-2.8-2.6-3.1l0.3,0.1c1.3,0.6,2.3-0.2,2.8-1.2c0.8-2-2.3-3.7-4.2-4.4
			c0.6,0.3,1.2,0.8,1.9,0.5c0.7-0.3,0.9-1.1,0.6-1.7c-0.7-1.7-2.9-1.8-4.4-2c0.6,0,1.5,0.2,2-0.2c1-0.7-0.5-1.9-1.1-2.2
			c-1.1-0.6-2.5-0.8-3.7-0.5l-0.3-0.2c0.2-1.3-0.1-2.6-0.8-3.7c-0.4-0.6-1.6-1.9-2.3-0.9c-0.3,0.5-0.1,1.4,0,2
			c-0.3-1.5-0.6-3.7-2.3-4.2c-0.7-0.2-1.4,0.1-1.7,0.8c-0.3,0.8,0.3,1.3,0.6,1.9c-0.9-1.8-2.8-4.8-4.7-3.8c-1,0.5-1.7,1.6-1,2.9
			l0.2,0.3c-0.3-0.7-1.5-2.5-3.3-2.3c-0.6,0.1-1.4,1.5-0.9,2.2c0.3,0.4,1.4,0.6,1.9,0.6c-1.1-0.3-2.4-0.5-3.5-0.4
			c-1.1,0.1-2.2,1-1,1.9c0.5,0.4,1,0.6,1.6,0.8c-1.8-0.6-4.4-0.9-5.8,0.8c-1.5,1.8,2,1.9,2.9,1.7c-2.1,0.2-4.8,0.6-5.8,2.8
			c-0.6,1.2,0.8,1.6,1.8,1.4c-1.2,0.4-3,0.9-3.5,2.2c-0.4,0.9,0.2,2.6,1.5,1.9c-0.8,0.5-2.7,1.7-2.3,2.9c0.4,0.9,1.8,0.5,2.4,0
			c-0.7,0.6-1.8,1.5-1.9,2.5c-0.1,1.3,1.3,1.4,2.2,0.7c0,0-2.3,1.8-1.3,2.9c1,1.2,2.1-0.4,2.1-0.4s-0.6,1.2,0.2,2.4
			c0.8,1.2,1.8,1.3,1.8,1.3s-0.6,1.1-0.3,1.7c0.4,0.8,1.4,0.8,2,0.7"/>
		<g>
			<path d="M1330.3-75.8c1.6,1.5,1.4,3.2,0.5,4.3c-0.9,1-2.7,1.4-4.3-0.1l-1.8-1.7c-1.3,1.4-2.3,2.2-4.3,2.5l7.4,6.8
				c1.5,1.4,1.6,3.1,0.5,4.4c-1.2,1.3-3,1.3-4.5-0.1l-10.3-9.5c-1.4-1.3-2.1-3.1-0.7-4.6c2-2.2,3.6-0.1,7.5-3.6l-1.8-1.6
				c-1.6-1.5-1.4-3.2-0.5-4.3c0.9-1,2.7-1.4,4.3,0.1l0.9,0.8c0.4-1.1,0.9-2.2,1.6-3c3.3-3.6,8.2-3.1,12.7,1c5.4,5,4.1,9.9,2.5,11.6
				c-1,1.1-2.9,1.1-4,0.1c-2.2-2,1.5-4.4-2.2-7.7c-1.4-1.3-3.3-1.7-4.8-0.2c-0.6,0.7-1,1.7-1.3,2.5l0,0L1330.3-75.8z"/>
		</g>
		<g>
			<path d="M1378.9-31.2c1.6,1.5,1.4,3.2,0.5,4.3c-0.9,1-2.7,1.4-4.3-0.1l-1.8-1.7c-1.3,1.4-2.3,2.2-4.3,2.5l7.4,6.8
				c1.5,1.4,1.6,3.1,0.5,4.4c-1.2,1.3-3,1.3-4.5-0.1l-10.3-9.5c-1.4-1.3-2.1-3.1-0.7-4.6c2-2.2,3.6-0.1,7.5-3.6l-1.8-1.6
				c-1.6-1.5-1.4-3.2-0.5-4.3c0.9-1,2.7-1.4,4.3,0.1l0.9,0.8c0.4-1.1,0.9-2.2,1.6-3c3.3-3.6,8.2-3.1,12.7,1c5.4,5,4.1,9.9,2.5,11.6
				c-1,1.1-2.9,1.1-4,0.1c-2.2-2,1.5-4.4-2.2-7.7c-1.4-1.3-3.3-1.7-4.8-0.2c-0.6,0.7-1,1.7-1.3,2.5l0,0L1378.9-31.2z"/>
		</g>
	</g>
	<g>
		
			<rect x="1170.1" y="-338.2" transform="matrix(0.7439 -0.6683 0.6683 0.7439 518.3315 738.3281)" fill="#2BB673" stroke="#349A65" stroke-width="14" stroke-linecap="round" stroke-linejoin="round" stroke-miterlimit="10" width="104.6" height="62.2"/>
		<path fill="#231F20" d="M1232.7-295.6c0.5,0.1,1.6,0.2,2-0.6c0.3-0.6-0.3-1.7-0.3-1.7s1,0,1.9-1.3c0.8-1.2,0.2-2.4,0.2-2.4
			s1,1.6,2.1,0.4c1-1.2-1.3-2.9-1.3-3c0.8,0.6,2.3,0.6,2.2-0.7c-0.1-1-1.1-1.9-1.8-2.6c0.6,0.5,2,0.9,2.4,0c0.5-1.2-1.4-2.5-2.2-2.9
			c1.2,0.7,1.8-0.9,1.5-1.9c-0.5-1.3-2.2-1.9-3.4-2.3c0.9,0.2,2.3-0.2,1.8-1.4c-1-2.2-3.7-2.6-5.8-2.8c0.9,0.1,4.4,0.1,2.9-1.7
			c-1.3-1.7-4-1.4-5.8-0.8c0.5-0.2,1.1-0.4,1.6-0.8c1.2-1,0.1-1.8-1-1.9c-1.2-0.1-2.4,0.1-3.5,0.4c0.5,0,1.6-0.2,1.9-0.6
			c0.6-0.7-0.2-2.2-0.9-2.2c-1.8-0.2-3,1.5-3.3,2.3l0.2-0.3c0.8-1.2,0.1-2.4-0.9-2.9c-1.9-1-3.9,1.9-4.8,3.7
			c0.3-0.6,0.9-1.1,0.6-1.9c-0.2-0.7-1-1-1.7-0.8c-1.7,0.5-2,2.7-2.4,4.2c0.1-0.6,0.3-1.5,0-2c-0.6-1-1.9,0.3-2.3,0.9
			c-0.7,1-1,2.4-0.9,3.6l-0.3,0.2c-1.2-0.3-2.6-0.1-3.7,0.5c-0.6,0.3-2.1,1.4-1.1,2.2c0.5,0.4,1.4,0.2,2,0.2
			c-1.5,0.2-3.7,0.3-4.4,1.9c-0.3,0.7-0.1,1.4,0.6,1.7c0.7,0.3,1.3-0.2,1.9-0.4c-1.9,0.7-5,2.3-4.2,4.4c0.4,1,1.5,1.9,2.7,1.2
			l0.3-0.1c-0.8,0.3-2.6,1.3-2.6,3.1c0,0.6,1.4,1.6,2.1,1.1c0.4-0.3,0.7-1.4,0.8-1.8c-0.4,1.1-0.8,2.3-0.8,3.5
			c0,1.1,0.7,2.3,1.8,1.2c0.4-0.4,0.7-1,0.9-1.5c-0.8,1.7-1.3,4.3,0.2,5.8c1.6,1.7,2-1.8,2-2.7c0,2.1,0.1,4.8,2.2,6.1
			c1.2,0.7,1.7-0.7,1.6-1.6c0.3,1.2,0.6,3,1.9,3.7c0.9,0.4,2.6,0,2-1.3c0.4,0.9,1.4,2.9,2.7,2.5c1-0.3,0.7-1.7,0.2-2.3
			c0.6,0.8,1.3,1.9,2.3,2.1c1.3,0.3,1.5-1.2,0.9-2.1c0,0,1.5,2.5,2.8,1.6c1.3-0.9-0.2-2.1-0.2-2.1s1.2,0.7,2.4,0.1
			c1.3-0.7,1.4-1.7,1.4-1.7s1,0.7,1.7,0.4c0.9-0.4,0.9-1.4,0.8-1.9"/>
		<g>
			<path d="M1196.9-289.2c1.6-1.4,3.4-1.1,4.3,0c0.9,1,1.1,2.8-0.5,4.3l-1.9,1.7c1.3,1.4,2,2.5,2.1,4.6l7.5-6.7
				c1.5-1.3,3.3-1.3,4.5,0c1.2,1.3,1,3.1-0.5,4.4l-10.4,9.3c-1.4,1.3-3.3,1.8-4.7,0.2c-2-2.2,0.3-3.6-2.9-7.9l-1.8,1.6
				c-1.6,1.4-3.4,1.1-4.3,0c-0.9-1-1.1-2.8,0.5-4.3l0.9-0.8c-1-0.5-2.1-1.1-2.8-1.9c-3.2-3.6-2.3-8.5,2.2-12.6
				c5.5-4.9,10.2-3.2,11.8-1.4c1,1.1,0.9,3-0.3,4c-2.3,2-4.2-1.9-7.9,1.4c-1.4,1.3-2,3.2-0.7,4.7c0.6,0.7,1.6,1.1,2.3,1.5l0,0
				L1196.9-289.2z"/>
		</g>
		<g>
			<path d="M1246-333.3c1.6-1.4,3.4-1.1,4.3,0c0.9,1,1.1,2.8-0.5,4.3l-1.9,1.7c1.3,1.4,2,2.5,2.1,4.6l7.5-6.7c1.5-1.3,3.3-1.3,4.5,0
				c1.2,1.3,1,3.1-0.5,4.4l-10.4,9.3c-1.4,1.3-3.3,1.8-4.7,0.2c-2-2.2,0.3-3.6-2.9-7.9l-1.8,1.6c-1.6,1.4-3.4,1.1-4.3,0
				c-0.9-1-1.1-2.8,0.5-4.3l0.9-0.8c-1-0.5-2.1-1.1-2.8-1.9c-3.2-3.6-2.3-8.5,2.2-12.6c5.5-4.9,10.2-3.2,11.8-1.4c1,1.1,0.9,3-0.3,4
				c-2.3,2-4.2-1.9-7.9,1.4c-1.4,1.3-2,3.2-0.7,4.7c0.6,0.7,1.6,1.1,2.3,1.5l0,0L1246-333.3z"/>
		</g>
	</g>
	<g>
		
			<rect x="1255.5" y="215.3" transform="matrix(0.8279 -0.5609 0.5609 0.8279 86.8469 775.9213)" fill="#2BB673" stroke="#349A65" stroke-width="14" stroke-linecap="round" stroke-linejoin="round" stroke-miterlimit="10" width="104.6" height="62.2"/>
		<path fill="#231F20" d="M1316.3,259.2c0.5,0.2,1.5,0.4,2.1-0.4c0.4-0.6,0-1.7,0-1.7s1,0.1,2-1c1-1.1,0.5-2.4,0.5-2.4
			s0.8,1.7,2,0.7c1.2-1-0.8-3.1-0.9-3.1c0.7,0.7,2.2,0.9,2.3-0.4c0-1-0.9-2.1-1.5-2.8c0.5,0.6,1.8,1.2,2.3,0.3
			c0.6-1.1-1.1-2.6-1.8-3.2c1.1,0.9,2-0.7,1.7-1.6c-0.3-1.3-2-2.2-3.1-2.7c0.9,0.3,2.3,0.1,2-1.2c-0.7-2.3-3.3-3-5.4-3.6
			c0.9,0.3,4.3,0.7,3.1-1.3c-1.1-1.8-3.7-1.9-5.6-1.6c0.6-0.1,1.2-0.2,1.7-0.5c1.3-0.8,0.3-1.8-0.7-2.1c-1.2-0.3-2.4-0.3-3.6-0.1
			c0.5,0.1,1.6,0,2-0.3c0.7-0.6,0.1-2.2-0.5-2.3c-1.7-0.4-3.1,1.1-3.6,1.8l0.2-0.2c0.9-1.1,0.4-2.3-0.5-3c-1.8-1.3-4.1,1.4-5.3,3.1
			c0.4-0.6,1-1,0.9-1.8c-0.1-0.7-0.8-1.1-1.5-1c-1.8,0.3-2.4,2.4-2.9,3.8c0.2-0.5,0.5-1.4,0.3-2c-0.5-1.1-1.9,0.1-2.4,0.6
			c-0.9,0.9-1.3,2.2-1.3,3.5l-0.3,0.2c-1.2-0.5-2.6-0.5-3.7-0.1c-0.6,0.2-2.3,1.1-1.4,2c0.4,0.4,1.4,0.4,1.9,0.5
			c-1.5,0-3.7-0.2-4.6,1.3c-0.4,0.6-0.3,1.4,0.4,1.8c0.7,0.4,1.3,0,2-0.2c-2,0.5-5.3,1.6-4.8,3.7c0.3,1.1,1.2,2,2.6,1.6l0.3-0.1
			c-0.8,0.2-2.8,0.9-3,2.7c-0.1,0.6,1.2,1.8,2,1.4c0.5-0.2,0.9-1.2,1-1.7c-0.6,1-1.1,2.2-1.2,3.3c-0.2,1.1,0.4,2.4,1.6,1.4
			c0.5-0.4,0.8-0.9,1.1-1.3c-1,1.6-1.9,4.1-0.6,5.8c1.4,1.9,2.3-1.5,2.4-2.4c-0.3,2.1-0.5,4.8,1.3,6.3c1,0.8,1.7-0.4,1.8-1.4
			c0.1,1.3,0.2,3.1,1.4,3.9c0.8,0.6,2.6,0.4,2.2-1c0.3,0.9,1,3.1,2.3,2.9c1-0.1,0.9-1.6,0.6-2.3c0.4,0.8,1.1,2.1,2,2.4
			c1.3,0.4,1.6-1,1.2-1.9c0,0,1.2,2.7,2.6,2c1.4-0.7,0.1-2.1,0.1-2.1s1,0.9,2.4,0.4c1.4-0.5,1.7-1.5,1.7-1.5s0.9,0.8,1.6,0.7
			c0.9-0.2,1.1-1.2,1.1-1.8"/>
		<g>
			<path d="M1280,260.7c1.8-1.2,3.5-0.6,4.3,0.5c0.8,1.2,0.7,2.9-1.1,4.2l-2.1,1.4c1.1,1.6,1.6,2.7,1.5,4.8l8.3-5.6
				c1.7-1.1,3.4-0.9,4.4,0.6c1,1.4,0.6,3.2-1.1,4.3l-11.6,7.8c-1.6,1.1-3.5,1.4-4.7-0.4c-1.6-2.4,0.8-3.5-1.8-8.2l-2,1.3
				c-1.8,1.2-3.5,0.6-4.3-0.5c-0.8-1.2-0.7-2.9,1.1-4.2l1-0.7c-0.9-0.6-1.9-1.4-2.5-2.3c-2.7-4-1.2-8.7,3.9-12.1
				c6.1-4.1,10.5-1.7,11.9,0.3c0.9,1.3,0.4,3.1-0.8,3.9c-2.5,1.7-3.9-2.5-8,0.3c-1.6,1.1-2.5,2.9-1.3,4.6c0.5,0.8,1.5,1.3,2.1,1.8
				l0,0L1280,260.7z"/>
		</g>
		<g>
			<path d="M1334.7,223.7c1.8-1.2,3.5-0.6,4.3,0.5c0.8,1.2,0.7,2.9-1.1,4.2l-2.1,1.4c1.1,1.6,1.6,2.7,1.5,4.8l8.3-5.6
				c1.7-1.1,3.4-0.9,4.4,0.6c1,1.4,0.6,3.2-1.1,4.3l-11.6,7.8c-1.6,1.1-3.5,1.4-4.7-0.4c-1.6-2.4,0.8-3.5-1.8-8.2l-2,1.3
				c-1.8,1.2-3.5,0.6-4.3-0.5c-0.8-1.2-0.7-2.9,1.1-4.2l1-0.7c-0.9-0.6-1.9-1.4-2.5-2.3c-2.7-4-1.2-8.7,3.9-12.1
				c6.1-4.1,10.5-1.7,11.9,0.3c0.9,1.3,0.4,3.1-0.8,3.9c-2.5,1.7-3.9-2.5-8,0.3c-1.6,1.1-2.5,2.9-1.3,4.6c0.5,0.8,1.5,1.3,2.1,1.8
				l0,0L1334.7,223.7z"/>
		</g>
	</g>
	<g>
		
			<rect x="565.5" y="-383.3" transform="matrix(0.9558 0.2939 -0.2939 0.9558 -76.2288 -197.1108)" fill="#2BB673" stroke="#349A65" stroke-width="14" stroke-linecap="round" stroke-linejoin="round" stroke-miterlimit="10" width="104.6" height="62.2"/>
		<path fill="#231F20" d="M613.2-337.5c0.2,0.5,0.6,1.4,1.6,1.4c0.7,0,1.3-1.1,1.3-1.1s0.6,0.9,2,0.9c1.5,0.1,2.2-1.1,2.2-1.1
			s-0.8,1.7,0.7,2c1.5,0.3,1.9-2.6,1.9-2.6c-0.1,1,0.6,2.3,1.7,1.5c0.8-0.6,1.1-2,1.2-2.9c-0.1,0.7,0.2,2.2,1.2,2
			c1.3-0.2,1.4-2.5,1.4-3.4c0,1.4,1.8,1.1,2.4,0.3c0.9-1.1,0.4-2.9,0.2-4.1c0.3,0.9,1.4,1.9,2.1,0.8c1.3-2,0.3-4.5-0.6-6.4
			c0.4,0.9,2.2,3.8,3,1.6c0.7-2-0.8-4.1-2.3-5.4c0.4,0.4,0.9,0.8,1.5,1c1.4,0.5,1.6-0.9,1.1-1.9c-0.5-1.1-1.3-2-2.2-2.8
			c0.2,0.4,1,1.3,1.5,1.4c0.9,0.1,1.7-1.3,1.5-1.9c-0.8-1.6-2.8-1.8-3.7-1.7l0.3,0c1.4,0,2-1.2,2-2.3c-0.1-2.2-3.6-2.3-5.7-2.2
			c0.7,0,1.4,0.2,1.9-0.4c0.5-0.6,0.3-1.4-0.2-1.8c-1.3-1.2-3.4-0.3-4.8,0.1c0.5-0.2,1.4-0.5,1.7-1c0.6-1.1-1.3-1.5-1.9-1.5
			c-1.3-0.1-2.6,0.4-3.6,1.1l-0.3-0.1c-0.4-1.2-1.2-2.3-2.3-3c-0.6-0.3-2.3-1-2.4,0.2c-0.1,0.6,0.5,1.3,0.8,1.8
			c-0.9-1.2-2.2-3-3.9-2.8c-0.7,0.1-1.3,0.7-1.2,1.4c0.1,0.8,0.8,1,1.4,1.4c-1.6-1.3-4.6-3.1-5.9-1.4c-0.7,0.9-0.8,2.2,0.4,3
			l0.3,0.2c-0.6-0.5-2.4-1.6-4-0.7c-0.5,0.3-0.6,2,0.2,2.4c0.5,0.2,1.5-0.1,2-0.3c-1.2,0.2-2.4,0.5-3.4,1.1c-1,0.6-1.6,1.8-0.1,2.2
			c0.6,0.1,1.2,0.1,1.7,0c-1.9,0.2-4.4,1.1-4.9,3.2c-0.6,2.3,2.6,0.8,3.4,0.3c-1.8,1.1-4.1,2.6-4.1,5c0,1.3,1.4,1.1,2.2,0.5
			c-0.9,0.8-2.3,2.1-2.2,3.5c0.1,1,1.3,2.2,2.1,1.1c-0.5,0.8-1.7,2.7-0.8,3.6c0.7,0.7,1.8-0.3,2.1-1c-0.4,0.9-0.9,2.1-0.6,3.1
			c0.5,1.3,1.8,0.7,2.3-0.3c0,0-1.3,2.6,0.1,3.2c1.4,0.6,1.7-1.2,1.7-1.2s0,1.4,1.2,2.1c1.3,0.7,2.2,0.4,2.2,0.4s-0.1,1.3,0.5,1.7
			c0.8,0.6,1.6,0.1,2.1-0.3"/>
		<g>
			<path d="M589.3-364.9c2.1,0.6,2.7,2.3,2.2,3.7c-0.4,1.3-1.9,2.4-3.9,1.8l-2.4-0.7c-0.6,1.8-1.1,3-2.8,4.2l9.6,3
				c1.9,0.6,2.8,2.1,2.3,3.8c-0.5,1.7-2.1,2.4-4.1,1.8l-13.4-4.1c-1.8-0.6-3.2-1.9-2.6-3.9c0.9-2.8,3.2-1.6,5.3-6.5l-2.3-0.7
				c-2.1-0.6-2.7-2.3-2.2-3.7c0.4-1.3,1.9-2.4,3.9-1.8l1.2,0.4c-0.1-1.1-0.1-2.4,0.2-3.4c1.4-4.6,6.1-6.4,11.9-4.6
				c7,2.2,8,7.1,7.2,9.4c-0.4,1.4-2.1,2.3-3.6,1.8c-2.9-0.9-0.5-4.6-5.3-6.1c-1.8-0.6-3.8-0.1-4.4,1.9c-0.3,0.9-0.1,2-0.1,2.8l0,0
				L589.3-364.9z"/>
		</g>
		<g>
			<path d="M652.4-345.5c2.1,0.6,2.7,2.3,2.2,3.7c-0.4,1.3-1.9,2.4-3.9,1.8l-2.4-0.7c-0.6,1.8-1.1,3-2.8,4.2l9.6,3
				c1.9,0.6,2.8,2.1,2.3,3.8c-0.5,1.7-2.1,2.4-4.1,1.8l-13.4-4.1c-1.8-0.6-3.2-1.9-2.6-3.9c0.9-2.8,3.2-1.6,5.3-6.5l-2.3-0.7
				c-2.1-0.6-2.7-2.3-2.2-3.7c0.4-1.3,1.9-2.4,3.9-1.8l1.2,0.4c-0.1-1.1-0.1-2.4,0.2-3.4c1.4-4.6,6.1-6.4,11.9-4.6
				c7,2.2,8,7.1,7.2,9.4c-0.4,1.4-2.1,2.3-3.6,1.8c-2.9-0.9-0.5-4.6-5.3-6.1c-1.8-0.6-3.8-0.1-4.4,1.9c-0.3,0.9-0.1,2-0.1,2.8l0,0
				L652.4-345.5z"/>
		</g>
	</g>
	
		<circle fill="#BD4142" stroke="#BD4142" stroke-width="14" stroke-linecap="round" stroke-linejoin="round" stroke-miterlimit="10" cx="1083.3" cy="376" r="16.9"/>
</g>
</svg>
