<?xml version="1.0" encoding="utf-8"?>
<!-- Generator: Adobe Illustrator 16.0.0, SVG Export Plug-In . SVG Version: 6.00 Build 0)  -->
<!DOCTYPE svg PUBLIC "-//W3C//DTD SVG 1.1//EN" "http://www.w3.org/Graphics/SVG/1.1/DTD/svg11.dtd">
<svg version="1.1" id="Layer_1" xmlns="http://www.w3.org/2000/svg" xmlns:xlink="http://www.w3.org/1999/xlink" x="0px" y="0px"
	 width="347.896px" height="347.896px" viewBox="0 0 347.896 347.896" enable-background="new 0 0 347.896 347.896"
	 xml:space="preserve">
<path fill="#FFFFFF" d="M100.171,264.309c2.203,0,4.125-0.188,5.766-0.562v2.812c-1.688,0.562-3.633,0.844-5.836,0.844
	c-3.375,0-5.865-0.9-7.471-2.707c-1.605-1.805-2.408-4.641-2.408-8.508v-24.68h-5.66v-3.023h5.613l0.877-9.246h2.721v9.246h11.215
	v3.023H93.772v24.188c0,2.932,0.516,5.098,1.547,6.504S97.968,264.309,100.171,264.309z"/>
<path fill="#FFFFFF" d="M160.993,264.309c2.203,0,4.125-0.188,5.766-0.562v2.812c-1.688,0.562-3.633,0.844-5.836,0.844
	c-3.375,0-5.865-0.9-7.471-2.707c-1.605-1.805-2.408-4.641-2.408-8.508v-24.68h-5.66v-3.023h5.613l0.877-9.246h2.721v9.246h11.215
	v3.023h-11.215v24.188c0,2.932,0.516,5.098,1.547,6.504S158.79,264.309,160.993,264.309z"/>
<path fill="#FFFFFF" d="M185.712,193.848h-3.48v-38.214h3.48V193.848z M182.078,145.263c0-1.053,0.854-1.908,1.908-1.908
	s1.908,0.855,1.908,1.908c0,1.055-0.854,1.908-1.908,1.908S182.078,146.317,182.078,145.263z"/>
<path fill="#FFFFFF" d="M64.979,98.628l15.047-28.125h3.867l-17.121,31.535v19.863H63.08v-19.582L45.889,70.503h4.113L64.979,98.628
	z"/>
<path fill="#FFFFFF" d="M116.137,102.741c0,6.234-1.512,11.104-4.535,14.607s-7.195,5.256-12.516,5.256
	c-3.353,0-6.306-0.809-8.859-2.426c-2.555-1.617-4.513-3.938-5.871-6.961c-1.359-3.023-2.039-6.516-2.039-10.477
	c0-6.234,1.512-11.092,4.535-14.572s7.172-5.221,12.445-5.221c5.25,0,9.369,1.764,12.357,5.291S116.137,96.601,116.137,102.741z
	 M85.973,102.741c0,5.25,1.154,9.346,3.463,12.287c2.308,2.941,5.572,4.412,9.791,4.412s7.482-1.471,9.791-4.412
	c2.308-2.941,3.463-7.037,3.463-12.287c0-5.273-1.166-9.363-3.498-12.27c-2.333-2.906-5.607-4.359-9.826-4.359
	s-7.471,1.447-9.756,4.342S85.973,97.444,85.973,102.741z"/>
<path fill="#FFFFFF" d="M126.862,83.687v24.75c0,3.844,0.809,6.639,2.426,8.385s4.125,2.619,7.523,2.619
	c4.547,0,7.893-1.148,10.037-3.445s3.217-6.035,3.217-11.215V83.687h3.445v38.215h-2.953l-0.633-5.273h-0.211
	c-2.484,3.984-6.903,5.977-13.254,5.977c-8.696,0-13.043-4.652-13.043-13.957V83.687H126.862z"/>
<path fill="#FFFFFF" d="M190.075,121.901V97.116c0-3.844-0.809-6.639-2.426-8.385s-4.125-2.619-7.523-2.619
	c-4.57,0-7.916,1.154-10.037,3.463c-2.121,2.309-3.182,6.053-3.182,11.232v21.094h-3.48V83.687h2.953l0.668,5.238h0.211
	c2.484-3.984,6.902-5.977,13.253-5.977c8.672,0,13.008,4.652,13.008,13.957v24.996H190.075z"/>
<path fill="#FFFFFF" d="M234.268,83.687v2.426l-7.91,0.492c2.109,2.625,3.164,5.508,3.164,8.648c0,3.68-1.225,6.662-3.674,8.947
	s-5.736,3.428-9.861,3.428c-1.734,0-2.953-0.07-3.656-0.211c-1.383,0.727-2.438,1.582-3.164,2.566s-1.09,2.027-1.09,3.129
	c0,1.219,0.463,2.109,1.389,2.672s2.479,0.844,4.658,0.844h6.68c4.148,0,7.324,0.838,9.527,2.514s3.305,4.153,3.305,7.436
	c0,4.03-1.635,7.142-4.904,9.334c-3.27,2.191-7.928,3.287-13.975,3.287c-4.805,0-8.525-0.927-11.162-2.777
	c-2.637-1.852-3.955-4.43-3.955-7.734c0-2.625,0.814-4.805,2.443-6.539s3.838-2.918,6.627-3.551
	c-1.148-0.492-2.068-1.189-2.76-2.092s-1.037-1.939-1.037-3.111c0-2.555,1.629-4.805,4.887-6.75
	c-2.227-0.914-3.961-2.35-5.203-4.307s-1.863-4.201-1.863-6.732c0-3.82,1.213-6.885,3.639-9.193s5.701-3.463,9.826-3.463
	c2.508,0,4.453,0.246,5.836,0.738H234.268z M203.331,128.37c0,5.25,3.902,7.875,11.707,7.875c10.031,0,15.047-3.199,15.047-9.598
	c0-2.298-0.785-3.961-2.355-4.992s-4.113-1.547-7.629-1.547h-6.258C206.834,120.108,203.331,122.862,203.331,128.37z
	 M206.249,95.604c0,2.953,0.896,5.244,2.689,6.873s4.189,2.443,7.189,2.443c3.188,0,5.631-0.809,7.33-2.426s2.549-3.961,2.549-7.031
	c0-3.258-0.873-5.701-2.619-7.33s-4.189-2.443-7.33-2.443c-3.047,0-5.443,0.873-7.189,2.619S206.249,92.487,206.249,95.604z"/>
<path fill="#FFFFFF" d="M53.749,171.906v22.395h-3.586v-51.399h12.234c6.375,0,11.086,1.178,14.133,3.533
	c3.046,2.355,4.57,5.901,4.57,10.635c0,3.445-0.909,6.352-2.725,8.719c-1.816,2.368-4.576,4.066-8.279,5.098l13.957,23.415h-4.289
	l-13.254-22.395H53.749z M53.749,168.812h9.809c4.336,0,7.699-0.967,10.09-2.9s3.586-4.786,3.586-8.561
	c0-3.914-1.173-6.762-3.516-8.543c-2.344-1.78-6.165-2.672-11.461-2.672h-8.508V168.812z"/>
<path fill="#FFFFFF" d="M106.062,195.004c-5.555,0-9.885-1.711-12.99-5.133s-4.658-8.215-4.658-14.379
	c0-6.094,1.5-10.974,4.5-14.643c3-3.668,7.043-5.502,12.129-5.502c4.5,0,8.051,1.57,10.652,4.711
	c2.602,3.142,3.902,7.406,3.902,12.797v2.813H92.07c0.047,5.25,1.271,9.258,3.674,12.023s5.842,4.148,10.318,4.148
	c2.18,0,4.096-0.152,5.748-0.457s3.744-0.961,6.275-1.969v3.164c-2.156,0.938-4.148,1.576-5.977,1.916
	C110.281,194.833,108.266,195.004,106.062,195.004z M105.043,158.441c-3.68,0-6.633,1.213-8.859,3.639s-3.527,5.924-3.902,10.494
	h23.625c0-4.43-0.961-7.893-2.883-10.389S108.441,158.441,105.043,158.441z"/>
<path fill="#FFFFFF" d="M160.695,194.301l-8.367-25.559c-0.539-1.734-1.23-4.276-2.074-7.629h-0.211l-0.738,2.602l-1.582,5.098
	l-8.508,25.489h-3.445l-10.934-38.215h3.727l6.117,22.149c1.43,5.484,2.367,9.516,2.812,12.094h0.211
	c1.383-5.484,2.391-9.129,3.023-10.934l7.875-23.309h3.164l7.488,23.239c1.688,5.508,2.719,9.152,3.094,10.934h0.211
	c0.188-1.523,1.125-5.602,2.812-12.234l5.835-21.938h3.516l-10.371,38.215H160.695z"/>
<path fill="#FFFFFF" d="M213.535,155.348c1.617,0,3.352,0.164,5.203,0.492l-0.668,3.34c-1.594-0.398-3.246-0.598-4.957-0.598
	c-3.258,0-5.93,1.384-8.016,4.148c-2.086,2.766-3.129,6.258-3.129,10.477v21.094h-3.48v-38.215h2.953l0.352,6.891h0.246
	c1.57-2.812,3.246-4.786,5.027-5.924C208.847,155.916,211.003,155.348,213.535,155.348z"/>
<path fill="#FFFFFF" d="M239.062,195.004c-5.555,0-9.885-1.711-12.99-5.133c-3.106-3.422-4.658-8.215-4.658-14.379
	c0-6.094,1.499-10.974,4.5-14.643c3-3.668,7.043-5.502,12.129-5.502c4.5,0,8.051,1.57,10.652,4.711
	c2.602,3.142,3.902,7.406,3.902,12.797v2.813H225.07c0.047,5.25,1.271,9.258,3.674,12.023c2.402,2.766,5.841,4.148,10.318,4.148
	c2.18,0,4.096-0.152,5.748-0.457s3.744-0.961,6.275-1.969v3.164c-2.157,0.938-4.148,1.576-5.977,1.916
	C243.281,194.833,241.264,195.004,239.062,195.004z M238.042,158.441c-3.68,0-6.633,1.213-8.859,3.639
	c-2.228,2.426-3.528,5.924-3.902,10.494h23.625c0-4.43-0.962-7.893-2.883-10.389C244.101,159.689,241.44,158.441,238.042,158.441z"
	/>
<path fill="#FFFFFF" d="M275.696,155.348c2.765,0,5.155,0.505,7.172,1.512c2.016,1.008,3.819,2.73,5.414,5.168h0.211
	c-0.141-2.953-0.211-5.848-0.211-8.684v-13.746h3.445v54.704h-2.285l-0.879-5.836h-0.281c-2.906,4.359-7.079,6.539-12.516,6.539
	c-5.273,0-9.305-1.641-12.094-4.922c-2.79-3.281-4.184-8.062-4.184-14.344c0-6.61,1.383-11.66,4.148-15.153
	C266.402,157.094,270.422,155.348,275.696,155.348z M275.696,158.512c-4.172,0-7.308,1.465-9.404,4.395
	c-2.098,2.931-3.146,7.185-3.146,12.762c0,10.828,4.206,16.242,12.621,16.242c4.312,0,7.476-1.254,9.492-3.762
	c2.016-2.508,3.023-6.645,3.023-12.41v-0.598c0-5.907-0.99-10.155-2.971-12.745C283.33,159.808,280.125,158.512,275.696,158.512z"/>
<path fill="#FFFFFF" d="M81.537,253.446c0,4.289-1.577,7.688-4.729,10.195c-3.152,2.51-7.343,3.762-12.568,3.762
	c-6.281,0-11.098-0.691-14.449-2.074v-3.586c3.703,1.57,8.425,2.355,14.168,2.355c4.219,0,7.563-0.967,10.037-2.9
	c2.473-1.934,3.709-4.469,3.709-7.611c0-1.945-0.41-3.555-1.23-4.834c-0.821-1.277-2.157-2.443-4.008-3.498
	c-1.852-1.055-4.57-2.191-8.156-3.41c-5.25-1.805-8.877-3.756-10.881-5.854c-2.004-2.096-3.006-4.891-3.006-8.385
	c0-3.844,1.506-6.979,4.518-9.404c3.011-2.426,6.885-3.639,11.619-3.639c4.828,0,9.363,0.914,13.605,2.742l-1.301,3.094
	c-4.267-1.779-8.345-2.672-12.234-2.672c-3.797,0-6.82,0.879-9.07,2.637s-3.375,4.148-3.375,7.172c0,1.898,0.346,3.459,1.037,4.676
	c0.691,1.219,1.822,2.316,3.393,3.287c1.569,0.973,4.266,2.141,8.086,3.498c4.008,1.385,7.019,2.725,9.035,4.025
	c2.016,1.301,3.485,2.777,4.412,4.43C81.074,249.104,81.537,251.104,81.537,253.446z"/>
<path fill="#FFFFFF" d="M137.401,266.7l-0.879-6.047h-0.281c-1.922,2.461-3.896,4.201-5.924,5.221s-4.424,1.529-7.189,1.529
	c-3.75,0-6.668-0.961-8.754-2.883c-2.086-1.92-3.129-4.582-3.129-7.98c0-3.727,1.553-6.621,4.658-8.684
	c3.105-2.061,7.6-3.15,13.482-3.27l7.277-0.211v-2.531c0-3.633-0.738-6.375-2.215-8.227c-1.477-1.85-3.855-2.777-7.137-2.777
	c-3.539,0-7.207,0.984-11.004,2.953l-1.301-3.023c4.195-1.969,8.344-2.953,12.445-2.953c4.195,0,7.33,1.09,9.404,3.27
	s3.111,5.578,3.111,10.195V266.7H137.401z M123.339,264.239c4.078,0,7.295-1.164,9.65-3.498c2.355-2.332,3.533-5.572,3.533-9.721
	v-3.762l-6.68,0.281c-5.367,0.26-9.193,1.096-11.479,2.514c-2.285,1.42-3.428,3.627-3.428,6.627c0,2.391,0.732,4.25,2.197,5.572
	C118.599,263.577,120.667,264.239,123.339,264.239z"/>
<path fill="#FFFFFF" d="M190.454,267.403c-5.555,0-9.885-1.709-12.99-5.133c-3.105-3.422-4.658-8.213-4.658-14.379
	c0-6.094,1.5-10.973,4.5-14.643c3-3.668,7.043-5.502,12.129-5.502c4.5,0,8.051,1.57,10.652,4.711
	c2.602,3.143,3.902,7.406,3.902,12.797v2.812h-27.527c0.047,5.252,1.271,9.26,3.674,12.023c2.402,2.766,5.842,4.148,10.318,4.148
	c2.18,0,4.096-0.152,5.748-0.457c1.652-0.303,3.744-0.961,6.275-1.969v3.164c-2.156,0.938-4.148,1.578-5.977,1.916
	C194.672,267.233,192.657,267.403,190.454,267.403z M189.434,230.84c-3.68,0-6.633,1.213-8.859,3.639s-3.527,5.924-3.902,10.494
	h23.625c0-4.43-0.961-7.893-2.883-10.389S192.833,230.84,189.434,230.84z"/>
<path fill="#FFFFFF" d="M237.879,276.051h-29.883v-2.883h29.883V276.051z"/>
</svg>
