<?xml version="1.0" encoding="utf-8"?>
<!-- Generator: Adobe Illustrator 18.1.1, SVG Export Plug-In . SVG Version: 6.00 Build 0)  -->
<svg version="1.1" id="Layer_2" xmlns="http://www.w3.org/2000/svg" xmlns:xlink="http://www.w3.org/1999/xlink" x="0px" y="0px"
	 viewBox="391 -391 1000 1000" enable-background="new 391 -391 1000 1000" xml:space="preserve">
<g>
	<circle fill="#BD4142" cx="895.3" cy="349.2" r="70.7"/>
	<g>
		
			<line fill="none" stroke="#BD4142" stroke-width="30" stroke-linecap="round" stroke-linejoin="round" stroke-miterlimit="10" x1="860.2" y1="400.8" x2="841.2" y2="479.3"/>
		
			<polygon fill="#BD4142" stroke="#BD4142" stroke-width="7" stroke-linecap="round" stroke-linejoin="round" stroke-miterlimit="10" points="
			829.4,480.7 803.7,505.2 852.1,505.2 855.2,471 		"/>
	</g>
	<g>
		
			<line fill="none" stroke="#BD4142" stroke-width="30" stroke-linecap="round" stroke-linejoin="round" stroke-miterlimit="10" x1="933.8" y1="400.8" x2="952.8" y2="479.3"/>
		
			<polygon fill="#BD4142" stroke="#BD4142" stroke-width="7" stroke-linecap="round" stroke-linejoin="round" stroke-miterlimit="10" points="
			964.6,480.7 990.3,505.2 942,505.2 938.9,471 		"/>
	</g>
	<g>
		<path fill="none" stroke="#BD4142" stroke-width="30" stroke-linecap="round" stroke-linejoin="round" stroke-miterlimit="10" d="
			M833.5,332.3c-38.9-3.1-73.4,23.2-80,61.6"/>
		
			<line fill="#E44F50" stroke="#BD4142" stroke-width="15" stroke-linecap="round" stroke-linejoin="round" stroke-miterlimit="10" x1="768.1" y1="381.9" x2="778.8" y2="405"/>
		<path fill="#BD4142" d="M760.7,380.4l1.6-11c0,0,12.9-35.3,0.3-24.2c-11.6,10.3-29.7,37.5-32.4,41.6c-2.5,3.6-4,8.1-4,12.8
			c0,12.5,10.1,22.6,22.6,22.6c9.8,0,16.4-4.5,19.5-13.2c0.9-2.4,3.1-6.7,3.1-9.4C771.5,391.5,767.2,384.4,760.7,380.4z"/>
	</g>
	<g>
		<path fill="none" stroke="#BD4142" stroke-width="30" stroke-linecap="round" stroke-linejoin="round" stroke-miterlimit="10" d="
			M945.3,332.3c38.9-3.1,73.4,23.2,80,61.6"/>
		
			<line fill="#E44F50" stroke="#BD4142" stroke-width="15" stroke-linecap="round" stroke-linejoin="round" stroke-miterlimit="10" x1="1010.6" y1="381.9" x2="1000" y2="405"/>
		<path fill="#BD4142" d="M1018.1,380.4l-1.6-11c0,0-12.9-35.3-0.3-24.2c11.6,10.3,29.7,37.5,32.4,41.6c2.5,3.6,4,8.1,4,12.8
			c0,12.5-10.1,22.6-22.6,22.6c-9.8,0-16.4-4.5-19.5-13.2c-0.9-2.4-3.1-6.7-3.1-9.4C1007.3,391.5,1011.6,384.4,1018.1,380.4z"/>
	</g>
	
		<path fill="#F4D9BF" stroke="#E3BB94" stroke-width="14" stroke-linecap="round" stroke-linejoin="round" stroke-miterlimit="10" d="
		M895.5,324.3l18.5-1.8c18.8-1.8,40.3-1.7,57.1,7.9c13.9,7.9,21.7,22.3,25.1,37.6c2,8.8,1.1,18.2-2.4,26.5c-4.1,9.8-12,18-21.7,22.6
		c-11.5,5.4-25.1,5.9-37.6,6.1c-13.1,0.3-26.3-1.2-39.1-3.7l-0.3,0.3c0,0-18.5,1.8-18.5,1.8c-18.8,1.8-40.3,1.7-57.1-7.9
		c-13.9-7.9-21.7-22.3-25.1-37.6c-2-8.8-1.1-18.2,2.4-26.5c4.1-9.8,12-18,21.7-22.6c11.5-5.4,25.1-5.9,37.6-6.1
		c13.1-0.3,26.3,1.2,39.1,3.7"/>
	
		<path fill="#F4D9BF" stroke="#E3BB94" stroke-width="14" stroke-linecap="round" stroke-linejoin="round" stroke-miterlimit="10" d="
		M818.3,357.6c0,0-5,37.7,35,36.4c40-1.4,59.6-5.4,85.6,4.1"/>
	<path fill="#E44F50" d="M889.8,357.8c4.8,6.6,15.3,17.9,28.7,13.1c9.7-3.5,14.4-21.8,14.4-21.8s12,9.8,33.3,4.6
		c21.3-5.2,26.8-25.1,26.8-25.1s-4.2,27.7,19.2,24.9c23.2-2.7,15.5-45.5,15.4-46.1c2.8,15.3,19.4,30.2,31.5,13.8
		c9.1-12.3,6.5-32.9,5-47.1c1.2,11.2,12.9,30.5,26.2,23.9c17.5-8.5,8.8-41.8,4.5-55.2c6.6,20.3,30.1,8,35.5-5.7
		c7.6-19.3-6.3-43.6-15.9-59.8c8.7,11.3,28.1,21.4,34.1,2.2c10.5-34.1-15.6-66-36.6-89.8c9,10.7,48,45.3,49.8,10.3
		c1.6-32.1-30.2-55.7-56.3-67.4c8,3.4,16.5,6.8,25.2,7.4c23,1.4,19.4-19.5,8.2-31.8c-12-13.2-27.6-23.4-43.5-31.3
		c5.4,5.2,19.6,14,27.2,13c13.1-1.9,19.2-26.6,12.9-33.6c-18-20-48.6-12.8-60-8l4.6-1.3c20.8-5.9,24.3-25.7,18.4-41.3
		c-11.6-30.7-62.6-17.1-91.3-6.2c9.7-3.7,21.1-3.7,26.1-14.7c4.6-10.2-1.2-20.9-10.8-25.5c-24.2-11.6-49.9,9.9-68.7,22.7
		c6.7-5.3,18.4-13.3,20.1-22.3c3.3-18-24.5-15.5-34.4-13.1c-18.6,4.5-35.3,16.7-46.2,32.3h-5.2c-10.9-15.6-27.6-27.8-46.2-32.3
		c-9.9-2.4-37.7-4.9-34.4,13.1c1.7,9,13.4,17,20.1,22.3c-18.8-12.7-44.5-34.2-68.7-22.7c-9.6,4.6-15.4,15.3-10.8,25.5
		c5,11.1,16.4,11,26.1,14.7c-28.6-11-79.7-24.6-91.3,6.2c-5.9,15.6-2.3,35.4,18.4,41.3l4.6,1.3c-11.4-4.8-42-12-60,8
		c-6.3,7-0.2,31.7,12.9,33.6c7.6,1.1,21.8-7.8,27.2-13C670.4-15.3,654.8-5,642.8,8.2C631.6,20.5,628,41.4,651,40
		c8.7-0.5,17.3-4,25.2-7.4c-26.1,11.8-57.9,35.4-56.3,67.4c1.8,35,40.8,0.4,49.8-10.3c-20.9,23.8-47.1,55.6-36.6,89.8
		c6,19.3,25.4,9.2,34.1-2.2c-9.5,16.3-23.4,40.5-15.9,59.8c5.4,13.7,28.9,26,35.5,5.7c-4.4,13.4-13,46.6,4.5,55.2
		c13.4,6.5,25.1-12.7,26.2-23.9c-1.5,14.2-4.1,34.8,5,47.1c12.1,16.3,28.7,1.5,31.5-13.8c-0.1,0.6-7.8,43.4,15.4,46.1
		c23.3,2.7,19.2-24.9,19.2-24.9s5.5,19.9,26.8,25.1c21.3,5.2,33.3-4.6,33.3-4.6s4.7,18.4,14.4,21.8c13.3,4.8,23.7-6.2,28.6-12.9"/>
	<g>
		<g>
			
				<path fill="#FFFFFF" stroke="#231F20" stroke-width="14" stroke-linecap="round" stroke-linejoin="round" stroke-miterlimit="10" d="
				M877.6,133.9c0,0,1.9,11.5,12.9,11.5"/>
			
				<path fill="#FFFFFF" stroke="#231F20" stroke-width="14" stroke-linecap="round" stroke-linejoin="round" stroke-miterlimit="10" d="
				M903.5,133.9c0,0-1.9,11.5-12.9,11.5"/>
		</g>
		<g>
			
				<circle fill="#FFFFFF" stroke="#231F20" stroke-width="14" stroke-linecap="round" stroke-linejoin="round" stroke-miterlimit="10" cx="788.5" cy="125.6" r="70.5"/>
			<g>
				<path fill="#231F20" d="M789.3,125.6l34.2-10.7c-4.5-14.6-18.1-25.2-34.2-25.2c-19.8,0-35.8,16-35.8,35.8s16,35.8,35.8,35.8
					c16.1,0,29.7-10.6,34.2-25.2L789.3,125.6z"/>
				<path fill="#231F20" d="M789.3,165c-21.7,0-39.4-17.7-39.4-39.4s17.7-39.4,39.4-39.4c17.4,0,32.5,11.1,37.6,27.7
					c0.6,1.9-0.5,3.9-2.3,4.5l-23.3,7.3l23.3,7.3c1.9,0.6,2.9,2.6,2.3,4.5C821.8,153.9,806.7,165,789.3,165z M789.3,93.3
					c-17.8,0-32.3,14.5-32.3,32.3s14.5,32.3,32.3,32.3c13,0,24.5-7.6,29.6-19.3l-30.6-9.6c-1.5-0.5-2.5-1.8-2.5-3.4s1-2.9,2.5-3.4
					l30.6-9.6C813.8,101,802.4,93.3,789.3,93.3z"/>
			</g>
			
				<circle fill="#FFFFFF" stroke="#231F20" stroke-width="14" stroke-linecap="round" stroke-linejoin="round" stroke-miterlimit="10" cx="993.2" cy="125.6" r="70.5"/>
			<g>
				<path fill="#231F20" d="M994,125.6l34.2-10.7c-4.5-14.6-18.1-25.2-34.2-25.2c-19.8,0-35.8,16-35.8,35.8s16,35.8,35.8,35.8
					c16.1,0,29.7-10.6,34.2-25.2L994,125.6z"/>
				<path fill="#231F20" d="M994,165c-21.7,0-39.4-17.7-39.4-39.4s17.7-39.4,39.4-39.4c17.4,0,32.5,11.1,37.6,27.7
					c0.6,1.9-0.5,3.9-2.3,4.5l-23.3,7.3l23.3,7.3c1.9,0.6,2.9,2.6,2.3,4.5C1026.5,153.9,1011.4,165,994,165z M994,93.3
					c-17.8,0-32.3,14.5-32.3,32.3s14.5,32.3,32.3,32.3c13,0,24.5-7.6,29.6-19.3L993,129c-1.5-0.5-2.5-1.8-2.5-3.4s1-2.9,2.5-3.4
					l30.6-9.6C1018.5,101,1007,93.3,994,93.3z"/>
			</g>
		</g>
	</g>
	
		<path fill="#F4D9BF" stroke="#E3BB94" stroke-width="30" stroke-linecap="round" stroke-linejoin="round" stroke-miterlimit="10" d="
		M891.5-277.7c0,0,50.7-5,50.7-5c51.4-5.1,110.3-4.7,156.5,21.7c38.2,21.8,59.5,61.2,68.8,103.1c5.4,24.1,3.1,49.9-6.5,72.7
		c-11.3,26.9-32.9,49.4-59.3,61.8c-31.6,14.9-68.7,16.1-103,16.8c-35.9,0.7-72.1-3.2-107.2-10.2l-0.9,0.8l-50.7,5
		c-51.4,5.1-110.3,4.7-156.5-21.7c-38.2-21.8-59.5-61.2-68.8-103.1c-5.4-24.1-3.1-49.9,6.5-72.7c11.3-26.9,32.9-49.4,59.3-61.8
		c31.6-14.9,68.7-16.1,103-16.8c35.9-0.7,72.1,3.2,107.2,10.2"/>
	
		<path fill="#AD9A72" stroke="#E3BB94" stroke-width="30" stroke-linecap="round" stroke-linejoin="round" stroke-miterlimit="10" d="
		M999.7-243.6c-10.9,0.5-21.8,1.8-31.8,3.7c-9.9,1.9-19.6,4.8-29,8.5c-5.6,2.2-31.8,19.2-35.5,17.9c-19.3-6.9-39.1-12.7-59-17.8
		c-32.2-8.3-74.3-20.3-107.5-12.2c-7.9,1.9-15.5,6.7-18.7,14.1c-5.4,12.5,3.2,26.7,13.5,35.7c17.5,15.2,40.2,23,62.9,27.2
		c50,9.3,101.7,2.9,151.2-8.9c23.7-5.6,46-4.6,69.6-8c17.4-2.5,39.6-9.6,41.5-30.2c0.8-8.7-3.2-17.8-10.3-23
		c-5.7-4.2-13-5.9-20.1-6.5C1018-244,1008.9-244.1,999.7-243.6z"/>
	<path fill="none" stroke="#E3BB94" stroke-width="30" stroke-linecap="round" stroke-linejoin="round" stroke-miterlimit="10" d="
		M669.8-137.9c0,0,27.9,79,109,75"/>
	
		<path fill="#F4D9BF" stroke="#E3BB94" stroke-width="14" stroke-linecap="round" stroke-linejoin="round" stroke-miterlimit="10" d="
		M966.1,361.1c0,0,9.8,21.2-1.5,32.3"/>
	
		<path fill="#542700" stroke="#542700" stroke-width="14" stroke-linecap="round" stroke-linejoin="round" stroke-miterlimit="10" d="
		M757.1-199c19.7,12.6,43.6,19.4,66.5,19.7c50.6,0.7,48.6,94,48.6,94s-4,22.5,14.7,22.5c18.7,0,16.7-23.8,16.7-23.8v-96l36-5.3v59.3
		c0,0-0.4,28.2,15.1,28.2c15.5,0,17.5-22.2,17.5-22.2s0-71.7,0-72c0-8.1-11.7-20-18.7-22.2c-9.3-2.8-17.5,4-25.5,7.7
		c-12.2,5.7-25.7,10-39.2,7.4c-12.2-2.3-22.3-9.9-33.6-14.5c-12.3-5.1-25.8-5.8-38.7-8.3c-23.8-4.5-49.4-10.1-73.6-5.4
		c-3,0.6-6.2,1.5-7.8,4.1c-2.5,4.2,0.8,9.4,4.3,12.8C744.8-207.7,750.7-203,757.1-199z"/>
	
		<path fill="#542700" stroke="#542700" stroke-width="14" stroke-linecap="round" stroke-linejoin="round" stroke-miterlimit="10" d="
		M954.6-55.2c0,0-25.8,48.9-1.8,48.9S972.4-20.1,954.6-55.2z"/>
	
		<path fill="#542700" stroke="#542700" stroke-width="14" stroke-linecap="round" stroke-linejoin="round" stroke-miterlimit="10" d="
		M882.7,17.5c0,0-25.8,48.9-1.8,48.9S900.5,52.7,882.7,17.5z"/>
</g>
</svg>
